<?xml version="1.0" encoding="UTF-8" standalone="no"?>
<!DOCTYPE svg PUBLIC "-//W3C//DTD SVG 1.1//EN"
 "http://www.w3.org/Graphics/SVG/1.1/DTD/svg11.dtd">
<!-- Generated by graphviz version 2.36.0 (20140111.2315)
 -->
<!-- Title: controllers_diagram Pages: 1 -->
<svg width="417pt" height="328pt"
 viewBox="0.00 0.00 417.00 328.00" xmlns="http://www.w3.org/2000/svg" xmlns:xlink="http://www.w3.org/1999/xlink">
<g id="graph0" class="graph" transform="scale(1 1) rotate(0) translate(4 324)">
<title>controllers_diagram</title>
<polygon fill="none" stroke="none" points="-4,4 -4,-324 413,-324 413,4 -4,4"/>
<!-- _diagram_info -->
<g id="node1" class="node"><title>_diagram_info</title>
<text text-anchor="start" x="203" y="-273.6" font-family="Times,serif" font-size="13.00">Controllers diagram</text>
<text text-anchor="start" x="203" y="-259.6" font-family="Times,serif" font-size="13.00">Date: Jun 26 2017 &#45; 08:57</text>
<text text-anchor="start" x="203" y="-245.6" font-family="Times,serif" font-size="13.00">Migration version: 20170625055802</text>
<text text-anchor="start" x="203" y="-231.6" font-family="Times,serif" font-size="13.00">Generated by RailRoady 1.5.3</text>
<text text-anchor="start" x="203" y="-217.6" font-family="Times,serif" font-size="13.00">http://railroady.prestonlee.com</text>
</g>
<!-- ApplicationController -->
<g id="node2" class="node"><title>ApplicationController</title>
<path fill="none" stroke="black" d="M42,-225.5C42,-225.5 154,-225.5 154,-225.5 160,-225.5 166,-231.5 166,-237.5 166,-237.5 166,-307.5 166,-307.5 166,-313.5 160,-319.5 154,-319.5 154,-319.5 42,-319.5 42,-319.5 36,-319.5 30,-313.5 30,-307.5 30,-307.5 30,-237.5 30,-237.5 30,-231.5 36,-225.5 42,-225.5"/>
<text text-anchor="middle" x="98" y="-304.3" font-family="Times,serif" font-size="14.00">ApplicationController</text>
<polyline fill="none" stroke="black" points="30,-296.5 166,-296.5 "/>
<polyline fill="none" stroke="black" points="30,-272.5 166,-272.5 "/>
<polyline fill="none" stroke="black" points="30,-248.5 166,-248.5 "/>
<text text-anchor="start" x="38" y="-233.3" font-family="Times,serif" font-size="14.00">_layout</text>
</g>
<!-- HomeController -->
<g id="node3" class="node"><title>HomeController</title>
<path fill="none" stroke="black" d="M267,-0.5C267,-0.5 349,-0.5 349,-0.5 355,-0.5 361,-6.5 361,-12.5 361,-12.5 361,-96.5 361,-96.5 361,-102.5 355,-108.5 349,-108.5 349,-108.5 267,-108.5 267,-108.5 261,-108.5 255,-102.5 255,-96.5 255,-96.5 255,-12.5 255,-12.5 255,-6.5 261,-0.5 267,-0.5"/>
<text text-anchor="middle" x="308" y="-93.3" font-family="Times,serif" font-size="14.00">HomeController</text>
<polyline fill="none" stroke="black" points="255,-85.5 361,-85.5 "/>
<text text-anchor="start" x="263" y="-70.3" font-family="Times,serif" font-size="14.00">index</text>
<text text-anchor="start" x="263" y="-55.3" font-family="Times,serif" font-size="14.00">load</text>
<polyline fill="none" stroke="black" points="255,-47.5 361,-47.5 "/>
<polyline fill="none" stroke="black" points="255,-23.5 361,-23.5 "/>
<text text-anchor="start" x="263" y="-8.3" font-family="Times,serif" font-size="14.00">_layout</text>
</g>
<!-- Users::OmniauthCallbacksController -->
<g id="node4" class="node"><title>Users::OmniauthCallbacksController</title>
<path fill="none" stroke="black" d="M12,-75.5C12,-75.5 206,-75.5 206,-75.5 212,-75.5 218,-81.5 218,-87.5 218,-87.5 218,-171.5 218,-171.5 218,-177.5 212,-183.5 206,-183.5 206,-183.5 12,-183.5 12,-183.5 6,-183.5 0,-177.5 0,-171.5 0,-171.5 0,-87.5 0,-87.5 0,-81.5 6,-75.5 12,-75.5"/>
<text text-anchor="middle" x="109" y="-168.3" font-family="Times,serif" font-size="14.00">Users::OmniauthCallbacksController</text>
<polyline fill="none" stroke="black" points="0,-160.5 218,-160.5 "/>
<text text-anchor="start" x="8" y="-145.3" font-family="Times,serif" font-size="14.00">failure</text>
<text text-anchor="start" x="8" y="-130.3" font-family="Times,serif" font-size="14.00">google_oauth2</text>
<polyline fill="none" stroke="black" points="0,-122.5 218,-122.5 "/>
<polyline fill="none" stroke="black" points="0,-98.5 218,-98.5 "/>
<text text-anchor="start" x="8" y="-83.3" font-family="Times,serif" font-size="14.00">_layout</text>
</g>
</g>
</svg>
