<?xml version="1.0" encoding="UTF-8" standalone="no"?>
<!DOCTYPE svg PUBLIC "-//W3C//DTD SVG 1.1//EN"
 "http://www.w3.org/Graphics/SVG/1.1/DTD/svg11.dtd">
<!-- Generated by graphviz version 2.36.0 (20140111.2315)
 -->
<!-- Title: controllers_diagram Pages: 1 -->
<svg width="402pt" height="405pt"
 viewBox="0.00 0.00 402.00 405.00" xmlns="http://www.w3.org/2000/svg" xmlns:xlink="http://www.w3.org/1999/xlink">
<g id="graph0" class="graph" transform="scale(1 1) rotate(0) translate(4 401)">
<title>controllers_diagram</title>
<polygon fill="none" stroke="none" points="-4,4 -4,-401 398,-401 398,4 -4,4"/>
<!-- _diagram_info -->
<g id="node1" class="node"><title>_diagram_info</title>
<text text-anchor="start" x="184" y="-239.6" font-family="Times,serif" font-size="13.00">Controllers diagram</text>
<text text-anchor="start" x="184" y="-225.6" font-family="Times,serif" font-size="13.00">Date: Jul 11 2017 &#45; 19:33</text>
<text text-anchor="start" x="184" y="-211.6" font-family="Times,serif" font-size="13.00">Migration version: 20170705112847</text>
<text text-anchor="start" x="184" y="-197.6" font-family="Times,serif" font-size="13.00">Generated by RailRoady 1.5.3</text>
<text text-anchor="start" x="184" y="-183.6" font-family="Times,serif" font-size="13.00">http://railroady.prestonlee.com</text>
</g>
<!-- ApplicationController -->
<g id="node2" class="node"><title>ApplicationController</title>
<path fill="none" stroke="black" d="M12,-240.5C12,-240.5 124,-240.5 124,-240.5 130,-240.5 136,-246.5 136,-252.5 136,-252.5 136,-322.5 136,-322.5 136,-328.5 130,-334.5 124,-334.5 124,-334.5 12,-334.5 12,-334.5 6,-334.5 0,-328.5 0,-322.5 0,-322.5 0,-252.5 0,-252.5 0,-246.5 6,-240.5 12,-240.5"/>
<text text-anchor="middle" x="68" y="-319.3" font-family="Times,serif" font-size="14.00">ApplicationController</text>
<polyline fill="none" stroke="black" points="0,-311.5 136,-311.5 "/>
<polyline fill="none" stroke="black" points="0,-287.5 136,-287.5 "/>
<polyline fill="none" stroke="black" points="0,-263.5 136,-263.5 "/>
<text text-anchor="start" x="8" y="-248.3" font-family="Times,serif" font-size="14.00">_layout</text>
</g>
<!-- DatasetsController -->
<g id="node3" class="node"><title>DatasetsController</title>
<path fill="none" stroke="black" d="M44,-0.5C44,-0.5 138,-0.5 138,-0.5 144,-0.5 150,-6.5 150,-12.5 150,-12.5 150,-201.5 150,-201.5 150,-207.5 144,-213.5 138,-213.5 138,-213.5 44,-213.5 44,-213.5 38,-213.5 32,-207.5 32,-201.5 32,-201.5 32,-12.5 32,-12.5 32,-6.5 38,-0.5 44,-0.5"/>
<text text-anchor="middle" x="91" y="-198.3" font-family="Times,serif" font-size="14.00">DatasetsController</text>
<polyline fill="none" stroke="black" points="32,-190.5 150,-190.5 "/>
<text text-anchor="start" x="40" y="-175.3" font-family="Times,serif" font-size="14.00">add_source</text>
<text text-anchor="start" x="40" y="-160.3" font-family="Times,serif" font-size="14.00">cluster_map</text>
<text text-anchor="start" x="40" y="-145.3" font-family="Times,serif" font-size="14.00">destroy</text>
<text text-anchor="start" x="40" y="-130.3" font-family="Times,serif" font-size="14.00">edit</text>
<text text-anchor="start" x="40" y="-115.3" font-family="Times,serif" font-size="14.00">histogram</text>
<text text-anchor="start" x="40" y="-100.3" font-family="Times,serif" font-size="14.00">process</text>
<text text-anchor="start" x="40" y="-85.3" font-family="Times,serif" font-size="14.00">show</text>
<text text-anchor="start" x="40" y="-70.3" font-family="Times,serif" font-size="14.00">update</text>
<text text-anchor="start" x="40" y="-55.3" font-family="Times,serif" font-size="14.00">wordcloud</text>
<polyline fill="none" stroke="black" points="32,-47.5 150,-47.5 "/>
<polyline fill="none" stroke="black" points="32,-23.5 150,-23.5 "/>
<text text-anchor="start" x="40" y="-8.3" font-family="Times,serif" font-size="14.00">_layout</text>
</g>
<!-- HomeController -->
<g id="node4" class="node"><title>HomeController</title>
<path fill="none" stroke="black" d="M284,-288.5C284,-288.5 366,-288.5 366,-288.5 372,-288.5 378,-294.5 378,-300.5 378,-300.5 378,-384.5 378,-384.5 378,-390.5 372,-396.5 366,-396.5 366,-396.5 284,-396.5 284,-396.5 278,-396.5 272,-390.5 272,-384.5 272,-384.5 272,-300.5 272,-300.5 272,-294.5 278,-288.5 284,-288.5"/>
<text text-anchor="middle" x="325" y="-381.3" font-family="Times,serif" font-size="14.00">HomeController</text>
<polyline fill="none" stroke="black" points="272,-373.5 378,-373.5 "/>
<text text-anchor="start" x="280" y="-358.3" font-family="Times,serif" font-size="14.00">index</text>
<text text-anchor="start" x="280" y="-343.3" font-family="Times,serif" font-size="14.00">load</text>
<polyline fill="none" stroke="black" points="272,-335.5 378,-335.5 "/>
<polyline fill="none" stroke="black" points="272,-311.5 378,-311.5 "/>
<text text-anchor="start" x="280" y="-296.3" font-family="Times,serif" font-size="14.00">_layout</text>
</g>
<!-- Users::OmniauthCallbacksController -->
<g id="node5" class="node"><title>Users::OmniauthCallbacksController</title>
<path fill="none" stroke="black" d="M188,-32.5C188,-32.5 382,-32.5 382,-32.5 388,-32.5 394,-38.5 394,-44.5 394,-44.5 394,-128.5 394,-128.5 394,-134.5 388,-140.5 382,-140.5 382,-140.5 188,-140.5 188,-140.5 182,-140.5 176,-134.5 176,-128.5 176,-128.5 176,-44.5 176,-44.5 176,-38.5 182,-32.5 188,-32.5"/>
<text text-anchor="middle" x="285" y="-125.3" font-family="Times,serif" font-size="14.00">Users::OmniauthCallbacksController</text>
<polyline fill="none" stroke="black" points="176,-117.5 394,-117.5 "/>
<text text-anchor="start" x="184" y="-102.3" font-family="Times,serif" font-size="14.00">failure</text>
<text text-anchor="start" x="184" y="-87.3" font-family="Times,serif" font-size="14.00">google_oauth2</text>
<polyline fill="none" stroke="black" points="176,-79.5 394,-79.5 "/>
<polyline fill="none" stroke="black" points="176,-55.5 394,-55.5 "/>
<text text-anchor="start" x="184" y="-40.3" font-family="Times,serif" font-size="14.00">_layout</text>
</g>
</g>
</svg>
