<?xml version="1.0" encoding="UTF-8" standalone="no"?>
<!DOCTYPE svg PUBLIC "-//W3C//DTD SVG 1.1//EN"
 "http://www.w3.org/Graphics/SVG/1.1/DTD/svg11.dtd">
<!-- Generated by graphviz version 2.38.0 (20140413.2041)
 -->
<!-- Title: controllers_diagram Pages: 1 -->
<svg width="533pt" height="493pt"
 viewBox="0.00 0.00 532.50 493.50" xmlns="http://www.w3.org/2000/svg" xmlns:xlink="http://www.w3.org/1999/xlink">
<g id="graph0" class="graph" transform="scale(1 1) rotate(0) translate(225.5 269)">
<title>controllers_diagram</title>
<polygon fill="none" stroke="none" points="-225.5,224.5 -225.5,-269 307,-269 307,224.5 -225.5,224.5"/>
<!-- _diagram_info -->
<g id="node1" class="node"><title>_diagram_info</title>
<text text-anchor="start" x="-162" y="-233.6" font-family="Times,serif" font-size="13.00">Controllers diagram</text>
<text text-anchor="start" x="-162" y="-219.6" font-family="Times,serif" font-size="13.00">Date: May 10 2018 &#45; 17:08</text>
<text text-anchor="start" x="-162" y="-205.6" font-family="Times,serif" font-size="13.00">Migration version: 20180505084756</text>
<text text-anchor="start" x="-162" y="-191.6" font-family="Times,serif" font-size="13.00">Generated by RailRoady 1.5.3</text>
<text text-anchor="start" x="-162" y="-177.6" font-family="Times,serif" font-size="13.00">http://railroady.prestonlee.com</text>
</g>
<!-- ApplicationController -->
<g id="node2" class="node"><title>ApplicationController</title>
<path fill="none" stroke="black" d="M97,220C97,220 209,220 209,220 215,220 221,214 221,208 221,208 221,138 221,138 221,132 215,126 209,126 209,126 97,126 97,126 91,126 85,132 85,138 85,138 85,208 85,208 85,214 91,220 97,220"/>
<text text-anchor="middle" x="153" y="141.2" font-family="Times,serif" font-size="14.00">ApplicationController</text>
<polyline fill="none" stroke="black" points="85,149 221,149 "/>
<polyline fill="none" stroke="black" points="85,173 221,173 "/>
<polyline fill="none" stroke="black" points="85,197 221,197 "/>
<text text-anchor="start" x="93" y="212.2" font-family="Times,serif" font-size="14.00">_layout</text>
</g>
<!-- Users::OmniauthCallbacksController -->
<g id="node3" class="node"><title>Users::OmniauthCallbacksController</title>
<path fill="none" stroke="black" d="M97,84C97,84 291,84 291,84 297,84 303,78 303,72 303,72 303,-12 303,-12 303,-18 297,-24 291,-24 291,-24 97,-24 97,-24 91,-24 85,-18 85,-12 85,-12 85,72 85,72 85,78 91,84 97,84"/>
<text text-anchor="middle" x="194" y="-8.8" font-family="Times,serif" font-size="14.00">Users::OmniauthCallbacksController</text>
<polyline fill="none" stroke="black" points="85,-1 303,-1 "/>
<text text-anchor="start" x="93" y="14.2" font-family="Times,serif" font-size="14.00">failure</text>
<text text-anchor="start" x="93" y="29.2" font-family="Times,serif" font-size="14.00">google_oauth2</text>
<polyline fill="none" stroke="black" points="85,37 303,37 "/>
<polyline fill="none" stroke="black" points="85,61 303,61 "/>
<text text-anchor="start" x="93" y="76.2" font-family="Times,serif" font-size="14.00">_layout</text>
</g>
<!-- SourcesController -->
<g id="node4" class="node"><title>SourcesController</title>
<path fill="none" stroke="black" d="M-56.5,135.5C-56.5,135.5 34.5,135.5 34.5,135.5 40.5,135.5 46.5,129.5 46.5,123.5 46.5,123.5 46.5,-95.5 46.5,-95.5 46.5,-101.5 40.5,-107.5 34.5,-107.5 34.5,-107.5 -56.5,-107.5 -56.5,-107.5 -62.5,-107.5 -68.5,-101.5 -68.5,-95.5 -68.5,-95.5 -68.5,123.5 -68.5,123.5 -68.5,129.5 -62.5,135.5 -56.5,135.5"/>
<text text-anchor="middle" x="-11" y="-92.3" font-family="Times,serif" font-size="14.00">SourcesController</text>
<polyline fill="none" stroke="black" points="-68.5,-84.5 46.5,-84.5 "/>
<text text-anchor="start" x="-60.5" y="-69.3" font-family="Times,serif" font-size="14.00">add_refs</text>
<text text-anchor="start" x="-60.5" y="-54.3" font-family="Times,serif" font-size="14.00">data_proc</text>
<text text-anchor="start" x="-60.5" y="-39.3" font-family="Times,serif" font-size="14.00">destroy</text>
<text text-anchor="start" x="-60.5" y="-24.3" font-family="Times,serif" font-size="14.00">edit</text>
<text text-anchor="start" x="-60.5" y="-9.3" font-family="Times,serif" font-size="14.00">get_data</text>
<text text-anchor="start" x="-60.5" y="5.7" font-family="Times,serif" font-size="14.00">get_relate_data</text>
<text text-anchor="start" x="-60.5" y="20.7" font-family="Times,serif" font-size="14.00">get_source_refs</text>
<text text-anchor="start" x="-60.5" y="35.7" font-family="Times,serif" font-size="14.00">show</text>
<text text-anchor="start" x="-60.5" y="50.7" font-family="Times,serif" font-size="14.00">update</text>
<polyline fill="none" stroke="black" points="-68.5,58.5 46.5,58.5 "/>
<polyline fill="none" stroke="black" points="-68.5,82.5 46.5,82.5 "/>
<text text-anchor="start" x="-60.5" y="97.7" font-family="Times,serif" font-size="14.00">_layout</text>
<text text-anchor="start" x="-60.5" y="112.7" font-family="Times,serif" font-size="14.00">set_source</text>
<text text-anchor="start" x="-60.5" y="127.7" font-family="Times,serif" font-size="14.00">source_params</text>
</g>
<!-- DatasetsController -->
<g id="node5" class="node"><title>DatasetsController</title>
<path fill="none" stroke="black" d="M97,-51.5C97,-51.5 191,-51.5 191,-51.5 197,-51.5 203,-57.5 203,-63.5 203,-63.5 203,-252.5 203,-252.5 203,-258.5 197,-264.5 191,-264.5 191,-264.5 97,-264.5 97,-264.5 91,-264.5 85,-258.5 85,-252.5 85,-252.5 85,-63.5 85,-63.5 85,-57.5 91,-51.5 97,-51.5"/>
<text text-anchor="middle" x="144" y="-249.3" font-family="Times,serif" font-size="14.00">DatasetsController</text>
<polyline fill="none" stroke="black" points="85,-241.5 203,-241.5 "/>
<text text-anchor="start" x="93" y="-226.3" font-family="Times,serif" font-size="14.00">calc_stats</text>
<text text-anchor="start" x="93" y="-211.3" font-family="Times,serif" font-size="14.00">data_proc</text>
<text text-anchor="start" x="93" y="-196.3" font-family="Times,serif" font-size="14.00">destroy</text>
<text text-anchor="start" x="93" y="-181.3" font-family="Times,serif" font-size="14.00">edit</text>
<text text-anchor="start" x="93" y="-166.3" font-family="Times,serif" font-size="14.00">get_data</text>
<text text-anchor="start" x="93" y="-151.3" font-family="Times,serif" font-size="14.00">show</text>
<text text-anchor="start" x="93" y="-136.3" font-family="Times,serif" font-size="14.00">update</text>
<polyline fill="none" stroke="black" points="85,-128.5 203,-128.5 "/>
<polyline fill="none" stroke="black" points="85,-104.5 203,-104.5 "/>
<text text-anchor="start" x="93" y="-89.3" font-family="Times,serif" font-size="14.00">_layout</text>
<text text-anchor="start" x="93" y="-74.3" font-family="Times,serif" font-size="14.00">dataset_params</text>
<text text-anchor="start" x="93" y="-59.3" font-family="Times,serif" font-size="14.00">set_dataset</text>
</g>
<!-- HomeController -->
<g id="node6" class="node"><title>HomeController</title>
<path fill="none" stroke="black" d="M-209.5,-0.5C-209.5,-0.5 -118.5,-0.5 -118.5,-0.5 -112.5,-0.5 -106.5,-6.5 -106.5,-12.5 -106.5,-12.5 -106.5,-111.5 -106.5,-111.5 -106.5,-117.5 -112.5,-123.5 -118.5,-123.5 -118.5,-123.5 -209.5,-123.5 -209.5,-123.5 -215.5,-123.5 -221.5,-117.5 -221.5,-111.5 -221.5,-111.5 -221.5,-12.5 -221.5,-12.5 -221.5,-6.5 -215.5,-0.5 -209.5,-0.5"/>
<text text-anchor="middle" x="-164" y="-108.3" font-family="Times,serif" font-size="14.00">HomeController</text>
<polyline fill="none" stroke="black" points="-221.5,-100.5 -106.5,-100.5 "/>
<text text-anchor="start" x="-213.5" y="-85.3" font-family="Times,serif" font-size="14.00">index</text>
<text text-anchor="start" x="-213.5" y="-70.3" font-family="Times,serif" font-size="14.00">pull</text>
<text text-anchor="start" x="-213.5" y="-55.3" font-family="Times,serif" font-size="14.00">update_synonyms</text>
<polyline fill="none" stroke="black" points="-221.5,-47.5 -106.5,-47.5 "/>
<polyline fill="none" stroke="black" points="-221.5,-23.5 -106.5,-23.5 "/>
<text text-anchor="start" x="-213.5" y="-8.3" font-family="Times,serif" font-size="14.00">_layout</text>
</g>
</g>
</svg>
