<?xml version="1.0" encoding="UTF-8" standalone="no"?>
<!DOCTYPE svg PUBLIC "-//W3C//DTD SVG 1.1//EN"
 "http://www.w3.org/Graphics/SVG/1.1/DTD/svg11.dtd">
<!-- Generated by graphviz version 2.38.0 (20140413.2041)
 -->
<!-- Title: controllers_diagram Pages: 1 -->
<svg width="417pt" height="328pt"
 viewBox="0.00 0.00 417.00 328.00" xmlns="http://www.w3.org/2000/svg" xmlns:xlink="http://www.w3.org/1999/xlink">
<g id="graph0" class="graph" transform="scale(1 1) rotate(0) translate(124 189.5)">
<title>controllers_diagram</title>
<polygon fill="none" stroke="none" points="-124,138.5 -124,-189.5 293,-189.5 293,138.5 -124,138.5"/>
<!-- _diagram_info -->
<g id="node1" class="node"><title>_diagram_info</title>
<text text-anchor="start" x="83" y="-138.6" font-family="Times,serif" font-size="13.00">Controllers diagram</text>
<text text-anchor="start" x="83" y="-124.6" font-family="Times,serif" font-size="13.00">Date: Jun 22 2017 &#45; 15:03</text>
<text text-anchor="start" x="83" y="-110.6" font-family="Times,serif" font-size="13.00">Migration version: 20170621150442</text>
<text text-anchor="start" x="83" y="-96.6" font-family="Times,serif" font-size="13.00">Generated by RailRoady 1.5.3</text>
<text text-anchor="start" x="83" y="-82.6" font-family="Times,serif" font-size="13.00">http://railroady.prestonlee.com</text>
</g>
<!-- ApplicationController -->
<g id="node2" class="node"><title>ApplicationController</title>
<path fill="none" stroke="black" d="M-78,-91C-78,-91 34,-91 34,-91 40,-91 46,-97 46,-103 46,-103 46,-173 46,-173 46,-179 40,-185 34,-185 34,-185 -78,-185 -78,-185 -84,-185 -90,-179 -90,-173 -90,-173 -90,-103 -90,-103 -90,-97 -84,-91 -78,-91"/>
<text text-anchor="middle" x="-22" y="-169.8" font-family="Times,serif" font-size="14.00">ApplicationController</text>
<polyline fill="none" stroke="black" points="-90,-162 46,-162 "/>
<polyline fill="none" stroke="black" points="-90,-138 46,-138 "/>
<polyline fill="none" stroke="black" points="-90,-114 46,-114 "/>
<text text-anchor="start" x="-82" y="-98.8" font-family="Times,serif" font-size="14.00">_layout</text>
</g>
<!-- Users::OmniauthCallbacksController -->
<g id="node3" class="node"><title>Users::OmniauthCallbacksController</title>
<path fill="none" stroke="black" d="M-108,59C-108,59 86,59 86,59 92,59 98,53 98,47 98,47 98,-37 98,-37 98,-43 92,-49 86,-49 86,-49 -108,-49 -108,-49 -114,-49 -120,-43 -120,-37 -120,-37 -120,47 -120,47 -120,53 -114,59 -108,59"/>
<text text-anchor="middle" x="-11" y="-33.8" font-family="Times,serif" font-size="14.00">Users::OmniauthCallbacksController</text>
<polyline fill="none" stroke="black" points="-120,-26 98,-26 "/>
<text text-anchor="start" x="-112" y="-10.8" font-family="Times,serif" font-size="14.00">failure</text>
<text text-anchor="start" x="-112" y="4.2" font-family="Times,serif" font-size="14.00">google_oauth2</text>
<polyline fill="none" stroke="black" points="-120,12 98,12 "/>
<polyline fill="none" stroke="black" points="-120,36 98,36 "/>
<text text-anchor="start" x="-112" y="51.2" font-family="Times,serif" font-size="14.00">_layout</text>
</g>
<!-- HomeController -->
<g id="node4" class="node"><title>HomeController</title>
<path fill="none" stroke="black" d="M147,134C147,134 229,134 229,134 235,134 241,128 241,122 241,122 241,38 241,38 241,32 235,26 229,26 229,26 147,26 147,26 141,26 135,32 135,38 135,38 135,122 135,122 135,128 141,134 147,134"/>
<text text-anchor="middle" x="188" y="41.2" font-family="Times,serif" font-size="14.00">HomeController</text>
<polyline fill="none" stroke="black" points="135,49 241,49 "/>
<text text-anchor="start" x="143" y="64.2" font-family="Times,serif" font-size="14.00">index</text>
<text text-anchor="start" x="143" y="79.2" font-family="Times,serif" font-size="14.00">load</text>
<polyline fill="none" stroke="black" points="135,87 241,87 "/>
<polyline fill="none" stroke="black" points="135,111 241,111 "/>
<text text-anchor="start" x="143" y="126.2" font-family="Times,serif" font-size="14.00">_layout</text>
</g>
</g>
</svg>
