<?xml version="1.0" encoding="UTF-8" standalone="no"?>
<!DOCTYPE svg PUBLIC "-//W3C//DTD SVG 1.1//EN"
 "http://www.w3.org/Graphics/SVG/1.1/DTD/svg11.dtd">
<!-- Generated by graphviz version 2.36.0 (20140111.2315)
 -->
<!-- Title: controllers_diagram Pages: 1 -->
<svg width="514pt" height="464pt"
 viewBox="0.00 0.00 514.00 464.00" xmlns="http://www.w3.org/2000/svg" xmlns:xlink="http://www.w3.org/1999/xlink">
<g id="graph0" class="graph" transform="scale(1 1) rotate(0) translate(4 460)">
<title>controllers_diagram</title>
<polygon fill="none" stroke="none" points="-4,4 -4,-460 510,-460 510,4 -4,4"/>
<!-- _diagram_info -->
<g id="node1" class="node"><title>_diagram_info</title>
<text text-anchor="start" x="56" y="-431.6" font-family="Times,serif" font-size="13.00">Controllers diagram</text>
<text text-anchor="start" x="56" y="-417.6" font-family="Times,serif" font-size="13.00">Date: Aug 04 2017 &#45; 10:06</text>
<text text-anchor="start" x="56" y="-403.6" font-family="Times,serif" font-size="13.00">Migration version: 20170725141651</text>
<text text-anchor="start" x="56" y="-389.6" font-family="Times,serif" font-size="13.00">Generated by RailRoady 1.5.3</text>
<text text-anchor="start" x="56" y="-375.6" font-family="Times,serif" font-size="13.00">http://railroady.prestonlee.com</text>
</g>
<!-- ApplicationController -->
<g id="node2" class="node"><title>ApplicationController</title>
<path fill="none" stroke="black" d="M300,-0.5C300,-0.5 412,-0.5 412,-0.5 418,-0.5 424,-6.5 424,-12.5 424,-12.5 424,-82.5 424,-82.5 424,-88.5 418,-94.5 412,-94.5 412,-94.5 300,-94.5 300,-94.5 294,-94.5 288,-88.5 288,-82.5 288,-82.5 288,-12.5 288,-12.5 288,-6.5 294,-0.5 300,-0.5"/>
<text text-anchor="middle" x="356" y="-79.3" font-family="Times,serif" font-size="14.00">ApplicationController</text>
<polyline fill="none" stroke="black" points="288,-71.5 424,-71.5 "/>
<polyline fill="none" stroke="black" points="288,-47.5 424,-47.5 "/>
<polyline fill="none" stroke="black" points="288,-23.5 424,-23.5 "/>
<text text-anchor="start" x="296" y="-8.3" font-family="Times,serif" font-size="14.00">_layout</text>
</g>
<!-- DatasetsController -->
<g id="node3" class="node"><title>DatasetsController</title>
<path fill="none" stroke="black" d="M300,-272.5C300,-272.5 394,-272.5 394,-272.5 400,-272.5 406,-278.5 406,-284.5 406,-284.5 406,-443.5 406,-443.5 406,-449.5 400,-455.5 394,-455.5 394,-455.5 300,-455.5 300,-455.5 294,-455.5 288,-449.5 288,-443.5 288,-443.5 288,-284.5 288,-284.5 288,-278.5 294,-272.5 300,-272.5"/>
<text text-anchor="middle" x="347" y="-440.3" font-family="Times,serif" font-size="14.00">DatasetsController</text>
<polyline fill="none" stroke="black" points="288,-432.5 406,-432.5 "/>
<text text-anchor="start" x="296" y="-417.3" font-family="Times,serif" font-size="14.00">data_proc</text>
<text text-anchor="start" x="296" y="-402.3" font-family="Times,serif" font-size="14.00">destroy</text>
<text text-anchor="start" x="296" y="-387.3" font-family="Times,serif" font-size="14.00">edit</text>
<text text-anchor="start" x="296" y="-372.3" font-family="Times,serif" font-size="14.00">show</text>
<text text-anchor="start" x="296" y="-357.3" font-family="Times,serif" font-size="14.00">update</text>
<polyline fill="none" stroke="black" points="288,-349.5 406,-349.5 "/>
<polyline fill="none" stroke="black" points="288,-325.5 406,-325.5 "/>
<text text-anchor="start" x="296" y="-310.3" font-family="Times,serif" font-size="14.00">_layout</text>
<text text-anchor="start" x="296" y="-295.3" font-family="Times,serif" font-size="14.00">dataset_params</text>
<text text-anchor="start" x="296" y="-280.3" font-family="Times,serif" font-size="14.00">set_dataset</text>
</g>
<!-- HomeController -->
<g id="node4" class="node"><title>HomeController</title>
<path fill="none" stroke="black" d="M12,-208.5C12,-208.5 94,-208.5 94,-208.5 100,-208.5 106,-214.5 106,-220.5 106,-220.5 106,-304.5 106,-304.5 106,-310.5 100,-316.5 94,-316.5 94,-316.5 12,-316.5 12,-316.5 6,-316.5 0,-310.5 0,-304.5 0,-304.5 0,-220.5 0,-220.5 0,-214.5 6,-208.5 12,-208.5"/>
<text text-anchor="middle" x="53" y="-301.3" font-family="Times,serif" font-size="14.00">HomeController</text>
<polyline fill="none" stroke="black" points="0,-293.5 106,-293.5 "/>
<text text-anchor="start" x="8" y="-278.3" font-family="Times,serif" font-size="14.00">index</text>
<text text-anchor="start" x="8" y="-263.3" font-family="Times,serif" font-size="14.00">pull</text>
<polyline fill="none" stroke="black" points="0,-255.5 106,-255.5 "/>
<polyline fill="none" stroke="black" points="0,-231.5 106,-231.5 "/>
<text text-anchor="start" x="8" y="-216.3" font-family="Times,serif" font-size="14.00">_layout</text>
</g>
<!-- SourcesController -->
<g id="node5" class="node"><title>SourcesController</title>
<path fill="none" stroke="black" d="M156,-96.5C156,-96.5 247,-96.5 247,-96.5 253,-96.5 259,-102.5 259,-108.5 259,-108.5 259,-282.5 259,-282.5 259,-288.5 253,-294.5 247,-294.5 247,-294.5 156,-294.5 156,-294.5 150,-294.5 144,-288.5 144,-282.5 144,-282.5 144,-108.5 144,-108.5 144,-102.5 150,-96.5 156,-96.5"/>
<text text-anchor="middle" x="201.5" y="-279.3" font-family="Times,serif" font-size="14.00">SourcesController</text>
<polyline fill="none" stroke="black" points="144,-271.5 259,-271.5 "/>
<text text-anchor="start" x="152" y="-256.3" font-family="Times,serif" font-size="14.00">add_refs</text>
<text text-anchor="start" x="152" y="-241.3" font-family="Times,serif" font-size="14.00">data_proc</text>
<text text-anchor="start" x="152" y="-226.3" font-family="Times,serif" font-size="14.00">destroy</text>
<text text-anchor="start" x="152" y="-211.3" font-family="Times,serif" font-size="14.00">edit</text>
<text text-anchor="start" x="152" y="-196.3" font-family="Times,serif" font-size="14.00">show</text>
<text text-anchor="start" x="152" y="-181.3" font-family="Times,serif" font-size="14.00">update</text>
<polyline fill="none" stroke="black" points="144,-173.5 259,-173.5 "/>
<polyline fill="none" stroke="black" points="144,-149.5 259,-149.5 "/>
<text text-anchor="start" x="152" y="-134.3" font-family="Times,serif" font-size="14.00">_layout</text>
<text text-anchor="start" x="152" y="-119.3" font-family="Times,serif" font-size="14.00">set_source</text>
<text text-anchor="start" x="152" y="-104.3" font-family="Times,serif" font-size="14.00">source_params</text>
</g>
<!-- Users::OmniauthCallbacksController -->
<g id="node6" class="node"><title>Users::OmniauthCallbacksController</title>
<path fill="none" stroke="black" d="M300,-128.5C300,-128.5 494,-128.5 494,-128.5 500,-128.5 506,-134.5 506,-140.5 506,-140.5 506,-224.5 506,-224.5 506,-230.5 500,-236.5 494,-236.5 494,-236.5 300,-236.5 300,-236.5 294,-236.5 288,-230.5 288,-224.5 288,-224.5 288,-140.5 288,-140.5 288,-134.5 294,-128.5 300,-128.5"/>
<text text-anchor="middle" x="397" y="-221.3" font-family="Times,serif" font-size="14.00">Users::OmniauthCallbacksController</text>
<polyline fill="none" stroke="black" points="288,-213.5 506,-213.5 "/>
<text text-anchor="start" x="296" y="-198.3" font-family="Times,serif" font-size="14.00">failure</text>
<text text-anchor="start" x="296" y="-183.3" font-family="Times,serif" font-size="14.00">google_oauth2</text>
<polyline fill="none" stroke="black" points="288,-175.5 506,-175.5 "/>
<polyline fill="none" stroke="black" points="288,-151.5 506,-151.5 "/>
<text text-anchor="start" x="296" y="-136.3" font-family="Times,serif" font-size="14.00">_layout</text>
</g>
</g>
</svg>
