<?xml version="1.0" encoding="UTF-8" standalone="no"?>
<!DOCTYPE svg PUBLIC "-//W3C//DTD SVG 1.1//EN"
 "http://www.w3.org/Graphics/SVG/1.1/DTD/svg11.dtd">
<!-- Generated by graphviz version 2.36.0 (20140111.2315)
 -->
<!-- Title: controllers_diagram Pages: 1 -->
<svg width="579pt" height="498pt"
 viewBox="0.00 0.00 579.00 498.00" xmlns="http://www.w3.org/2000/svg" xmlns:xlink="http://www.w3.org/1999/xlink">
<g id="graph0" class="graph" transform="scale(1 1) rotate(0) translate(4 494)">
<title>controllers_diagram</title>
<polygon fill="none" stroke="none" points="-4,4 -4,-494 575,-494 575,4 -4,4"/>
<!-- _diagram_info -->
<g id="node1" class="node"><title>_diagram_info</title>
<text text-anchor="start" x="365" y="-148.6" font-family="Times,serif" font-size="13.00">Controllers diagram</text>
<text text-anchor="start" x="365" y="-134.6" font-family="Times,serif" font-size="13.00">Date: Aug 18 2017 &#45; 21:45</text>
<text text-anchor="start" x="365" y="-120.6" font-family="Times,serif" font-size="13.00">Migration version: 20170815074726</text>
<text text-anchor="start" x="365" y="-106.6" font-family="Times,serif" font-size="13.00">Generated by RailRoady 1.5.3</text>
<text text-anchor="start" x="365" y="-92.6" font-family="Times,serif" font-size="13.00">http://railroady.prestonlee.com</text>
</g>
<!-- ApplicationController -->
<g id="node2" class="node"><title>ApplicationController</title>
<path fill="none" stroke="black" d="M165,-17.5C165,-17.5 277,-17.5 277,-17.5 283,-17.5 289,-23.5 289,-29.5 289,-29.5 289,-99.5 289,-99.5 289,-105.5 283,-111.5 277,-111.5 277,-111.5 165,-111.5 165,-111.5 159,-111.5 153,-105.5 153,-99.5 153,-99.5 153,-29.5 153,-29.5 153,-23.5 159,-17.5 165,-17.5"/>
<text text-anchor="middle" x="221" y="-96.3" font-family="Times,serif" font-size="14.00">ApplicationController</text>
<polyline fill="none" stroke="black" points="153,-88.5 289,-88.5 "/>
<polyline fill="none" stroke="black" points="153,-64.5 289,-64.5 "/>
<polyline fill="none" stroke="black" points="153,-40.5 289,-40.5 "/>
<text text-anchor="start" x="161" y="-25.3" font-family="Times,serif" font-size="14.00">_layout</text>
</g>
<!-- DatasetsController -->
<g id="node3" class="node"><title>DatasetsController</title>
<path fill="none" stroke="black" d="M148,-306.5C148,-306.5 242,-306.5 242,-306.5 248,-306.5 254,-312.5 254,-318.5 254,-318.5 254,-477.5 254,-477.5 254,-483.5 248,-489.5 242,-489.5 242,-489.5 148,-489.5 148,-489.5 142,-489.5 136,-483.5 136,-477.5 136,-477.5 136,-318.5 136,-318.5 136,-312.5 142,-306.5 148,-306.5"/>
<text text-anchor="middle" x="195" y="-474.3" font-family="Times,serif" font-size="14.00">DatasetsController</text>
<polyline fill="none" stroke="black" points="136,-466.5 254,-466.5 "/>
<text text-anchor="start" x="144" y="-451.3" font-family="Times,serif" font-size="14.00">data_proc</text>
<text text-anchor="start" x="144" y="-436.3" font-family="Times,serif" font-size="14.00">destroy</text>
<text text-anchor="start" x="144" y="-421.3" font-family="Times,serif" font-size="14.00">edit</text>
<text text-anchor="start" x="144" y="-406.3" font-family="Times,serif" font-size="14.00">show</text>
<text text-anchor="start" x="144" y="-391.3" font-family="Times,serif" font-size="14.00">update</text>
<polyline fill="none" stroke="black" points="136,-383.5 254,-383.5 "/>
<polyline fill="none" stroke="black" points="136,-359.5 254,-359.5 "/>
<text text-anchor="start" x="144" y="-344.3" font-family="Times,serif" font-size="14.00">_layout</text>
<text text-anchor="start" x="144" y="-329.3" font-family="Times,serif" font-size="14.00">dataset_params</text>
<text text-anchor="start" x="144" y="-314.3" font-family="Times,serif" font-size="14.00">set_dataset</text>
</g>
<!-- HomeController -->
<g id="node4" class="node"><title>HomeController</title>
<path fill="none" stroke="black" d="M12,-0.5C12,-0.5 103,-0.5 103,-0.5 109,-0.5 115,-6.5 115,-12.5 115,-12.5 115,-111.5 115,-111.5 115,-117.5 109,-123.5 103,-123.5 103,-123.5 12,-123.5 12,-123.5 6,-123.5 -2.84217e-14,-117.5 -2.84217e-14,-111.5 -2.84217e-14,-111.5 -2.84217e-14,-12.5 -2.84217e-14,-12.5 -2.84217e-14,-6.5 6,-0.5 12,-0.5"/>
<text text-anchor="middle" x="57.5" y="-108.3" font-family="Times,serif" font-size="14.00">HomeController</text>
<polyline fill="none" stroke="black" points="-2.84217e-14,-100.5 115,-100.5 "/>
<text text-anchor="start" x="8" y="-85.3" font-family="Times,serif" font-size="14.00">index</text>
<text text-anchor="start" x="8" y="-70.3" font-family="Times,serif" font-size="14.00">pull</text>
<text text-anchor="start" x="8" y="-55.3" font-family="Times,serif" font-size="14.00">update_synonyms</text>
<polyline fill="none" stroke="black" points="-2.84217e-14,-47.5 115,-47.5 "/>
<polyline fill="none" stroke="black" points="-2.84217e-14,-23.5 115,-23.5 "/>
<text text-anchor="start" x="8" y="-8.3" font-family="Times,serif" font-size="14.00">_layout</text>
</g>
<!-- SourcesController -->
<g id="node5" class="node"><title>SourcesController</title>
<path fill="none" stroke="black" d="M301,-289.5C301,-289.5 392,-289.5 392,-289.5 398,-289.5 404,-295.5 404,-301.5 404,-301.5 404,-475.5 404,-475.5 404,-481.5 398,-487.5 392,-487.5 392,-487.5 301,-487.5 301,-487.5 295,-487.5 289,-481.5 289,-475.5 289,-475.5 289,-301.5 289,-301.5 289,-295.5 295,-289.5 301,-289.5"/>
<text text-anchor="middle" x="346.5" y="-472.3" font-family="Times,serif" font-size="14.00">SourcesController</text>
<polyline fill="none" stroke="black" points="289,-464.5 404,-464.5 "/>
<text text-anchor="start" x="297" y="-449.3" font-family="Times,serif" font-size="14.00">add_refs</text>
<text text-anchor="start" x="297" y="-434.3" font-family="Times,serif" font-size="14.00">data_proc</text>
<text text-anchor="start" x="297" y="-419.3" font-family="Times,serif" font-size="14.00">destroy</text>
<text text-anchor="start" x="297" y="-404.3" font-family="Times,serif" font-size="14.00">edit</text>
<text text-anchor="start" x="297" y="-389.3" font-family="Times,serif" font-size="14.00">show</text>
<text text-anchor="start" x="297" y="-374.3" font-family="Times,serif" font-size="14.00">update</text>
<polyline fill="none" stroke="black" points="289,-366.5 404,-366.5 "/>
<polyline fill="none" stroke="black" points="289,-342.5 404,-342.5 "/>
<text text-anchor="start" x="297" y="-327.3" font-family="Times,serif" font-size="14.00">_layout</text>
<text text-anchor="start" x="297" y="-312.3" font-family="Times,serif" font-size="14.00">set_source</text>
<text text-anchor="start" x="297" y="-297.3" font-family="Times,serif" font-size="14.00">source_params</text>
</g>
<!-- Users::OmniauthCallbacksController -->
<g id="node6" class="node"><title>Users::OmniauthCallbacksController</title>
<path fill="none" stroke="black" d="M114,-153.5C114,-153.5 308,-153.5 308,-153.5 314,-153.5 320,-159.5 320,-165.5 320,-165.5 320,-249.5 320,-249.5 320,-255.5 314,-261.5 308,-261.5 308,-261.5 114,-261.5 114,-261.5 108,-261.5 102,-255.5 102,-249.5 102,-249.5 102,-165.5 102,-165.5 102,-159.5 108,-153.5 114,-153.5"/>
<text text-anchor="middle" x="211" y="-246.3" font-family="Times,serif" font-size="14.00">Users::OmniauthCallbacksController</text>
<polyline fill="none" stroke="black" points="102,-238.5 320,-238.5 "/>
<text text-anchor="start" x="110" y="-223.3" font-family="Times,serif" font-size="14.00">failure</text>
<text text-anchor="start" x="110" y="-208.3" font-family="Times,serif" font-size="14.00">google_oauth2</text>
<polyline fill="none" stroke="black" points="102,-200.5 320,-200.5 "/>
<polyline fill="none" stroke="black" points="102,-176.5 320,-176.5 "/>
<text text-anchor="start" x="110" y="-161.3" font-family="Times,serif" font-size="14.00">_layout</text>
</g>
</g>
</svg>
