<?xml version="1.0" encoding="UTF-8" standalone="no"?>
<!DOCTYPE svg PUBLIC "-//W3C//DTD SVG 1.1//EN"
 "http://www.w3.org/Graphics/SVG/1.1/DTD/svg11.dtd">
<!-- Generated by graphviz version 2.36.0 (20140111.2315)
 -->
<!-- Title: controllers_diagram Pages: 1 -->
<svg width="532pt" height="479pt"
 viewBox="0.00 0.00 532.00 479.00" xmlns="http://www.w3.org/2000/svg" xmlns:xlink="http://www.w3.org/1999/xlink">
<g id="graph0" class="graph" transform="scale(1 1) rotate(0) translate(4 475)">
<title>controllers_diagram</title>
<polygon fill="none" stroke="none" points="-4,4 -4,-475 528,-475 528,4 -4,4"/>
<!-- _diagram_info -->
<g id="node1" class="node"><title>_diagram_info</title>
<text text-anchor="start" x="59" y="-454.6" font-family="Times,serif" font-size="13.00">Controllers diagram</text>
<text text-anchor="start" x="59" y="-440.6" font-family="Times,serif" font-size="13.00">Date: Aug 30 2017 &#45; 22:29</text>
<text text-anchor="start" x="59" y="-426.6" font-family="Times,serif" font-size="13.00">Migration version: 20170829120809</text>
<text text-anchor="start" x="59" y="-412.6" font-family="Times,serif" font-size="13.00">Generated by RailRoady 1.5.3</text>
<text text-anchor="start" x="59" y="-398.6" font-family="Times,serif" font-size="13.00">http://railroady.prestonlee.com</text>
</g>
<!-- ApplicationController -->
<g id="node2" class="node"><title>ApplicationController</title>
<path fill="none" stroke="black" d="M318,-0.5C318,-0.5 430,-0.5 430,-0.5 436,-0.5 442,-6.5 442,-12.5 442,-12.5 442,-82.5 442,-82.5 442,-88.5 436,-94.5 430,-94.5 430,-94.5 318,-94.5 318,-94.5 312,-94.5 306,-88.5 306,-82.5 306,-82.5 306,-12.5 306,-12.5 306,-6.5 312,-0.5 318,-0.5"/>
<text text-anchor="middle" x="374" y="-79.3" font-family="Times,serif" font-size="14.00">ApplicationController</text>
<polyline fill="none" stroke="black" points="306,-71.5 442,-71.5 "/>
<polyline fill="none" stroke="black" points="306,-47.5 442,-47.5 "/>
<polyline fill="none" stroke="black" points="306,-23.5 442,-23.5 "/>
<text text-anchor="start" x="314" y="-8.3" font-family="Times,serif" font-size="14.00">_layout</text>
</g>
<!-- DatasetsController -->
<g id="node3" class="node"><title>DatasetsController</title>
<path fill="none" stroke="black" d="M318,-272.5C318,-272.5 412,-272.5 412,-272.5 418,-272.5 424,-278.5 424,-284.5 424,-284.5 424,-458.5 424,-458.5 424,-464.5 418,-470.5 412,-470.5 412,-470.5 318,-470.5 318,-470.5 312,-470.5 306,-464.5 306,-458.5 306,-458.5 306,-284.5 306,-284.5 306,-278.5 312,-272.5 318,-272.5"/>
<text text-anchor="middle" x="365" y="-455.3" font-family="Times,serif" font-size="14.00">DatasetsController</text>
<polyline fill="none" stroke="black" points="306,-447.5 424,-447.5 "/>
<text text-anchor="start" x="314" y="-432.3" font-family="Times,serif" font-size="14.00">data_proc</text>
<text text-anchor="start" x="314" y="-417.3" font-family="Times,serif" font-size="14.00">destroy</text>
<text text-anchor="start" x="314" y="-402.3" font-family="Times,serif" font-size="14.00">edit</text>
<text text-anchor="start" x="314" y="-387.3" font-family="Times,serif" font-size="14.00">get_data</text>
<text text-anchor="start" x="314" y="-372.3" font-family="Times,serif" font-size="14.00">show</text>
<text text-anchor="start" x="314" y="-357.3" font-family="Times,serif" font-size="14.00">update</text>
<polyline fill="none" stroke="black" points="306,-349.5 424,-349.5 "/>
<polyline fill="none" stroke="black" points="306,-325.5 424,-325.5 "/>
<text text-anchor="start" x="314" y="-310.3" font-family="Times,serif" font-size="14.00">_layout</text>
<text text-anchor="start" x="314" y="-295.3" font-family="Times,serif" font-size="14.00">dataset_params</text>
<text text-anchor="start" x="314" y="-280.3" font-family="Times,serif" font-size="14.00">set_dataset</text>
</g>
<!-- HomeController -->
<g id="node4" class="node"><title>HomeController</title>
<path fill="none" stroke="black" d="M12,-221.5C12,-221.5 103,-221.5 103,-221.5 109,-221.5 115,-227.5 115,-233.5 115,-233.5 115,-332.5 115,-332.5 115,-338.5 109,-344.5 103,-344.5 103,-344.5 12,-344.5 12,-344.5 6,-344.5 -2.84217e-14,-338.5 -2.84217e-14,-332.5 -2.84217e-14,-332.5 -2.84217e-14,-233.5 -2.84217e-14,-233.5 -2.84217e-14,-227.5 6,-221.5 12,-221.5"/>
<text text-anchor="middle" x="57.5" y="-329.3" font-family="Times,serif" font-size="14.00">HomeController</text>
<polyline fill="none" stroke="black" points="-2.84217e-14,-321.5 115,-321.5 "/>
<text text-anchor="start" x="8" y="-306.3" font-family="Times,serif" font-size="14.00">index</text>
<text text-anchor="start" x="8" y="-291.3" font-family="Times,serif" font-size="14.00">pull</text>
<text text-anchor="start" x="8" y="-276.3" font-family="Times,serif" font-size="14.00">update_synonyms</text>
<polyline fill="none" stroke="black" points="-2.84217e-14,-268.5 115,-268.5 "/>
<polyline fill="none" stroke="black" points="-2.84217e-14,-244.5 115,-244.5 "/>
<text text-anchor="start" x="8" y="-229.3" font-family="Times,serif" font-size="14.00">_layout</text>
</g>
<!-- SourcesController -->
<g id="node5" class="node"><title>SourcesController</title>
<path fill="none" stroke="black" d="M165,-102.5C165,-102.5 256,-102.5 256,-102.5 262,-102.5 268,-108.5 268,-114.5 268,-114.5 268,-303.5 268,-303.5 268,-309.5 262,-315.5 256,-315.5 256,-315.5 165,-315.5 165,-315.5 159,-315.5 153,-309.5 153,-303.5 153,-303.5 153,-114.5 153,-114.5 153,-108.5 159,-102.5 165,-102.5"/>
<text text-anchor="middle" x="210.5" y="-300.3" font-family="Times,serif" font-size="14.00">SourcesController</text>
<polyline fill="none" stroke="black" points="153,-292.5 268,-292.5 "/>
<text text-anchor="start" x="161" y="-277.3" font-family="Times,serif" font-size="14.00">add_refs</text>
<text text-anchor="start" x="161" y="-262.3" font-family="Times,serif" font-size="14.00">data_proc</text>
<text text-anchor="start" x="161" y="-247.3" font-family="Times,serif" font-size="14.00">destroy</text>
<text text-anchor="start" x="161" y="-232.3" font-family="Times,serif" font-size="14.00">edit</text>
<text text-anchor="start" x="161" y="-217.3" font-family="Times,serif" font-size="14.00">get_data</text>
<text text-anchor="start" x="161" y="-202.3" font-family="Times,serif" font-size="14.00">show</text>
<text text-anchor="start" x="161" y="-187.3" font-family="Times,serif" font-size="14.00">update</text>
<polyline fill="none" stroke="black" points="153,-179.5 268,-179.5 "/>
<polyline fill="none" stroke="black" points="153,-155.5 268,-155.5 "/>
<text text-anchor="start" x="161" y="-140.3" font-family="Times,serif" font-size="14.00">_layout</text>
<text text-anchor="start" x="161" y="-125.3" font-family="Times,serif" font-size="14.00">set_source</text>
<text text-anchor="start" x="161" y="-110.3" font-family="Times,serif" font-size="14.00">source_params</text>
</g>
<!-- Users::OmniauthCallbacksController -->
<g id="node6" class="node"><title>Users::OmniauthCallbacksController</title>
<path fill="none" stroke="black" d="M318,-136.5C318,-136.5 512,-136.5 512,-136.5 518,-136.5 524,-142.5 524,-148.5 524,-148.5 524,-232.5 524,-232.5 524,-238.5 518,-244.5 512,-244.5 512,-244.5 318,-244.5 318,-244.5 312,-244.5 306,-238.5 306,-232.5 306,-232.5 306,-148.5 306,-148.5 306,-142.5 312,-136.5 318,-136.5"/>
<text text-anchor="middle" x="415" y="-229.3" font-family="Times,serif" font-size="14.00">Users::OmniauthCallbacksController</text>
<polyline fill="none" stroke="black" points="306,-221.5 524,-221.5 "/>
<text text-anchor="start" x="314" y="-206.3" font-family="Times,serif" font-size="14.00">failure</text>
<text text-anchor="start" x="314" y="-191.3" font-family="Times,serif" font-size="14.00">google_oauth2</text>
<polyline fill="none" stroke="black" points="306,-183.5 524,-183.5 "/>
<polyline fill="none" stroke="black" points="306,-159.5 524,-159.5 "/>
<text text-anchor="start" x="314" y="-144.3" font-family="Times,serif" font-size="14.00">_layout</text>
</g>
</g>
</svg>
