<?xml version="1.0" encoding="UTF-8" standalone="no"?>
<!DOCTYPE svg PUBLIC "-//W3C//DTD SVG 1.1//EN"
 "http://www.w3.org/Graphics/SVG/1.1/DTD/svg11.dtd">
<!-- Generated by graphviz version 2.36.0 (20140111.2315)
 -->
<!-- Title: controllers_diagram Pages: 1 -->
<svg width="486pt" height="409pt"
 viewBox="0.00 0.00 486.00 409.00" xmlns="http://www.w3.org/2000/svg" xmlns:xlink="http://www.w3.org/1999/xlink">
<g id="graph0" class="graph" transform="scale(1 1) rotate(0) translate(4 405)">
<title>controllers_diagram</title>
<polygon fill="none" stroke="none" points="-4,4 -4,-405 482,-405 482,4 -4,4"/>
<!-- _diagram_info -->
<g id="node1" class="node"><title>_diagram_info</title>
<text text-anchor="start" x="229" y="-301.6" font-family="Times,serif" font-size="13.00">Controllers diagram</text>
<text text-anchor="start" x="229" y="-287.6" font-family="Times,serif" font-size="13.00">Date: Jun 22 2017 &#45; 00:12</text>
<text text-anchor="start" x="229" y="-273.6" font-family="Times,serif" font-size="13.00">Migration version: 20170621150442</text>
<text text-anchor="start" x="229" y="-259.6" font-family="Times,serif" font-size="13.00">Generated by RailRoady 1.5.3</text>
<text text-anchor="start" x="229" y="-245.6" font-family="Times,serif" font-size="13.00">http://railroady.prestonlee.com</text>
</g>
<!-- ApplicationController -->
<g id="node2" class="node"><title>ApplicationController</title>
<path fill="none" stroke="black" d="M29,-306.5C29,-306.5 177,-306.5 177,-306.5 183,-306.5 189,-312.5 189,-318.5 189,-318.5 189,-388.5 189,-388.5 189,-394.5 183,-400.5 177,-400.5 177,-400.5 29,-400.5 29,-400.5 23,-400.5 17,-394.5 17,-388.5 17,-388.5 17,-318.5 17,-318.5 17,-312.5 23,-306.5 29,-306.5"/>
<text text-anchor="middle" x="103" y="-385.3" font-family="Times,serif" font-size="14.00">ApplicationController</text>
<polyline fill="none" stroke="black" points="17,-377.5 189,-377.5 "/>
<polyline fill="none" stroke="black" points="17,-353.5 189,-353.5 "/>
<polyline fill="none" stroke="black" points="17,-329.5 189,-329.5 "/>
<text text-anchor="start" x="25" y="-314.3" font-family="Times,serif" font-size="14.00">_layout</text>
</g>
<!-- HomeController -->
<g id="node3" class="node"><title>HomeController</title>
<path fill="none" stroke="black" d="M335,-0.5C335,-0.5 444,-0.5 444,-0.5 450,-0.5 456,-6.5 456,-12.5 456,-12.5 456,-96.5 456,-96.5 456,-102.5 450,-108.5 444,-108.5 444,-108.5 335,-108.5 335,-108.5 329,-108.5 323,-102.5 323,-96.5 323,-96.5 323,-12.5 323,-12.5 323,-6.5 329,-0.5 335,-0.5"/>
<text text-anchor="middle" x="389.5" y="-93.3" font-family="Times,serif" font-size="14.00">HomeController</text>
<polyline fill="none" stroke="black" points="323,-85.5 456,-85.5 "/>
<text text-anchor="start" x="331" y="-70.3" font-family="Times,serif" font-size="14.00">index</text>
<text text-anchor="start" x="331" y="-55.3" font-family="Times,serif" font-size="14.00">load</text>
<polyline fill="none" stroke="black" points="323,-47.5 456,-47.5 "/>
<polyline fill="none" stroke="black" points="323,-23.5 456,-23.5 "/>
<text text-anchor="start" x="331" y="-8.3" font-family="Times,serif" font-size="14.00">_layout</text>
</g>
<!-- Users::OmniauthCallbacksController -->
<g id="node4" class="node"><title>Users::OmniauthCallbacksController</title>
<path fill="none" stroke="black" d="M12,-102.5C12,-102.5 269,-102.5 269,-102.5 275,-102.5 281,-108.5 281,-114.5 281,-114.5 281,-198.5 281,-198.5 281,-204.5 275,-210.5 269,-210.5 269,-210.5 12,-210.5 12,-210.5 6,-210.5 0,-204.5 0,-198.5 0,-198.5 0,-114.5 0,-114.5 0,-108.5 6,-102.5 12,-102.5"/>
<text text-anchor="middle" x="140.5" y="-195.3" font-family="Times,serif" font-size="14.00">Users::OmniauthCallbacksController</text>
<polyline fill="none" stroke="black" points="0,-187.5 281,-187.5 "/>
<text text-anchor="start" x="8" y="-172.3" font-family="Times,serif" font-size="14.00">failure</text>
<text text-anchor="start" x="8" y="-157.3" font-family="Times,serif" font-size="14.00">google_oauth2</text>
<polyline fill="none" stroke="black" points="0,-149.5 281,-149.5 "/>
<polyline fill="none" stroke="black" points="0,-125.5 281,-125.5 "/>
<text text-anchor="start" x="8" y="-110.3" font-family="Times,serif" font-size="14.00">_layout</text>
</g>
</g>
</svg>
