<?xml version="1.0" encoding="UTF-8" standalone="no"?>
<!DOCTYPE svg PUBLIC "-//W3C//DTD SVG 1.1//EN"
 "http://www.w3.org/Graphics/SVG/1.1/DTD/svg11.dtd">
<!-- Generated by graphviz version 2.36.0 (20140111.2315)
 -->
<!-- Title: models_diagram Pages: 1 -->
<svg width="567pt" height="374pt"
 viewBox="0.00 0.00 566.79 374.00" xmlns="http://www.w3.org/2000/svg" xmlns:xlink="http://www.w3.org/1999/xlink">
<g id="graph0" class="graph" transform="scale(1 1) rotate(0) translate(4 370)">
<title>models_diagram</title>
<polygon fill="none" stroke="none" points="-4,4 -4,-370 562.786,-370 562.786,4 -4,4"/>
<!-- _diagram_info -->
<g id="node1" class="node"><title>_diagram_info</title>
<text text-anchor="start" x="8" y="-351.6" font-family="Times,serif" font-size="13.00">Models diagram</text>
<text text-anchor="start" x="8" y="-337.6" font-family="Times,serif" font-size="13.00">Date: Aug 30 2017 &#45; 22:28</text>
<text text-anchor="start" x="8" y="-323.6" font-family="Times,serif" font-size="13.00">Migration version: 20170829120809</text>
<text text-anchor="start" x="8" y="-309.6" font-family="Times,serif" font-size="13.00">Generated by RailRoady 1.5.3</text>
<text text-anchor="start" x="8" y="-295.6" font-family="Times,serif" font-size="13.00">http://railroady.prestonlee.com</text>
</g>
<!-- ApplicationRecord -->
<g id="node2" class="node"><title>ApplicationRecord</title>
<ellipse fill="none" stroke="black" cx="309" cy="-327" rx="77.0154" ry="18"/>
<text text-anchor="middle" x="309" y="-323.3" font-family="Times,serif" font-size="14.00">ApplicationRecord</text>
</g>
<!-- Author -->
<g id="node3" class="node"><title>Author</title>
<ellipse fill="none" stroke="black" cx="254" cy="-234" rx="35.6194" ry="18"/>
<text text-anchor="middle" x="254" y="-230.3" font-family="Times,serif" font-size="14.00">Author</text>
</g>
<!-- Source -->
<g id="node6" class="node"><title>Source</title>
<ellipse fill="none" stroke="black" cx="331" cy="-162" rx="35.1455" ry="18"/>
<text text-anchor="middle" x="331" y="-158.3" font-family="Times,serif" font-size="14.00">Source</text>
</g>
<!-- Author&#45;&gt;Source -->
<g id="edge1" class="edge"><title>Author&#45;&gt;Source</title>
<path fill="none" stroke="#908198" d="M278.139,-211.055C287.313,-202.715 297.757,-193.221 306.925,-184.886"/>
<polygon fill="#908198" stroke="#908198" points="278.107,-211.084 267.681,-214.481 274.408,-214.448 270.708,-217.811 270.708,-217.811 270.708,-217.811 274.408,-214.448 273.735,-221.141 278.107,-211.084 278.107,-211.084"/>
<polygon fill="#908198" stroke="#908198" points="307.19,-184.646 317.616,-181.249 310.89,-181.282 314.589,-177.919 314.589,-177.919 314.589,-177.919 310.89,-181.282 311.562,-174.589 307.19,-184.646 307.19,-184.646"/>
</g>
<!-- Dataset -->
<g id="node4" class="node"><title>Dataset</title>
<ellipse fill="none" stroke="black" cx="432" cy="-234" rx="37.0701" ry="18"/>
<text text-anchor="middle" x="432" y="-230.3" font-family="Times,serif" font-size="14.00">Dataset</text>
</g>
<!-- Factor -->
<g id="node5" class="node"><title>Factor</title>
<ellipse fill="none" stroke="black" cx="507" cy="-90" rx="33.2209" ry="18"/>
<text text-anchor="middle" x="507" y="-86.3" font-family="Times,serif" font-size="14.00">Factor</text>
</g>
<!-- Dataset&#45;&gt;Factor -->
<g id="edge3" class="edge"><title>Dataset&#45;&gt;Factor</title>
<path fill="none" stroke="#81c6cb" d="M445.564,-207.318C459.147,-181.602 479.927,-142.257 493.491,-116.578"/>
<polygon fill="#81c6cb" stroke="#81c6cb" points="445.421,-207.59 436.771,-214.331 443.085,-212.012 440.75,-216.433 440.75,-216.433 440.75,-216.433 443.085,-212.012 444.729,-218.535 445.421,-207.59 445.421,-207.59"/>
<polygon fill="#81c6cb" stroke="#81c6cb" points="493.635,-116.304 502.285,-109.563 495.97,-111.883 498.305,-107.462 498.305,-107.462 498.305,-107.462 495.97,-111.883 494.326,-105.36 493.635,-116.304 493.635,-116.304"/>
</g>
<!-- Dataset&#45;&gt;Source -->
<g id="edge2" class="edge"><title>Dataset&#45;&gt;Source</title>
<path fill="none" stroke="#df551b" d="M404.616,-214.021C390.617,-204.319 373.596,-192.522 359.449,-182.717"/>
<ellipse fill="none" stroke="#df551b" cx="408.274" cy="-216.556" rx="4.00002" ry="4.00002"/>
<polygon fill="#df551b" stroke="#df551b" points="359.283,-182.602 353.627,-173.207 355.173,-179.754 351.064,-176.906 351.064,-176.906 351.064,-176.906 355.173,-179.754 348.5,-180.604 359.283,-182.602 359.283,-182.602"/>
</g>
<!-- Stem -->
<g id="node7" class="node"><title>Stem</title>
<ellipse fill="none" stroke="black" cx="319" cy="-90" rx="29.3722" ry="18"/>
<text text-anchor="middle" x="319" y="-86.3" font-family="Times,serif" font-size="14.00">Stem</text>
</g>
<!-- Dataset&#45;&gt;Stem -->
<g id="edge5" class="edge"><title>Dataset&#45;&gt;Stem</title>
<path fill="none" stroke="#7cb3c5" d="M418.041,-207.717C407.333,-189.264 391.612,-164.075 375,-144 365.479,-132.494 353.622,-120.951 343.272,-111.589"/>
<polygon fill="#7cb3c5" stroke="#7cb3c5" points="418.06,-207.751 419.111,-218.667 420.539,-212.093 423.019,-216.435 423.019,-216.435 423.019,-216.435 420.539,-212.093 426.926,-214.204 418.06,-207.751 418.06,-207.751"/>
<polygon fill="#7cb3c5" stroke="#7cb3c5" points="343.198,-111.524 338.7,-101.523 339.457,-108.207 335.715,-104.891 335.715,-104.891 335.715,-104.891 339.457,-108.207 332.73,-108.258 343.198,-111.524 343.198,-111.524"/>
</g>
<!-- Synonym -->
<g id="node8" class="node"><title>Synonym</title>
<ellipse fill="none" stroke="black" cx="411" cy="-90" rx="44.271" ry="18"/>
<text text-anchor="middle" x="411" y="-86.3" font-family="Times,serif" font-size="14.00">Synonym</text>
</g>
<!-- Dataset&#45;&gt;Synonym -->
<g id="edge6" class="edge"><title>Dataset&#45;&gt;Synonym</title>
<path fill="none" stroke="#7000c7" d="M427.96,-205.679C424.234,-180.487 418.734,-143.295 415.016,-118.156"/>
<polygon fill="#7000c7" stroke="#7000c7" points="428.004,-205.979 425.015,-216.53 428.735,-210.925 429.467,-215.871 429.467,-215.871 429.467,-215.871 428.735,-210.925 433.918,-215.213 428.004,-205.979 428.004,-205.979"/>
<polygon fill="#7000c7" stroke="#7000c7" points="415.005,-118.082 417.994,-107.531 414.274,-113.135 413.542,-108.189 413.542,-108.189 413.542,-108.189 414.274,-113.135 409.09,-108.848 415.005,-118.082 415.005,-118.082"/>
</g>
<!-- Word -->
<g id="node11" class="node"><title>Word</title>
<ellipse fill="none" stroke="black" cx="411" cy="-18" rx="31.2965" ry="18"/>
<text text-anchor="middle" x="411" y="-14.3" font-family="Times,serif" font-size="14.00">Word</text>
</g>
<!-- Dataset&#45;&gt;Word -->
<g id="edge4" class="edge"><title>Dataset&#45;&gt;Word</title>
<path fill="none" stroke="#745045" d="M463.64,-214.042C509.404,-184.176 584.865,-124.194 549,-72 527.36,-40.5074 484.213,-27.7193 451.895,-22.5312"/>
<polygon fill="#745045" stroke="#745045" points="463.355,-214.224 452.505,-215.809 459.14,-216.913 454.925,-219.602 454.925,-219.602 454.925,-219.602 459.14,-216.913 457.345,-223.396 463.355,-214.224 463.355,-214.224"/>
<polygon fill="#745045" stroke="#745045" points="451.725,-22.5071 442.458,-16.6446 446.774,-21.8034 441.824,-21.0998 441.824,-21.0998 441.824,-21.0998 446.774,-21.8034 441.191,-25.555 451.725,-22.5071 451.725,-22.5071"/>
</g>
<!-- Factor&#45;&gt;Word -->
<g id="edge7" class="edge"><title>Factor&#45;&gt;Word</title>
<path fill="none" stroke="#93c3e8" d="M479.587,-69.011C466.454,-59.4351 450.785,-48.0095 437.74,-38.4981"/>
<polygon fill="#93c3e8" stroke="#93c3e8" points="479.953,-69.2785 485.382,-78.8063 483.993,-72.2244 488.033,-75.1703 488.033,-75.1703 488.033,-75.1703 483.993,-72.2244 490.685,-71.5342 479.953,-69.2785 479.953,-69.2785"/>
<polygon fill="#93c3e8" stroke="#93c3e8" points="437.681,-38.4546 432.252,-28.9268 433.641,-35.5087 429.6,-32.5628 429.6,-32.5628 429.6,-32.5628 433.641,-35.5087 426.949,-36.1989 437.681,-38.4546 437.681,-38.4546"/>
</g>
<!-- Source&#45;&gt;Factor -->
<g id="edge8" class="edge"><title>Source&#45;&gt;Factor</title>
<path fill="none" stroke="#3b4092" d="M365.926,-147.109C396.519,-134.941 440.772,-117.341 471.527,-105.109"/>
<ellipse fill="none" stroke="#3b4092" cx="361.831" cy="-148.738" rx="4.00001" ry="4.00001"/>
<polygon fill="#3b4092" stroke="#3b4092" points="471.711,-105.035 482.666,-105.521 476.357,-103.188 481.003,-101.34 481.003,-101.34 481.003,-101.34 476.357,-103.188 479.34,-97.1582 471.711,-105.035 471.711,-105.035"/>
</g>
<!-- Source&#45;&gt;Stem -->
<g id="edge10" class="edge"><title>Source&#45;&gt;Stem</title>
<path fill="none" stroke="#c524fc" d="M326.372,-134.005C325.493,-128.873 324.571,-123.499 323.689,-118.355"/>
<polygon fill="#c524fc" stroke="#c524fc" points="326.405,-134.199 323.66,-144.815 327.25,-139.127 328.095,-144.055 328.095,-144.055 328.095,-144.055 327.25,-139.127 332.53,-143.295 326.405,-134.199 326.405,-134.199"/>
<polygon fill="#c524fc" stroke="#c524fc" points="323.651,-118.132 326.397,-107.515 322.806,-113.203 321.961,-108.275 321.961,-108.275 321.961,-108.275 322.806,-113.203 317.526,-109.036 323.651,-118.132 323.651,-118.132"/>
</g>
<!-- Source&#45;&gt;Synonym -->
<g id="edge11" class="edge"><title>Source&#45;&gt;Synonym</title>
<path fill="none" stroke="#62837c" d="M355.577,-139.495C365.079,-131.181 375.953,-121.666 385.537,-113.28"/>
<polygon fill="#62837c" stroke="#62837c" points="355.492,-139.57 345.003,-142.768 351.729,-142.862 347.966,-146.155 347.966,-146.155 347.966,-146.155 351.729,-142.862 350.929,-149.541 355.492,-139.57 355.492,-139.57"/>
<polygon fill="#62837c" stroke="#62837c" points="385.701,-113.137 396.19,-109.938 389.464,-109.844 393.227,-106.552 393.227,-106.552 393.227,-106.552 389.464,-109.844 390.263,-103.165 385.701,-113.137 385.701,-113.137"/>
</g>
<!-- Source&#45;&gt;Word -->
<g id="edge9" class="edge"><title>Source&#45;&gt;Word</title>
<path fill="none" stroke="#aa5a01" d="M305.116,-139.56C286.138,-121.169 266.074,-94.204 281,-72 300.852,-42.4685 340.342,-29.3828 370.614,-23.5897"/>
<polygon fill="#aa5a01" stroke="#aa5a01" points="305.181,-139.619 309.481,-149.707 308.856,-143.009 312.532,-146.399 312.532,-146.399 312.532,-146.399 308.856,-143.009 315.583,-143.091 305.181,-139.619 305.181,-139.619"/>
<polygon fill="#aa5a01" stroke="#aa5a01" points="370.63,-23.587 381.248,-26.3263 375.558,-22.7392 380.485,-21.8914 380.485,-21.8914 380.485,-21.8914 375.558,-22.7392 379.722,-17.4566 370.63,-23.587 370.63,-23.587"/>
</g>
<!-- Stem&#45;&gt;Word -->
<g id="edge12" class="edge"><title>Stem&#45;&gt;Word</title>
<path fill="none" stroke="#d16d96" d="M343.136,-70.6355C355.952,-60.8841 371.719,-48.8877 384.829,-38.913"/>
<ellipse fill="none" stroke="#d16d96" cx="339.922" cy="-73.0812" rx="4.00002" ry="4.00002"/>
<polygon fill="#d16d96" stroke="#d16d96" points="385.044,-38.7494 395.727,-36.2754 389.023,-35.7217 393.002,-32.6941 393.002,-32.6941 393.002,-32.6941 389.023,-35.7217 390.277,-29.1129 385.044,-38.7494 385.044,-38.7494"/>
</g>
<!-- Synonym&#45;&gt;Word -->
<g id="edge13" class="edge"><title>Synonym&#45;&gt;Word</title>
<path fill="none" stroke="#a1af6e" d="M411,-61.6651C411,-56.6867 411,-51.4906 411,-46.5072"/>
<polygon fill="#a1af6e" stroke="#a1af6e" points="411,-61.6966 406.5,-71.6966 411,-66.6966 411,-71.6966 411,-71.6966 411,-71.6966 411,-66.6966 415.5,-71.6967 411,-61.6966 411,-61.6966"/>
<polygon fill="#a1af6e" stroke="#a1af6e" points="411,-46.1043 415.5,-36.1043 411,-41.1043 411,-36.1043 411,-36.1043 411,-36.1043 411,-41.1043 406.5,-36.1044 411,-46.1043 411,-46.1043"/>
</g>
<!-- Topic -->
<g id="node9" class="node"><title>Topic</title>
<ellipse fill="none" stroke="black" cx="339" cy="-234" rx="31.2965" ry="18"/>
<text text-anchor="middle" x="339" y="-230.3" font-family="Times,serif" font-size="14.00">Topic</text>
</g>
<!-- Topic&#45;&gt;Source -->
<g id="edge14" class="edge"><title>Topic&#45;&gt;Source</title>
<path fill="none" stroke="#13902f" d="M336.102,-207.64C335.448,-201.92 334.752,-195.828 334.09,-190.042"/>
<ellipse fill="none" stroke="#13902f" cx="336.568" cy="-211.722" rx="4.00001" ry="4.00001"/>
<polygon fill="#13902f" stroke="#13902f" points="334.09,-190.04 337.426,-179.593 333.523,-185.072 332.955,-180.104 332.955,-180.104 332.955,-180.104 333.523,-185.072 328.484,-180.615 334.09,-190.04 334.09,-190.04"/>
</g>
<!-- User -->
<g id="node10" class="node"><title>User</title>
<ellipse fill="none" stroke="black" cx="432" cy="-327" rx="26.949" ry="18"/>
<text text-anchor="middle" x="432" y="-323.3" font-family="Times,serif" font-size="14.00">User</text>
</g>
<!-- User&#45;&gt;Dataset -->
<g id="edge15" class="edge"><title>User&#45;&gt;Dataset</title>
<path fill="none" stroke="#25c7c1" d="M432,-300.729C432,-288.725 432,-274.362 432,-262.129"/>
<ellipse fill="none" stroke="#25c7c1" cx="432" cy="-304.884" rx="4" ry="4"/>
<polygon fill="#25c7c1" stroke="#25c7c1" points="432,-262.04 436.5,-252.04 432,-257.04 432,-252.04 432,-252.04 432,-252.04 432,-257.04 427.5,-252.04 432,-262.04 432,-262.04"/>
</g>
</g>
</svg>
