<?xml version="1.0" encoding="UTF-8" standalone="no"?>
<!DOCTYPE svg PUBLIC "-//W3C//DTD SVG 1.1//EN"
 "http://www.w3.org/Graphics/SVG/1.1/DTD/svg11.dtd">
<!-- Generated by graphviz version 2.38.0 (20140413.2041)
 -->
<!-- Title: models_diagram Pages: 1 -->
<svg width="496pt" height="446pt"
 viewBox="0.00 0.00 496.20 446.00" xmlns="http://www.w3.org/2000/svg" xmlns:xlink="http://www.w3.org/1999/xlink">
<g id="graph0" class="graph" transform="scale(1 1) rotate(0) translate(4 442)">
<title>models_diagram</title>
<polygon fill="none" stroke="none" points="-4,4 -4,-442 492.197,-442 492.197,4 -4,4"/>
<!-- _diagram_info -->
<g id="node1" class="node"><title>_diagram_info</title>
<text text-anchor="start" x="8" y="-423.6" font-family="Times,serif" font-size="13.00">Models diagram</text>
<text text-anchor="start" x="8" y="-409.6" font-family="Times,serif" font-size="13.00">Date: May 10 2018 &#45; 17:08</text>
<text text-anchor="start" x="8" y="-395.6" font-family="Times,serif" font-size="13.00">Migration version: 20180505084756</text>
<text text-anchor="start" x="8" y="-381.6" font-family="Times,serif" font-size="13.00">Generated by RailRoady 1.5.3</text>
<text text-anchor="start" x="8" y="-367.6" font-family="Times,serif" font-size="13.00">http://railroady.prestonlee.com</text>
</g>
<!-- Source -->
<g id="node2" class="node"><title>Source</title>
<ellipse fill="none" stroke="black" cx="334" cy="-234" rx="35.194" ry="18"/>
<text text-anchor="middle" x="334" y="-230.3" font-family="Times,serif" font-size="14.00">Source</text>
</g>
<!-- Word -->
<g id="node3" class="node"><title>Word</title>
<ellipse fill="none" stroke="black" cx="277" cy="-90" rx="31.3957" ry="18"/>
<text text-anchor="middle" x="277" y="-86.3" font-family="Times,serif" font-size="14.00">Word</text>
</g>
<!-- Source&#45;&gt;Word -->
<g id="edge3" class="edge"><title>Source&#45;&gt;Word</title>
<path fill="none" stroke="#f619d8" d="M331.142,-205.802C328.538,-187.702 323.716,-163.719 315,-144 310.421,-133.641 303.619,-123.285 297.03,-114.512"/>
<polygon fill="#f619d8" stroke="#f619d8" points="331.173,-206.044 327.998,-216.54 331.817,-211.002 332.461,-215.961 332.461,-215.961 332.461,-215.961 331.817,-211.002 336.923,-215.381 331.173,-206.044 331.173,-206.044"/>
<polygon fill="#f619d8" stroke="#f619d8" points="297.026,-114.507 294.399,-103.861 293.942,-110.572 290.857,-106.637 290.857,-106.637 290.857,-106.637 293.942,-110.572 287.315,-109.413 297.026,-114.507 297.026,-114.507"/>
</g>
<!-- Author -->
<g id="node4" class="node"><title>Author</title>
<ellipse fill="none" stroke="black" cx="436" cy="-162" rx="35.9954" ry="18"/>
<text text-anchor="middle" x="436" y="-158.3" font-family="Times,serif" font-size="14.00">Author</text>
</g>
<!-- Source&#45;&gt;Author -->
<g id="edge1" class="edge"><title>Source&#45;&gt;Author</title>
<path fill="none" stroke="#1acde5" d="M362.54,-213.414C376.496,-203.836 393.256,-192.334 407.242,-182.736"/>
<polygon fill="#1acde5" stroke="#1acde5" points="362.397,-213.512 351.606,-215.46 358.274,-216.341 354.152,-219.17 354.152,-219.17 354.152,-219.17 358.274,-216.341 356.698,-222.881 362.397,-213.512 362.397,-213.512"/>
<polygon fill="#1acde5" stroke="#1acde5" points="407.296,-182.699 418.087,-180.751 411.418,-179.87 415.541,-177.041 415.541,-177.041 415.541,-177.041 411.418,-179.87 412.995,-173.33 407.296,-182.699 407.296,-182.699"/>
</g>
<!-- Synonym -->
<g id="node5" class="node"><title>Synonym</title>
<ellipse fill="none" stroke="black" cx="372" cy="-18" rx="44.6926" ry="18"/>
<text text-anchor="middle" x="372" y="-14.3" font-family="Times,serif" font-size="14.00">Synonym</text>
</g>
<!-- Source&#45;&gt;Synonym -->
<g id="edge5" class="edge"><title>Source&#45;&gt;Synonym</title>
<path fill="none" stroke="#140647" d="M338.795,-205.996C346.088,-164.927 359.888,-87.2106 367.19,-46.0906"/>
<polygon fill="#140647" stroke="#140647" points="338.794,-206.003 332.615,-215.062 337.92,-210.926 337.045,-215.849 337.045,-215.849 337.045,-215.849 337.92,-210.926 341.476,-216.636 338.794,-206.003 338.794,-206.003"/>
<polygon fill="#140647" stroke="#140647" points="367.192,-46.0784 373.371,-37.0192 368.066,-41.1554 368.94,-36.2325 368.94,-36.2325 368.94,-36.2325 368.066,-41.1554 364.509,-35.4457 367.192,-46.0784 367.192,-46.0784"/>
</g>
<!-- Factor -->
<g id="node8" class="node"><title>Factor</title>
<ellipse fill="none" stroke="black" cx="182" cy="-18" rx="33.2948" ry="18"/>
<text text-anchor="middle" x="182" y="-14.3" font-family="Times,serif" font-size="14.00">Factor</text>
</g>
<!-- Source&#45;&gt;Factor -->
<g id="edge2" class="edge"><title>Source&#45;&gt;Factor</title>
<path fill="none" stroke="#5e9b67" d="M298.05,-220.291C278.228,-211.658 254.556,-198.427 239,-180 205.863,-140.745 191.471,-80.8843 185.63,-46.2866"/>
<ellipse fill="none" stroke="#5e9b67" cx="301.742" cy="-221.834" rx="4.00002" ry="4.00002"/>
<polygon fill="#5e9b67" stroke="#5e9b67" points="185.566,-45.8793 188.467,-35.304 184.793,-40.9394 184.021,-35.9994 184.021,-35.9994 184.021,-35.9994 184.793,-40.9394 179.575,-36.6949 185.566,-45.8793 185.566,-45.8793"/>
</g>
<!-- Stem -->
<g id="node10" class="node"><title>Stem</title>
<ellipse fill="none" stroke="black" cx="277" cy="-162" rx="29.4969" ry="18"/>
<text text-anchor="middle" x="277" y="-158.3" font-family="Times,serif" font-size="14.00">Stem</text>
</g>
<!-- Source&#45;&gt;Stem -->
<g id="edge4" class="edge"><title>Source&#45;&gt;Stem</title>
<path fill="none" stroke="#a08754" d="M314.702,-209.301C308.716,-201.95 302.124,-193.855 296.149,-186.517"/>
<polygon fill="#a08754" stroke="#a08754" points="314.752,-209.362 317.576,-219.957 317.909,-213.239 321.066,-217.116 321.066,-217.116 321.066,-217.116 317.909,-213.239 324.555,-214.274 314.752,-209.362 314.752,-209.362"/>
<polygon fill="#a08754" stroke="#a08754" points="295.806,-186.095 292.981,-175.499 292.648,-182.217 289.491,-178.34 289.491,-178.34 289.491,-178.34 292.648,-182.217 286.002,-181.182 295.806,-186.095 295.806,-186.095"/>
</g>
<!-- Word&#45;&gt;Synonym -->
<g id="edge7" class="edge"><title>Word&#45;&gt;Synonym</title>
<path fill="none" stroke="#d05e53" d="M304.151,-68.9943C316.33,-60.0197 330.711,-49.4232 343.092,-40.301"/>
<polygon fill="#d05e53" stroke="#d05e53" points="303.82,-69.2382 293.1,-71.5475 299.794,-72.2042 295.769,-75.1703 295.769,-75.1703 295.769,-75.1703 299.794,-72.2042 298.438,-78.793 303.82,-69.2382 303.82,-69.2382"/>
<polygon fill="#d05e53" stroke="#d05e53" points="343.241,-40.1911 353.961,-37.8819 347.266,-37.2251 351.291,-34.2591 351.291,-34.2591 351.291,-34.2591 347.266,-37.2251 348.622,-30.6363 343.241,-40.1911 343.241,-40.1911"/>
</g>
<!-- Word&#45;&gt;Factor -->
<g id="edge6" class="edge"><title>Word&#45;&gt;Factor</title>
<path fill="none" stroke="#807590" d="M249.986,-69.0947C237.294,-59.7429 222.189,-48.6126 209.443,-39.2213"/>
<polygon fill="#807590" stroke="#807590" points="250.18,-69.2382 255.562,-78.793 254.206,-72.2042 258.231,-75.1703 258.231,-75.1703 258.231,-75.1703 254.206,-72.2042 260.9,-71.5475 250.18,-69.2382 250.18,-69.2382"/>
<polygon fill="#807590" stroke="#807590" points="209.106,-38.9726 203.725,-29.4179 205.08,-36.0066 201.055,-33.0406 201.055,-33.0406 201.055,-33.0406 205.08,-36.0066 198.386,-36.6634 209.106,-38.9726 209.106,-38.9726"/>
</g>
<!-- Dataset -->
<g id="node6" class="node"><title>Dataset</title>
<ellipse fill="none" stroke="black" cx="259" cy="-306" rx="37.0935" ry="18"/>
<text text-anchor="middle" x="259" y="-302.3" font-family="Times,serif" font-size="14.00">Dataset</text>
</g>
<!-- Dataset&#45;&gt;Source -->
<g id="edge8" class="edge"><title>Dataset&#45;&gt;Source</title>
<path fill="none" stroke="#41da22" d="M281.159,-284.318C290.327,-275.761 300.974,-265.824 310.298,-257.122"/>
<ellipse fill="none" stroke="#41da22" cx="278.198" cy="-287.082" rx="4.00002" ry="4.00002"/>
<polygon fill="#41da22" stroke="#41da22" points="310.447,-256.983 320.828,-253.449 314.103,-253.571 317.758,-250.159 317.758,-250.159 317.758,-250.159 314.103,-253.571 314.687,-246.87 310.447,-256.983 310.447,-256.983"/>
</g>
<!-- Dataset&#45;&gt;Word -->
<g id="edge10" class="edge"><title>Dataset&#45;&gt;Word</title>
<path fill="none" stroke="#710128" d="M248.888,-278.443C238.062,-245.983 224.3,-189.731 239,-144 242.466,-133.218 249.025,-122.77 255.731,-114.041"/>
<polygon fill="#710128" stroke="#710128" points="248.964,-278.662 248.011,-289.586 250.612,-283.382 252.26,-288.103 252.26,-288.103 252.26,-288.103 250.612,-283.382 256.508,-286.62 248.964,-278.662 248.964,-278.662"/>
<polygon fill="#710128" stroke="#710128" points="255.778,-113.984 265.593,-109.093 258.944,-110.114 262.109,-106.244 262.109,-106.244 262.109,-106.244 258.944,-110.114 258.626,-103.394 255.778,-113.984 255.778,-113.984"/>
</g>
<!-- Dataset&#45;&gt;Synonym -->
<g id="edge12" class="edge"><title>Dataset&#45;&gt;Synonym</title>
<path fill="none" stroke="#ca0ecb" d="M296.129,-289.973C354.25,-265.554 462.065,-216.339 481,-180 508.887,-126.482 444.661,-69.1914 403.379,-39.4996"/>
<polygon fill="#ca0ecb" stroke="#ca0ecb" points="295.799,-290.11 284.837,-289.8 291.183,-292.032 286.567,-293.954 286.567,-293.954 286.567,-293.954 291.183,-292.032 288.297,-298.108 295.799,-290.11 295.799,-290.11"/>
<polygon fill="#ca0ecb" stroke="#ca0ecb" points="403.147,-39.3365 397.544,-29.9099 399.053,-36.4652 394.96,-33.5939 394.96,-33.5939 394.96,-33.5939 399.053,-36.4652 392.376,-37.278 403.147,-39.3365 403.147,-39.3365"/>
</g>
<!-- Dataset&#45;&gt;Factor -->
<g id="edge9" class="edge"><title>Dataset&#45;&gt;Factor</title>
<path fill="none" stroke="#18a674" d="M243.676,-279.502C238.907,-270.945 233.887,-261.228 230,-252 204.026,-190.325 197.37,-173.948 186,-108 182.475,-87.5518 181.546,-64.0935 181.46,-46.3956"/>
<polygon fill="#18a674" stroke="#18a674" points="243.718,-279.575 244.781,-290.489 246.202,-283.914 248.686,-288.254 248.686,-288.254 248.686,-288.254 246.202,-283.914 252.591,-286.018 243.718,-279.575 243.718,-279.575"/>
<polygon fill="#18a674" stroke="#18a674" points="181.461,-46.1989 186,-36.2167 181.48,-41.199 181.5,-36.199 181.5,-36.199 181.5,-36.199 181.48,-41.199 177,-36.1813 181.461,-46.1989 181.461,-46.1989"/>
</g>
<!-- Dataset&#45;&gt;Stem -->
<g id="edge11" class="edge"><title>Dataset&#45;&gt;Stem</title>
<path fill="none" stroke="#8c9ac8" d="M262.463,-277.679C265.657,-252.487 270.371,-215.295 273.558,-190.156"/>
<polygon fill="#8c9ac8" stroke="#8c9ac8" points="262.429,-277.951 256.707,-287.306 261.8,-282.911 261.171,-287.871 261.171,-287.871 261.171,-287.871 261.8,-282.911 265.635,-288.437 262.429,-277.951 262.429,-277.951"/>
<polygon fill="#8c9ac8" stroke="#8c9ac8" points="273.563,-190.11 279.285,-180.755 274.192,-185.15 274.821,-180.189 274.821,-180.189 274.821,-180.189 274.192,-185.15 270.357,-179.623 273.563,-190.11 273.563,-190.11"/>
</g>
<!-- User -->
<g id="node7" class="node"><title>User</title>
<ellipse fill="none" stroke="black" cx="259" cy="-399" rx="27.0966" ry="18"/>
<text text-anchor="middle" x="259" y="-395.3" font-family="Times,serif" font-size="14.00">User</text>
</g>
<!-- User&#45;&gt;Dataset -->
<g id="edge13" class="edge"><title>User&#45;&gt;Dataset</title>
<path fill="none" stroke="#764116" d="M259,-372.729C259,-360.725 259,-346.362 259,-334.129"/>
<ellipse fill="none" stroke="#764116" cx="259" cy="-376.884" rx="4" ry="4"/>
<polygon fill="#764116" stroke="#764116" points="259,-334.04 263.5,-324.04 259,-329.04 259,-324.04 259,-324.04 259,-324.04 259,-329.04 254.5,-324.04 259,-334.04 259,-334.04"/>
</g>
<!-- ApplicationRecord -->
<g id="node9" class="node"><title>ApplicationRecord</title>
<ellipse fill="none" stroke="black" cx="382" cy="-399" rx="77.1866" ry="18"/>
<text text-anchor="middle" x="382" y="-395.3" font-family="Times,serif" font-size="14.00">ApplicationRecord</text>
</g>
<!-- Stem&#45;&gt;Word -->
<g id="edge14" class="edge"><title>Stem&#45;&gt;Word</title>
<path fill="none" stroke="#fed5af" d="M277,-135.64C277,-130.063 277,-124.132 277,-118.476"/>
<ellipse fill="none" stroke="#fed5af" cx="277" cy="-139.697" rx="4" ry="4"/>
<polygon fill="#fed5af" stroke="#fed5af" points="277,-118.104 281.5,-108.104 277,-113.104 277,-108.104 277,-108.104 277,-108.104 277,-113.104 272.5,-108.104 277,-118.104 277,-118.104"/>
</g>
<!-- Topic -->
<g id="node11" class="node"><title>Topic</title>
<ellipse fill="none" stroke="black" cx="345" cy="-306" rx="31.3957" ry="18"/>
<text text-anchor="middle" x="345" y="-302.3" font-family="Times,serif" font-size="14.00">Topic</text>
</g>
<!-- Topic&#45;&gt;Source -->
<g id="edge15" class="edge"><title>Topic&#45;&gt;Source</title>
<path fill="none" stroke="#c3dd5f" d="M341.069,-279.987C340.168,-274.249 339.205,-268.121 338.289,-262.293"/>
<ellipse fill="none" stroke="#c3dd5f" cx="341.716" cy="-284.103" rx="4.00001" ry="4.00001"/>
<polygon fill="#c3dd5f" stroke="#c3dd5f" points="338.267,-262.154 341.16,-251.577 337.491,-257.215 336.715,-252.275 336.715,-252.275 336.715,-252.275 337.491,-257.215 332.269,-252.974 338.267,-262.154 338.267,-262.154"/>
</g>
</g>
</svg>
