<?xml version="1.0" encoding="UTF-8" standalone="no"?>
<!DOCTYPE svg PUBLIC "-//W3C//DTD SVG 1.1//EN"
 "http://www.w3.org/Graphics/SVG/1.1/DTD/svg11.dtd">
<!-- Generated by graphviz version 2.36.0 (20140111.2315)
 -->
<!-- Title: models_diagram Pages: 1 -->
<svg width="1463pt" height="236pt"
 viewBox="0.00 0.00 1463.00 236.00" xmlns="http://www.w3.org/2000/svg" xmlns:xlink="http://www.w3.org/1999/xlink">
<g id="graph0" class="graph" transform="scale(1 1) rotate(0) translate(4 232)">
<title>models_diagram</title>
<polygon fill="none" stroke="none" points="-4,4 -4,-232 1459,-232 1459,4 -4,4"/>
<!-- _diagram_info -->
<g id="node1" class="node"><title>_diagram_info</title>
<text text-anchor="start" x="7.5" y="-138.6" font-family="Times,serif" font-size="13.00">Models diagram</text>
<text text-anchor="start" x="7.5" y="-124.6" font-family="Times,serif" font-size="13.00">Date: Jun 21 2017 &#45; 23:58</text>
<text text-anchor="start" x="7.5" y="-110.6" font-family="Times,serif" font-size="13.00">Migration version: 20170621070705</text>
<text text-anchor="start" x="7.5" y="-96.6" font-family="Times,serif" font-size="13.00">Generated by RailRoady 1.5.3</text>
<text text-anchor="start" x="7.5" y="-82.6" font-family="Times,serif" font-size="13.00">http://railroady.prestonlee.com</text>
</g>
<!-- ApplicationRecord -->
<g id="node2" class="node"><title>ApplicationRecord</title>
<ellipse fill="none" stroke="black" cx="371" cy="-114" rx="96.2631" ry="18"/>
<text text-anchor="middle" x="371" y="-110.3" font-family="Times,serif" font-size="14.00">ApplicationRecord</text>
</g>
<!-- Author -->
<g id="node3" class="node"><title>Author</title>
<path fill="none" stroke="black" d="M497.5,-61C497.5,-61 682.5,-61 682.5,-61 688.5,-61 694.5,-67 694.5,-73 694.5,-73 694.5,-155 694.5,-155 694.5,-161 688.5,-167 682.5,-167 682.5,-167 497.5,-167 497.5,-167 491.5,-167 485.5,-161 485.5,-155 485.5,-155 485.5,-73 485.5,-73 485.5,-67 491.5,-61 497.5,-61"/>
<text text-anchor="middle" x="590" y="-151.8" font-family="Times,serif" font-size="14.00">Author</text>
<polyline fill="none" stroke="black" points="485.5,-144 694.5,-144 "/>
<text text-anchor="start" x="493.5" y="-128.8" font-family="Times,serif" font-size="14.00">id :bigint(20)</text>
<text text-anchor="start" x="493.5" y="-113.8" font-family="Times,serif" font-size="14.00">given_name :varchar(255)</text>
<text text-anchor="start" x="493.5" y="-98.8" font-family="Times,serif" font-size="14.00">family_name :varchar(255)</text>
<text text-anchor="start" x="493.5" y="-83.8" font-family="Times,serif" font-size="14.00">created_at :datetime</text>
<text text-anchor="start" x="493.5" y="-68.8" font-family="Times,serif" font-size="14.00">updated_at :datetime</text>
</g>
<!-- Source -->
<g id="node4" class="node"><title>Source</title>
<path fill="none" stroke="black" d="M724.5,-23.5C724.5,-23.5 927.5,-23.5 927.5,-23.5 933.5,-23.5 939.5,-29.5 939.5,-35.5 939.5,-35.5 939.5,-192.5 939.5,-192.5 939.5,-198.5 933.5,-204.5 927.5,-204.5 927.5,-204.5 724.5,-204.5 724.5,-204.5 718.5,-204.5 712.5,-198.5 712.5,-192.5 712.5,-192.5 712.5,-35.5 712.5,-35.5 712.5,-29.5 718.5,-23.5 724.5,-23.5"/>
<text text-anchor="middle" x="826" y="-189.3" font-family="Times,serif" font-size="14.00">Source</text>
<polyline fill="none" stroke="black" points="712.5,-181.5 939.5,-181.5 "/>
<text text-anchor="start" x="720.5" y="-166.3" font-family="Times,serif" font-size="14.00">id :bigint(20)</text>
<text text-anchor="start" x="720.5" y="-151.3" font-family="Times,serif" font-size="14.00">citation :varchar(255)</text>
<text text-anchor="start" x="720.5" y="-136.3" font-family="Times,serif" font-size="14.00">authors :varchar(255)</text>
<text text-anchor="start" x="720.5" y="-121.3" font-family="Times,serif" font-size="14.00">year :int(11)</text>
<text text-anchor="start" x="720.5" y="-106.3" font-family="Times,serif" font-size="14.00">purpose :varchar(255)</text>
<text text-anchor="start" x="720.5" y="-91.3" font-family="Times,serif" font-size="14.00">topic_id :bigint(20)</text>
<text text-anchor="start" x="720.5" y="-76.3" font-family="Times,serif" font-size="14.00">discard_reason :varchar(255)</text>
<text text-anchor="start" x="720.5" y="-61.3" font-family="Times,serif" font-size="14.00">created_at :datetime</text>
<text text-anchor="start" x="720.5" y="-46.3" font-family="Times,serif" font-size="14.00">updated_at :datetime</text>
<text text-anchor="start" x="720.5" y="-31.3" font-family="Times,serif" font-size="14.00">title :varchar(255)</text>
</g>
<!-- Topic -->
<g id="node5" class="node"><title>Topic</title>
<path fill="none" stroke="black" d="M970,-61C970,-61 1146,-61 1146,-61 1152,-61 1158,-67 1158,-73 1158,-73 1158,-155 1158,-155 1158,-161 1152,-167 1146,-167 1146,-167 970,-167 970,-167 964,-167 958,-161 958,-155 958,-155 958,-73 958,-73 958,-67 964,-61 970,-61"/>
<text text-anchor="middle" x="1058" y="-151.8" font-family="Times,serif" font-size="14.00">Topic</text>
<polyline fill="none" stroke="black" points="958,-144 1158,-144 "/>
<text text-anchor="start" x="966" y="-128.8" font-family="Times,serif" font-size="14.00">id :bigint(20)</text>
<text text-anchor="start" x="966" y="-113.8" font-family="Times,serif" font-size="14.00">name :varchar(255)</text>
<text text-anchor="start" x="966" y="-98.8" font-family="Times,serif" font-size="14.00">description :varchar(255)</text>
<text text-anchor="start" x="966" y="-83.8" font-family="Times,serif" font-size="14.00">created_at :datetime</text>
<text text-anchor="start" x="966" y="-68.8" font-family="Times,serif" font-size="14.00">updated_at :datetime</text>
</g>
<!-- User -->
<g id="node6" class="node"><title>User</title>
<path fill="none" stroke="black" d="M1188.5,-1C1188.5,-1 1443.5,-1 1443.5,-1 1449.5,-1 1455.5,-7 1455.5,-13 1455.5,-13 1455.5,-215 1455.5,-215 1455.5,-221 1449.5,-227 1443.5,-227 1443.5,-227 1188.5,-227 1188.5,-227 1182.5,-227 1176.5,-221 1176.5,-215 1176.5,-215 1176.5,-13 1176.5,-13 1176.5,-7 1182.5,-1 1188.5,-1"/>
<text text-anchor="middle" x="1316" y="-211.8" font-family="Times,serif" font-size="14.00">User</text>
<polyline fill="none" stroke="black" points="1176.5,-204 1455.5,-204 "/>
<text text-anchor="start" x="1184.5" y="-188.8" font-family="Times,serif" font-size="14.00">id :bigint(20)</text>
<text text-anchor="start" x="1184.5" y="-173.8" font-family="Times,serif" font-size="14.00">email :varchar(255)</text>
<text text-anchor="start" x="1184.5" y="-158.8" font-family="Times,serif" font-size="14.00">encrypted_password :varchar(255)</text>
<text text-anchor="start" x="1184.5" y="-143.8" font-family="Times,serif" font-size="14.00">reset_password_token :varchar(255)</text>
<text text-anchor="start" x="1184.5" y="-128.8" font-family="Times,serif" font-size="14.00">reset_password_sent_at :datetime</text>
<text text-anchor="start" x="1184.5" y="-113.8" font-family="Times,serif" font-size="14.00">remember_created_at :datetime</text>
<text text-anchor="start" x="1184.5" y="-98.8" font-family="Times,serif" font-size="14.00">sign_in_count :int(11)</text>
<text text-anchor="start" x="1184.5" y="-83.8" font-family="Times,serif" font-size="14.00">current_sign_in_at :datetime</text>
<text text-anchor="start" x="1184.5" y="-68.8" font-family="Times,serif" font-size="14.00">last_sign_in_at :datetime</text>
<text text-anchor="start" x="1184.5" y="-53.8" font-family="Times,serif" font-size="14.00">current_sign_in_ip :varchar(255)</text>
<text text-anchor="start" x="1184.5" y="-38.8" font-family="Times,serif" font-size="14.00">last_sign_in_ip :varchar(255)</text>
<text text-anchor="start" x="1184.5" y="-23.8" font-family="Times,serif" font-size="14.00">created_at :datetime</text>
<text text-anchor="start" x="1184.5" y="-8.8" font-family="Times,serif" font-size="14.00">updated_at :datetime</text>
</g>
</g>
</svg>
