<?xml version="1.0" encoding="UTF-8" standalone="no"?>
<!DOCTYPE svg PUBLIC "-//W3C//DTD SVG 1.1//EN"
 "http://www.w3.org/Graphics/SVG/1.1/DTD/svg11.dtd">
<!-- Generated by graphviz version 2.36.0 (20140111.2315)
 -->
<!-- Title: models_diagram Pages: 1 -->
<svg width="557pt" height="302pt"
 viewBox="0.00 0.00 557.00 302.00" xmlns="http://www.w3.org/2000/svg" xmlns:xlink="http://www.w3.org/1999/xlink">
<g id="graph0" class="graph" transform="scale(1 1) rotate(0) translate(4 298)">
<title>models_diagram</title>
<polygon fill="none" stroke="none" points="-4,4 -4,-298 553,-298 553,4 -4,4"/>
<!-- _diagram_info -->
<g id="node1" class="node"><title>_diagram_info</title>
<text text-anchor="start" x="8" y="-279.6" font-family="Times,serif" font-size="13.00">Models diagram</text>
<text text-anchor="start" x="8" y="-265.6" font-family="Times,serif" font-size="13.00">Date: Jun 26 2017 &#45; 08:56</text>
<text text-anchor="start" x="8" y="-251.6" font-family="Times,serif" font-size="13.00">Migration version: 20170625055802</text>
<text text-anchor="start" x="8" y="-237.6" font-family="Times,serif" font-size="13.00">Generated by RailRoady 1.5.3</text>
<text text-anchor="start" x="8" y="-223.6" font-family="Times,serif" font-size="13.00">http://railroady.prestonlee.com</text>
</g>
<!-- ApplicationRecord -->
<g id="node2" class="node"><title>ApplicationRecord</title>
<ellipse fill="none" stroke="black" cx="309" cy="-255" rx="77.0154" ry="18"/>
<text text-anchor="middle" x="309" y="-251.3" font-family="Times,serif" font-size="14.00">ApplicationRecord</text>
</g>
<!-- Author -->
<g id="node3" class="node"><title>Author</title>
<ellipse fill="none" stroke="black" cx="341" cy="-162" rx="35.6194" ry="18"/>
<text text-anchor="middle" x="341" y="-158.3" font-family="Times,serif" font-size="14.00">Author</text>
</g>
<!-- Source -->
<g id="node5" class="node"><title>Source</title>
<ellipse fill="none" stroke="black" cx="432" cy="-90" rx="35.1455" ry="18"/>
<text text-anchor="middle" x="432" y="-86.3" font-family="Times,serif" font-size="14.00">Source</text>
</g>
<!-- Author&#45;&gt;Source -->
<g id="edge1" class="edge"><title>Author&#45;&gt;Source</title>
<path fill="none" stroke="#83faa4" d="M368.007,-140.225C379.706,-131.226 393.37,-120.715 405.061,-111.722"/>
<polygon fill="#83faa4" stroke="#83faa4" points="367.782,-140.399 357.112,-142.929 363.818,-143.447 359.855,-146.496 359.855,-146.496 359.855,-146.496 363.818,-143.447 362.599,-150.063 367.782,-140.399 367.782,-140.399"/>
<polygon fill="#83faa4" stroke="#83faa4" points="405.243,-111.583 415.913,-109.052 409.206,-108.534 413.169,-105.485 413.169,-105.485 413.169,-105.485 409.206,-108.534 410.425,-101.919 405.243,-111.583 405.243,-111.583"/>
</g>
<!-- Dataset -->
<g id="node4" class="node"><title>Dataset</title>
<ellipse fill="none" stroke="black" cx="432" cy="-162" rx="37.0701" ry="18"/>
<text text-anchor="middle" x="432" y="-158.3" font-family="Times,serif" font-size="14.00">Dataset</text>
</g>
<!-- Dataset&#45;&gt;Source -->
<g id="edge2" class="edge"><title>Dataset&#45;&gt;Source</title>
<path fill="none" stroke="#e69487" d="M432,-135.64C432,-130.063 432,-124.132 432,-118.476"/>
<ellipse fill="none" stroke="#e69487" cx="432" cy="-139.697" rx="4" ry="4"/>
<polygon fill="#e69487" stroke="#e69487" points="432,-118.104 436.5,-108.104 432,-113.104 432,-108.104 432,-108.104 432,-108.104 432,-113.104 427.5,-108.104 432,-118.104 432,-118.104"/>
</g>
<!-- Factor -->
<g id="node8" class="node"><title>Factor</title>
<ellipse fill="none" stroke="black" cx="432" cy="-18" rx="33.2209" ry="18"/>
<text text-anchor="middle" x="432" y="-14.3" font-family="Times,serif" font-size="14.00">Factor</text>
</g>
<!-- Source&#45;&gt;Factor -->
<g id="edge3" class="edge"><title>Source&#45;&gt;Factor</title>
<path fill="none" stroke="#7d8722" d="M432,-63.6398C432,-58.0629 432,-52.1319 432,-46.4761"/>
<ellipse fill="none" stroke="#7d8722" cx="432" cy="-67.6966" rx="4" ry="4"/>
<polygon fill="#7d8722" stroke="#7d8722" points="432,-46.1043 436.5,-36.1043 432,-41.1043 432,-36.1043 432,-36.1043 432,-36.1043 432,-41.1043 427.5,-36.1044 432,-46.1043 432,-46.1043"/>
</g>
<!-- Topic -->
<g id="node6" class="node"><title>Topic</title>
<ellipse fill="none" stroke="black" cx="518" cy="-162" rx="31.2965" ry="18"/>
<text text-anchor="middle" x="518" y="-158.3" font-family="Times,serif" font-size="14.00">Topic</text>
</g>
<!-- Topic&#45;&gt;Source -->
<g id="edge4" class="edge"><title>Topic&#45;&gt;Source</title>
<path fill="none" stroke="#8d1563" d="M494.046,-141.502C482.809,-132.356 469.398,-121.44 457.923,-112.101"/>
<ellipse fill="none" stroke="#8d1563" cx="497.494" cy="-144.309" rx="4.00002" ry="4.00002"/>
<polygon fill="#8d1563" stroke="#8d1563" points="457.725,-111.939 452.81,-102.136 453.847,-108.783 449.97,-105.626 449.97,-105.626 449.97,-105.626 453.847,-108.783 447.129,-109.116 457.725,-111.939 457.725,-111.939"/>
</g>
<!-- User -->
<g id="node7" class="node"><title>User</title>
<ellipse fill="none" stroke="black" cx="432" cy="-255" rx="26.949" ry="18"/>
<text text-anchor="middle" x="432" y="-251.3" font-family="Times,serif" font-size="14.00">User</text>
</g>
<!-- User&#45;&gt;Dataset -->
<g id="edge5" class="edge"><title>User&#45;&gt;Dataset</title>
<path fill="none" stroke="#f146ba" d="M432,-228.729C432,-216.725 432,-202.362 432,-190.129"/>
<ellipse fill="none" stroke="#f146ba" cx="432" cy="-232.884" rx="4" ry="4"/>
<polygon fill="#f146ba" stroke="#f146ba" points="432,-190.04 436.5,-180.04 432,-185.04 432,-180.04 432,-180.04 432,-180.04 432,-185.04 427.5,-180.04 432,-190.04 432,-190.04"/>
</g>
</g>
</svg>
