<?xml version="1.0" encoding="UTF-8" standalone="no"?>
<!DOCTYPE svg PUBLIC "-//W3C//DTD SVG 1.1//EN"
 "http://www.w3.org/Graphics/SVG/1.1/DTD/svg11.dtd">
<!-- Generated by graphviz version 2.36.0 (20140111.2315)
 -->
<!-- Title: models_diagram Pages: 1 -->
<svg width="711pt" height="1018pt"
 viewBox="0.00 0.00 711.39 1018.00" xmlns="http://www.w3.org/2000/svg" xmlns:xlink="http://www.w3.org/1999/xlink">
<g id="graph0" class="graph" transform="scale(1 1) rotate(0) translate(4 1014)">
<title>models_diagram</title>
<polygon fill="none" stroke="none" points="-4,4 -4,-1014 707.393,-1014 707.393,4 -4,4"/>
<!-- _diagram_info -->
<g id="node1" class="node"><title>_diagram_info</title>
<text text-anchor="start" x="8" y="-898.6" font-family="Times,serif" font-size="13.00">Models diagram</text>
<text text-anchor="start" x="8" y="-884.6" font-family="Times,serif" font-size="13.00">Date: Aug 18 2017 &#45; 21:44</text>
<text text-anchor="start" x="8" y="-870.6" font-family="Times,serif" font-size="13.00">Migration version: 20170815074726</text>
<text text-anchor="start" x="8" y="-856.6" font-family="Times,serif" font-size="13.00">Generated by RailRoady 1.5.3</text>
<text text-anchor="start" x="8" y="-842.6" font-family="Times,serif" font-size="13.00">http://railroady.prestonlee.com</text>
</g>
<!-- ApplicationRecord -->
<g id="node2" class="node"><title>ApplicationRecord</title>
<ellipse fill="none" stroke="black" cx="309" cy="-874" rx="77.0154" ry="18"/>
<text text-anchor="middle" x="309" y="-870.3" font-family="Times,serif" font-size="14.00">ApplicationRecord</text>
</g>
<!-- Author -->
<g id="node3" class="node"><title>Author</title>
<path fill="none" stroke="black" d="M99.5,-588C99.5,-588 242.5,-588 242.5,-588 248.5,-588 254.5,-594 254.5,-600 254.5,-600 254.5,-682 254.5,-682 254.5,-688 248.5,-694 242.5,-694 242.5,-694 99.5,-694 99.5,-694 93.5,-694 87.5,-688 87.5,-682 87.5,-682 87.5,-600 87.5,-600 87.5,-594 93.5,-588 99.5,-588"/>
<text text-anchor="middle" x="171" y="-678.8" font-family="Times,serif" font-size="14.00">Author</text>
<polyline fill="none" stroke="black" points="87.5,-671 254.5,-671 "/>
<text text-anchor="start" x="95.5" y="-655.8" font-family="Times,serif" font-size="14.00">id :bigint(20)</text>
<text text-anchor="start" x="95.5" y="-640.8" font-family="Times,serif" font-size="14.00">given_name :varchar(255)</text>
<text text-anchor="start" x="95.5" y="-625.8" font-family="Times,serif" font-size="14.00">family_name :varchar(255)</text>
<text text-anchor="start" x="95.5" y="-610.8" font-family="Times,serif" font-size="14.00">created_at :datetime</text>
<text text-anchor="start" x="95.5" y="-595.8" font-family="Times,serif" font-size="14.00">updated_at :datetime</text>
</g>
<!-- Source -->
<g id="node6" class="node"><title>Source</title>
<path fill="none" stroke="black" d="M274.5,-317C274.5,-317 425.5,-317 425.5,-317 431.5,-317 437.5,-323 437.5,-329 437.5,-329 437.5,-531 437.5,-531 437.5,-537 431.5,-543 425.5,-543 425.5,-543 274.5,-543 274.5,-543 268.5,-543 262.5,-537 262.5,-531 262.5,-531 262.5,-329 262.5,-329 262.5,-323 268.5,-317 274.5,-317"/>
<text text-anchor="middle" x="350" y="-527.8" font-family="Times,serif" font-size="14.00">Source</text>
<polyline fill="none" stroke="black" points="262.5,-520 437.5,-520 "/>
<text text-anchor="start" x="270.5" y="-504.8" font-family="Times,serif" font-size="14.00">id :bigint(20)</text>
<text text-anchor="start" x="270.5" y="-489.8" font-family="Times,serif" font-size="14.00">citation :text</text>
<text text-anchor="start" x="270.5" y="-474.8" font-family="Times,serif" font-size="14.00">author_list :varchar(255)</text>
<text text-anchor="start" x="270.5" y="-459.8" font-family="Times,serif" font-size="14.00">year :int(11)</text>
<text text-anchor="start" x="270.5" y="-444.8" font-family="Times,serif" font-size="14.00">purpose :varchar(255)</text>
<text text-anchor="start" x="270.5" y="-429.8" font-family="Times,serif" font-size="14.00">topic_id :bigint(20)</text>
<text text-anchor="start" x="270.5" y="-414.8" font-family="Times,serif" font-size="14.00">discard_reason :varchar(255)</text>
<text text-anchor="start" x="270.5" y="-399.8" font-family="Times,serif" font-size="14.00">created_at :datetime</text>
<text text-anchor="start" x="270.5" y="-384.8" font-family="Times,serif" font-size="14.00">updated_at :datetime</text>
<text text-anchor="start" x="270.5" y="-369.8" font-family="Times,serif" font-size="14.00">title :text</text>
<text text-anchor="start" x="270.5" y="-354.8" font-family="Times,serif" font-size="14.00">dataset_id :bigint(20)</text>
<text text-anchor="start" x="270.5" y="-339.8" font-family="Times,serif" font-size="14.00">processed :tinyint(1)</text>
<text text-anchor="start" x="270.5" y="-324.8" font-family="Times,serif" font-size="14.00">refs_processed :tinyint(1)</text>
</g>
<!-- Author&#45;&gt;Source -->
<g id="edge1" class="edge"><title>Author&#45;&gt;Source</title>
<path fill="none" stroke="#246b84" d="M222.498,-579.871C232.914,-567.71 244.173,-554.564 255.539,-541.292"/>
<polygon fill="#246b84" stroke="#246b84" points="222.212,-580.204 212.29,-584.872 218.96,-584.002 215.708,-587.8 215.708,-587.8 215.708,-587.8 218.96,-584.002 219.125,-590.727 222.212,-580.204 222.212,-580.204"/>
<polygon fill="#246b84" stroke="#246b84" points="255.733,-541.066 265.656,-536.398 258.986,-537.268 262.238,-533.471 262.238,-533.471 262.238,-533.471 258.986,-537.268 258.82,-530.543 255.733,-541.066 255.733,-541.066"/>
</g>
<!-- Dataset -->
<g id="node4" class="node"><title>Dataset</title>
<path fill="none" stroke="black" d="M457.5,-580.5C457.5,-580.5 564.5,-580.5 564.5,-580.5 570.5,-580.5 576.5,-586.5 576.5,-592.5 576.5,-592.5 576.5,-689.5 576.5,-689.5 576.5,-695.5 570.5,-701.5 564.5,-701.5 564.5,-701.5 457.5,-701.5 457.5,-701.5 451.5,-701.5 445.5,-695.5 445.5,-689.5 445.5,-689.5 445.5,-592.5 445.5,-592.5 445.5,-586.5 451.5,-580.5 457.5,-580.5"/>
<text text-anchor="middle" x="511" y="-686.3" font-family="Times,serif" font-size="14.00">Dataset</text>
<polyline fill="none" stroke="black" points="445.5,-678.5 576.5,-678.5 "/>
<text text-anchor="start" x="453.5" y="-663.3" font-family="Times,serif" font-size="14.00">id :bigint(20)</text>
<text text-anchor="start" x="453.5" y="-648.3" font-family="Times,serif" font-size="14.00">name :varchar(255)</text>
<text text-anchor="start" x="453.5" y="-633.3" font-family="Times,serif" font-size="14.00">user_id :bigint(20)</text>
<text text-anchor="start" x="453.5" y="-618.3" font-family="Times,serif" font-size="14.00">created_at :datetime</text>
<text text-anchor="start" x="453.5" y="-603.3" font-family="Times,serif" font-size="14.00">updated_at :datetime</text>
<text text-anchor="start" x="453.5" y="-588.3" font-family="Times,serif" font-size="14.00">load_pct :int(11)</text>
</g>
<!-- Factor -->
<g id="node5" class="node"><title>Factor</title>
<path fill="none" stroke="black" d="M544.5,-158.5C544.5,-158.5 651.5,-158.5 651.5,-158.5 657.5,-158.5 663.5,-164.5 663.5,-170.5 663.5,-170.5 663.5,-267.5 663.5,-267.5 663.5,-273.5 657.5,-279.5 651.5,-279.5 651.5,-279.5 544.5,-279.5 544.5,-279.5 538.5,-279.5 532.5,-273.5 532.5,-267.5 532.5,-267.5 532.5,-170.5 532.5,-170.5 532.5,-164.5 538.5,-158.5 544.5,-158.5"/>
<text text-anchor="middle" x="598" y="-264.3" font-family="Times,serif" font-size="14.00">Factor</text>
<polyline fill="none" stroke="black" points="532.5,-256.5 663.5,-256.5 "/>
<text text-anchor="start" x="540.5" y="-241.3" font-family="Times,serif" font-size="14.00">id :bigint(20)</text>
<text text-anchor="start" x="540.5" y="-226.3" font-family="Times,serif" font-size="14.00">source_id :bigint(20)</text>
<text text-anchor="start" x="540.5" y="-211.3" font-family="Times,serif" font-size="14.00">text :text</text>
<text text-anchor="start" x="540.5" y="-196.3" font-family="Times,serif" font-size="14.00">created_at :datetime</text>
<text text-anchor="start" x="540.5" y="-181.3" font-family="Times,serif" font-size="14.00">updated_at :datetime</text>
<text text-anchor="start" x="540.5" y="-166.3" font-family="Times,serif" font-size="14.00">unverified :text</text>
</g>
<!-- Dataset&#45;&gt;Factor -->
<g id="edge3" class="edge"><title>Dataset&#45;&gt;Factor</title>
<path fill="none" stroke="#bfb7cc" d="M525.472,-570.134C541.583,-492.357 567.466,-367.405 583.563,-289.696"/>
<polygon fill="#bfb7cc" stroke="#bfb7cc" points="525.401,-570.478 518.966,-579.357 524.387,-575.374 523.373,-580.27 523.373,-580.27 523.373,-580.27 524.387,-575.374 527.779,-581.183 525.401,-570.478 525.401,-570.478"/>
<polygon fill="#bfb7cc" stroke="#bfb7cc" points="583.642,-289.316 590.077,-280.436 584.656,-284.42 585.67,-279.524 585.67,-279.524 585.67,-279.524 584.656,-284.42 581.264,-278.611 583.642,-289.316 583.642,-289.316"/>
</g>
<!-- Dataset&#45;&gt;Source -->
<g id="edge2" class="edge"><title>Dataset&#45;&gt;Source</title>
<path fill="none" stroke="#2ede9b" d="M460.154,-573.994C454.579,-566.758 448.785,-559.236 442.899,-551.596"/>
<ellipse fill="none" stroke="#2ede9b" cx="462.638" cy="-577.22" rx="4.00002" ry="4.00002"/>
<polygon fill="#2ede9b" stroke="#2ede9b" points="442.586,-551.19 440.049,-540.521 439.535,-547.229 436.484,-543.268 436.484,-543.268 436.484,-543.268 439.535,-547.229 432.919,-546.014 442.586,-551.19 442.586,-551.19"/>
</g>
<!-- Stem -->
<g id="node7" class="node"><title>Stem</title>
<path fill="none" stroke="black" d="M246.5,-173.5C246.5,-173.5 353.5,-173.5 353.5,-173.5 359.5,-173.5 365.5,-179.5 365.5,-185.5 365.5,-185.5 365.5,-252.5 365.5,-252.5 365.5,-258.5 359.5,-264.5 353.5,-264.5 353.5,-264.5 246.5,-264.5 246.5,-264.5 240.5,-264.5 234.5,-258.5 234.5,-252.5 234.5,-252.5 234.5,-185.5 234.5,-185.5 234.5,-179.5 240.5,-173.5 246.5,-173.5"/>
<text text-anchor="middle" x="300" y="-249.3" font-family="Times,serif" font-size="14.00">Stem</text>
<polyline fill="none" stroke="black" points="234.5,-241.5 365.5,-241.5 "/>
<text text-anchor="start" x="242.5" y="-226.3" font-family="Times,serif" font-size="14.00">id :bigint(20)</text>
<text text-anchor="start" x="242.5" y="-211.3" font-family="Times,serif" font-size="14.00">word :varchar(255)</text>
<text text-anchor="start" x="242.5" y="-196.3" font-family="Times,serif" font-size="14.00">created_at :datetime</text>
<text text-anchor="start" x="242.5" y="-181.3" font-family="Times,serif" font-size="14.00">updated_at :datetime</text>
</g>
<!-- Dataset&#45;&gt;Stem -->
<g id="edge5" class="edge"><title>Dataset&#45;&gt;Stem</title>
<path fill="none" stroke="#200de9" d="M488.864,-570.776C486.361,-561.816 483.997,-552.725 482,-544 459.113,-443.997 506.362,-398.951 446,-316 425.183,-287.392 404.748,-299.152 375,-280 370.443,-277.066 365.835,-273.911 361.261,-270.636"/>
<polygon fill="#200de9" stroke="#200de9" points="488.874,-570.808 487.299,-581.66 490.249,-575.615 491.625,-580.422 491.625,-580.422 491.625,-580.422 490.249,-575.615 495.951,-579.184 488.874,-570.808 488.874,-570.808"/>
<polygon fill="#200de9" stroke="#200de9" points="361.147,-270.553 355.747,-261.009 357.116,-267.595 353.085,-264.637 353.085,-264.637 353.085,-264.637 357.116,-267.595 350.423,-268.265 361.147,-270.553 361.147,-270.553"/>
</g>
<!-- Synonym -->
<g id="node8" class="node"><title>Synonym</title>
<path fill="none" stroke="black" d="M395.5,-173.5C395.5,-173.5 502.5,-173.5 502.5,-173.5 508.5,-173.5 514.5,-179.5 514.5,-185.5 514.5,-185.5 514.5,-252.5 514.5,-252.5 514.5,-258.5 508.5,-264.5 502.5,-264.5 502.5,-264.5 395.5,-264.5 395.5,-264.5 389.5,-264.5 383.5,-258.5 383.5,-252.5 383.5,-252.5 383.5,-185.5 383.5,-185.5 383.5,-179.5 389.5,-173.5 395.5,-173.5"/>
<text text-anchor="middle" x="449" y="-249.3" font-family="Times,serif" font-size="14.00">Synonym</text>
<polyline fill="none" stroke="black" points="383.5,-241.5 514.5,-241.5 "/>
<text text-anchor="start" x="391.5" y="-226.3" font-family="Times,serif" font-size="14.00">id :bigint(20)</text>
<text text-anchor="start" x="391.5" y="-211.3" font-family="Times,serif" font-size="14.00">word :varchar(255)</text>
<text text-anchor="start" x="391.5" y="-196.3" font-family="Times,serif" font-size="14.00">created_at :datetime</text>
<text text-anchor="start" x="391.5" y="-181.3" font-family="Times,serif" font-size="14.00">updated_at :datetime</text>
</g>
<!-- Dataset&#45;&gt;Synonym -->
<g id="edge6" class="edge"><title>Dataset&#45;&gt;Synonym</title>
<path fill="none" stroke="#e6abce" d="M509.603,-569.936C507.142,-503.818 500.398,-402.243 482,-316 479.071,-302.269 474.769,-287.788 470.232,-274.352"/>
<polygon fill="#e6abce" stroke="#e6abce" points="509.614,-570.242 505.465,-580.393 509.788,-575.239 509.962,-580.236 509.962,-580.236 509.962,-580.236 509.788,-575.239 514.46,-580.079 509.614,-570.242 509.614,-570.242"/>
<polygon fill="#e6abce" stroke="#e6abce" points="470.188,-274.225 471.154,-263.302 468.546,-269.502 466.904,-264.78 466.904,-264.78 466.904,-264.78 468.546,-269.502 462.654,-266.258 470.188,-274.225 470.188,-274.225"/>
</g>
<!-- Word -->
<g id="node11" class="node"><title>Word</title>
<path fill="none" stroke="black" d="M388.5,-0.5C388.5,-0.5 509.5,-0.5 509.5,-0.5 515.5,-0.5 521.5,-6.5 521.5,-12.5 521.5,-12.5 521.5,-109.5 521.5,-109.5 521.5,-115.5 515.5,-121.5 509.5,-121.5 509.5,-121.5 388.5,-121.5 388.5,-121.5 382.5,-121.5 376.5,-115.5 376.5,-109.5 376.5,-109.5 376.5,-12.5 376.5,-12.5 376.5,-6.5 382.5,-0.5 388.5,-0.5"/>
<text text-anchor="middle" x="449" y="-106.3" font-family="Times,serif" font-size="14.00">Word</text>
<polyline fill="none" stroke="black" points="376.5,-98.5 521.5,-98.5 "/>
<text text-anchor="start" x="384.5" y="-83.3" font-family="Times,serif" font-size="14.00">id :bigint(20)</text>
<text text-anchor="start" x="384.5" y="-68.3" font-family="Times,serif" font-size="14.00">raw :varchar(255)</text>
<text text-anchor="start" x="384.5" y="-53.3" font-family="Times,serif" font-size="14.00">stem_id :bigint(20)</text>
<text text-anchor="start" x="384.5" y="-38.3" font-family="Times,serif" font-size="14.00">created_at :datetime</text>
<text text-anchor="start" x="384.5" y="-23.3" font-family="Times,serif" font-size="14.00">updated_at :datetime</text>
<text text-anchor="start" x="384.5" y="-8.3" font-family="Times,serif" font-size="14.00">syn_checked :tinyint(1)</text>
</g>
<!-- Dataset&#45;&gt;Word -->
<g id="edge4" class="edge"><title>Dataset&#45;&gt;Word</title>
<path fill="none" stroke="#01976a" d="M568.613,-572.36C644.632,-474.435 759.167,-290.426 672,-158 640.931,-110.8 581.247,-86.708 531.438,-74.4661"/>
<polygon fill="#01976a" stroke="#01976a" points="568.469,-572.543 558.757,-577.635 565.384,-576.478 562.298,-580.412 562.298,-580.412 562.298,-580.412 565.384,-576.478 565.839,-583.189 568.469,-572.543 568.469,-572.543"/>
<polygon fill="#01976a" stroke="#01976a" points="531.357,-74.4473 522.643,-67.7904 526.488,-73.3099 521.619,-72.1724 521.619,-72.1724 521.619,-72.1724 526.488,-73.3099 520.595,-76.5544 531.357,-74.4473 531.357,-74.4473"/>
</g>
<!-- Factor&#45;&gt;Word -->
<g id="edge7" class="edge"><title>Factor&#45;&gt;Word</title>
<path fill="none" stroke="#a46c0c" d="M533.806,-150.79C527.022,-143.687 520.121,-136.463 513.336,-129.358"/>
<polygon fill="#a46c0c" stroke="#a46c0c" points="533.912,-150.901 537.565,-161.241 537.365,-154.517 540.819,-158.132 540.819,-158.132 540.819,-158.132 537.365,-154.517 544.073,-155.024 533.912,-150.901 533.912,-150.901"/>
<polygon fill="#a46c0c" stroke="#a46c0c" points="512.935,-128.939 509.282,-118.599 509.482,-125.323 506.028,-121.707 506.028,-121.707 506.028,-121.707 509.482,-125.323 502.774,-124.815 512.935,-128.939 512.935,-128.939"/>
</g>
<!-- Source&#45;&gt;Factor -->
<g id="edge8" class="edge"><title>Source&#45;&gt;Factor</title>
<path fill="none" stroke="#99bf9e" d="M444.016,-349.769C470.647,-327.326 499.24,-303.229 524.472,-281.965"/>
<ellipse fill="none" stroke="#99bf9e" cx="440.843" cy="-352.443" rx="4.00002" ry="4.00002"/>
<polygon fill="#99bf9e" stroke="#99bf9e" points="524.542,-281.906 535.088,-278.903 528.365,-278.684 532.188,-275.462 532.188,-275.462 532.188,-275.462 528.365,-278.684 529.289,-272.021 524.542,-281.906 524.542,-281.906"/>
</g>
<!-- Source&#45;&gt;Stem -->
<g id="edge10" class="edge"><title>Source&#45;&gt;Stem</title>
<path fill="none" stroke="#9a9df4" d="M320.808,-306.978C318.128,-295.775 315.514,-284.847 313.094,-274.732"/>
<polygon fill="#9a9df4" stroke="#9a9df4" points="320.844,-307.127 318.794,-317.899 322.007,-311.989 323.17,-316.852 323.17,-316.852 323.17,-316.852 322.007,-311.989 327.547,-315.805 320.844,-307.127 320.844,-307.127"/>
<polygon fill="#9a9df4" stroke="#9a9df4" points="313.07,-274.632 315.12,-263.86 311.907,-269.77 310.743,-264.907 310.743,-264.907 310.743,-264.907 311.907,-269.77 306.367,-265.954 313.07,-274.632 313.07,-274.632"/>
</g>
<!-- Source&#45;&gt;Synonym -->
<g id="edge11" class="edge"><title>Source&#45;&gt;Synonym</title>
<path fill="none" stroke="#59039c" d="M407.598,-307.405C413.07,-295.852 418.407,-284.585 423.331,-274.191"/>
<polygon fill="#59039c" stroke="#59039c" points="407.404,-307.815 399.056,-314.926 405.263,-312.334 403.123,-316.852 403.123,-316.852 403.123,-316.852 405.263,-312.334 407.189,-318.779 407.404,-307.815 407.404,-307.815"/>
<polygon fill="#59039c" stroke="#59039c" points="423.447,-273.944 431.795,-266.833 425.588,-269.426 427.728,-264.907 427.728,-264.907 427.728,-264.907 425.588,-269.426 423.661,-262.981 423.447,-273.944 423.447,-273.944"/>
</g>
<!-- Source&#45;&gt;Word -->
<g id="edge9" class="edge"><title>Source&#45;&gt;Word</title>
<path fill="none" stroke="#2a1b02" d="M255.964,-336.133C243.291,-318.741 232.194,-299.769 225,-280 206.458,-229.047 195.151,-203.267 225,-158 256.279,-110.564 316.386,-86.4778 366.466,-74.2979"/>
<polygon fill="#2a1b02" stroke="#2a1b02" points="256.282,-336.555 258.708,-347.25 259.292,-340.548 262.302,-344.541 262.302,-344.541 262.302,-344.541 259.292,-340.548 265.895,-341.832 256.282,-336.555 256.282,-336.555"/>
<polygon fill="#2a1b02" stroke="#2a1b02" points="366.594,-74.2685 377.35,-76.4018 371.465,-73.1429 376.337,-72.0173 376.337,-72.0173 376.337,-72.0173 371.465,-73.1429 375.324,-67.6328 366.594,-74.2685 366.594,-74.2685"/>
</g>
<!-- Stem&#45;&gt;Word -->
<g id="edge12" class="edge"><title>Stem&#45;&gt;Word</title>
<path fill="none" stroke="#518bdd" d="M348.568,-167.151C360.195,-154.977 372.786,-141.795 384.993,-129.014"/>
<ellipse fill="none" stroke="#518bdd" cx="345.46" cy="-170.404" rx="4.00002" ry="4.00002"/>
<polygon fill="#518bdd" stroke="#518bdd" points="385.219,-128.778 395.38,-124.654 388.672,-125.162 392.126,-121.546 392.126,-121.546 392.126,-121.546 388.672,-125.162 388.871,-118.438 385.219,-128.778 385.219,-128.778"/>
</g>
<!-- Synonym&#45;&gt;Word -->
<g id="edge13" class="edge"><title>Synonym&#45;&gt;Word</title>
<path fill="none" stroke="#c83b48" d="M449,-163.217C449,-153.002 449,-142.202 449,-131.611"/>
<polygon fill="#c83b48" stroke="#c83b48" points="449,-163.297 444.5,-173.297 449,-168.297 449,-173.297 449,-173.297 449,-173.297 449,-168.297 453.5,-173.297 449,-163.297 449,-163.297"/>
<polygon fill="#c83b48" stroke="#c83b48" points="449,-131.546 453.5,-121.546 449,-126.546 449,-121.546 449,-121.546 449,-121.546 449,-126.546 444.5,-121.546 449,-131.546 449,-131.546"/>
</g>
<!-- Topic -->
<g id="node9" class="node"><title>Topic</title>
<path fill="none" stroke="black" d="M285,-588C285,-588 415,-588 415,-588 421,-588 427,-594 427,-600 427,-600 427,-682 427,-682 427,-688 421,-694 415,-694 415,-694 285,-694 285,-694 279,-694 273,-688 273,-682 273,-682 273,-600 273,-600 273,-594 279,-588 285,-588"/>
<text text-anchor="middle" x="350" y="-678.8" font-family="Times,serif" font-size="14.00">Topic</text>
<polyline fill="none" stroke="black" points="273,-671 427,-671 "/>
<text text-anchor="start" x="281" y="-655.8" font-family="Times,serif" font-size="14.00">id :bigint(20)</text>
<text text-anchor="start" x="281" y="-640.8" font-family="Times,serif" font-size="14.00">name :varchar(255)</text>
<text text-anchor="start" x="281" y="-625.8" font-family="Times,serif" font-size="14.00">description :varchar(255)</text>
<text text-anchor="start" x="281" y="-610.8" font-family="Times,serif" font-size="14.00">created_at :datetime</text>
<text text-anchor="start" x="281" y="-595.8" font-family="Times,serif" font-size="14.00">updated_at :datetime</text>
</g>
<!-- Topic&#45;&gt;Source -->
<g id="edge14" class="edge"><title>Topic&#45;&gt;Source</title>
<path fill="none" stroke="#796f53" d="M350,-579.621C350,-571.296 350,-562.515 350,-553.55"/>
<ellipse fill="none" stroke="#796f53" cx="350" cy="-583.8" rx="4" ry="4"/>
<polygon fill="#796f53" stroke="#796f53" points="350,-553.366 354.5,-543.366 350,-548.366 350,-543.366 350,-543.366 350,-543.366 350,-548.366 345.5,-543.366 350,-553.366 350,-553.366"/>
</g>
<!-- User -->
<g id="node10" class="node"><title>User</title>
<path fill="none" stroke="black" d="M416,-738.5C416,-738.5 606,-738.5 606,-738.5 612,-738.5 618,-744.5 618,-750.5 618,-750.5 618,-997.5 618,-997.5 618,-1003.5 612,-1009.5 606,-1009.5 606,-1009.5 416,-1009.5 416,-1009.5 410,-1009.5 404,-1003.5 404,-997.5 404,-997.5 404,-750.5 404,-750.5 404,-744.5 410,-738.5 416,-738.5"/>
<text text-anchor="middle" x="511" y="-994.3" font-family="Times,serif" font-size="14.00">User</text>
<polyline fill="none" stroke="black" points="404,-986.5 618,-986.5 "/>
<text text-anchor="start" x="412" y="-971.3" font-family="Times,serif" font-size="14.00">id :bigint(20)</text>
<text text-anchor="start" x="412" y="-956.3" font-family="Times,serif" font-size="14.00">email :varchar(255)</text>
<text text-anchor="start" x="412" y="-941.3" font-family="Times,serif" font-size="14.00">encrypted_password :varchar(255)</text>
<text text-anchor="start" x="412" y="-926.3" font-family="Times,serif" font-size="14.00">reset_password_token :varchar(255)</text>
<text text-anchor="start" x="412" y="-911.3" font-family="Times,serif" font-size="14.00">reset_password_sent_at :datetime</text>
<text text-anchor="start" x="412" y="-896.3" font-family="Times,serif" font-size="14.00">remember_created_at :datetime</text>
<text text-anchor="start" x="412" y="-881.3" font-family="Times,serif" font-size="14.00">sign_in_count :int(11)</text>
<text text-anchor="start" x="412" y="-866.3" font-family="Times,serif" font-size="14.00">current_sign_in_at :datetime</text>
<text text-anchor="start" x="412" y="-851.3" font-family="Times,serif" font-size="14.00">last_sign_in_at :datetime</text>
<text text-anchor="start" x="412" y="-836.3" font-family="Times,serif" font-size="14.00">current_sign_in_ip :varchar(255)</text>
<text text-anchor="start" x="412" y="-821.3" font-family="Times,serif" font-size="14.00">last_sign_in_ip :varchar(255)</text>
<text text-anchor="start" x="412" y="-806.3" font-family="Times,serif" font-size="14.00">created_at :datetime</text>
<text text-anchor="start" x="412" y="-791.3" font-family="Times,serif" font-size="14.00">updated_at :datetime</text>
<text text-anchor="start" x="412" y="-776.3" font-family="Times,serif" font-size="14.00">token :text</text>
<text text-anchor="start" x="412" y="-761.3" font-family="Times,serif" font-size="14.00">refresh_token :text</text>
<text text-anchor="start" x="412" y="-746.3" font-family="Times,serif" font-size="14.00">expires_at :int(11)</text>
</g>
<!-- User&#45;&gt;Dataset -->
<g id="edge15" class="edge"><title>User&#45;&gt;Dataset</title>
<path fill="none" stroke="#6849bd" d="M511,-730.26C511,-724.044 511,-717.939 511,-712.023"/>
<ellipse fill="none" stroke="#6849bd" cx="511" cy="-734.292" rx="4" ry="4"/>
<polygon fill="#6849bd" stroke="#6849bd" points="511,-711.597 515.5,-701.597 511,-706.597 511,-701.597 511,-701.597 511,-701.597 511,-706.597 506.5,-701.597 511,-711.597 511,-711.597"/>
</g>
</g>
</svg>
