<?xml version="1.0" encoding="UTF-8" standalone="no"?>
<!DOCTYPE svg PUBLIC "-//W3C//DTD SVG 1.1//EN"
 "http://www.w3.org/Graphics/SVG/1.1/DTD/svg11.dtd">
<!-- Generated by graphviz version 2.36.0 (20140111.2315)
 -->
<!-- Title: models_diagram Pages: 1 -->
<svg width="864pt" height="158pt"
 viewBox="0.00 0.00 864.00 158.00" xmlns="http://www.w3.org/2000/svg" xmlns:xlink="http://www.w3.org/1999/xlink">
<g id="graph0" class="graph" transform="scale(1 1) rotate(0) translate(4 154)">
<title>models_diagram</title>
<polygon fill="none" stroke="none" points="-4,4 -4,-154 860,-154 860,4 -4,4"/>
<!-- _diagram_info -->
<g id="node1" class="node"><title>_diagram_info</title>
<text text-anchor="start" x="7.5" y="-135.6" font-family="Times,serif" font-size="13.00">Models diagram</text>
<text text-anchor="start" x="7.5" y="-121.6" font-family="Times,serif" font-size="13.00">Date: Jun 22 2017 &#45; 14:43</text>
<text text-anchor="start" x="7.5" y="-107.6" font-family="Times,serif" font-size="13.00">Migration version: 20170622052552</text>
<text text-anchor="start" x="7.5" y="-93.6" font-family="Times,serif" font-size="13.00">Generated by RailRoady 1.5.3</text>
<text text-anchor="start" x="7.5" y="-79.6" font-family="Times,serif" font-size="13.00">http://railroady.prestonlee.com</text>
</g>
<!-- ApplicationRecord -->
<g id="node2" class="node"><title>ApplicationRecord</title>
<ellipse fill="none" stroke="black" cx="371" cy="-111" rx="96.2631" ry="18"/>
<text text-anchor="middle" x="371" y="-107.3" font-family="Times,serif" font-size="14.00">ApplicationRecord</text>
</g>
<!-- Author -->
<g id="node3" class="node"><title>Author</title>
<ellipse fill="none" stroke="black" cx="529" cy="-111" rx="42.3456" ry="18"/>
<text text-anchor="middle" x="529" y="-107.3" font-family="Times,serif" font-size="14.00">Author</text>
</g>
<!-- Source -->
<g id="node5" class="node"><title>Source</title>
<ellipse fill="none" stroke="black" cx="637" cy="-18" rx="42.3456" ry="18"/>
<text text-anchor="middle" x="637" y="-14.3" font-family="Times,serif" font-size="14.00">Source</text>
</g>
<!-- Author&#45;&gt;Source -->
<g id="edge1" class="edge"><title>Author&#45;&gt;Source</title>
<path fill="none" stroke="#92f49d" d="M555.007,-88.0869C571.881,-73.8686 593.796,-55.403 610.724,-41.1399"/>
<polygon fill="#92f49d" stroke="#92f49d" points="554.968,-88.1195 544.421,-91.1218 551.144,-91.3413 547.321,-94.5631 547.321,-94.5631 547.321,-94.5631 551.144,-91.3413 550.22,-98.0044 554.968,-88.1195 554.968,-88.1195"/>
<polygon fill="#92f49d" stroke="#92f49d" points="610.942,-40.9562 621.489,-37.9539 614.766,-37.7344 618.589,-34.5126 618.589,-34.5126 618.589,-34.5126 614.766,-37.7344 615.69,-31.0714 610.942,-40.9562 610.942,-40.9562"/>
</g>
<!-- Dataset -->
<g id="node4" class="node"><title>Dataset</title>
<ellipse fill="none" stroke="black" cx="637" cy="-111" rx="46.1964" ry="18"/>
<text text-anchor="middle" x="637" y="-107.3" font-family="Times,serif" font-size="14.00">Dataset</text>
</g>
<!-- Dataset&#45;&gt;Source -->
<g id="edge2" class="edge"><title>Dataset&#45;&gt;Source</title>
<path fill="none" stroke="#dc8e94" d="M637,-84.7285C637,-72.7246 637,-58.3622 637,-46.1291"/>
<ellipse fill="none" stroke="#dc8e94" cx="637" cy="-88.8836" rx="4" ry="4"/>
<polygon fill="#dc8e94" stroke="#dc8e94" points="637,-46.0397 641.5,-36.0396 637,-41.0397 637,-36.0397 637,-36.0397 637,-36.0397 637,-41.0397 632.5,-36.0397 637,-46.0397 637,-46.0397"/>
</g>
<!-- Topic -->
<g id="node6" class="node"><title>Topic</title>
<ellipse fill="none" stroke="black" cx="738" cy="-111" rx="35.6194" ry="18"/>
<text text-anchor="middle" x="738" y="-107.3" font-family="Times,serif" font-size="14.00">Topic</text>
</g>
<!-- Topic&#45;&gt;Source -->
<g id="edge3" class="edge"><title>Topic&#45;&gt;Source</title>
<path fill="none" stroke="#f28018" d="M715.365,-89.6062C699.51,-75.3207 678.32,-56.2286 661.972,-41.4996"/>
<ellipse fill="none" stroke="#f28018" cx="718.35" cy="-92.2957" rx="4.00002" ry="4.00002"/>
<polygon fill="#f28018" stroke="#f28018" points="661.81,-41.3534 657.393,-31.3164 658.095,-38.0065 654.38,-34.6596 654.38,-34.6596 654.38,-34.6596 658.095,-38.0065 651.368,-38.0028 661.81,-41.3534 661.81,-41.3534"/>
</g>
<!-- User -->
<g id="node7" class="node"><title>User</title>
<ellipse fill="none" stroke="black" cx="824" cy="-111" rx="32.2457" ry="18"/>
<text text-anchor="middle" x="824" y="-107.3" font-family="Times,serif" font-size="14.00">User</text>
</g>
</g>
</svg>
