<?xml version="1.0" encoding="UTF-8" standalone="no"?>
<!DOCTYPE svg PUBLIC "-//W3C//DTD SVG 1.1//EN"
 "http://www.w3.org/Graphics/SVG/1.1/DTD/svg11.dtd">
<!-- Generated by graphviz version 2.38.0 (20140413.2041)
 -->
<!-- Title: models_diagram Pages: 1 -->
<svg width="467pt" height="230pt"
 viewBox="0.00 0.00 467.34 230.00" xmlns="http://www.w3.org/2000/svg" xmlns:xlink="http://www.w3.org/1999/xlink">
<g id="graph0" class="graph" transform="scale(1 1) rotate(0) translate(4 226)">
<title>models_diagram</title>
<polygon fill="none" stroke="none" points="-4,4 -4,-226 463.343,-226 463.343,4 -4,4"/>
<!-- _diagram_info -->
<g id="node1" class="node"><title>_diagram_info</title>
<text text-anchor="start" x="8" y="-207.6" font-family="Times,serif" font-size="13.00">Models diagram</text>
<text text-anchor="start" x="8" y="-193.6" font-family="Times,serif" font-size="13.00">Date: Jun 22 2017 &#45; 15:03</text>
<text text-anchor="start" x="8" y="-179.6" font-family="Times,serif" font-size="13.00">Migration version: 20170621150442</text>
<text text-anchor="start" x="8" y="-165.6" font-family="Times,serif" font-size="13.00">Generated by RailRoady 1.5.3</text>
<text text-anchor="start" x="8" y="-151.6" font-family="Times,serif" font-size="13.00">http://railroady.prestonlee.com</text>
</g>
<!-- Author -->
<g id="node2" class="node"><title>Author</title>
<ellipse fill="none" stroke="black" cx="88" cy="-90" rx="35.9954" ry="18"/>
<text text-anchor="middle" x="88" y="-86.3" font-family="Times,serif" font-size="14.00">Author</text>
</g>
<!-- Source -->
<g id="node7" class="node"><title>Source</title>
<ellipse fill="none" stroke="black" cx="173" cy="-18" rx="35.194" ry="18"/>
<text text-anchor="middle" x="173" y="-14.3" font-family="Times,serif" font-size="14.00">Source</text>
</g>
<!-- Author&#45;&gt;Source -->
<g id="edge1" class="edge"><title>Author&#45;&gt;Source</title>
<path fill="none" stroke="#82173f" d="M113.968,-67.6148C124.636,-58.8293 136.95,-48.6879 147.563,-39.9482"/>
<polygon fill="#82173f" stroke="#82173f" points="113.746,-67.7977 103.166,-70.6811 109.886,-70.9762 106.026,-74.1548 106.026,-74.1548 106.026,-74.1548 109.886,-70.9762 108.887,-77.6285 113.746,-67.7977 113.746,-67.7977"/>
<polygon fill="#82173f" stroke="#82173f" points="147.572,-39.9409 158.152,-37.0575 151.431,-36.7623 155.291,-33.5838 155.291,-33.5838 155.291,-33.5838 151.431,-36.7623 152.43,-30.1101 147.572,-39.9409 147.572,-39.9409"/>
</g>
<!-- Topic -->
<g id="node3" class="node"><title>Topic</title>
<ellipse fill="none" stroke="black" cx="173" cy="-90" rx="31.3957" ry="18"/>
<text text-anchor="middle" x="173" y="-86.3" font-family="Times,serif" font-size="14.00">Topic</text>
</g>
<!-- Topic&#45;&gt;Source -->
<g id="edge2" class="edge"><title>Topic&#45;&gt;Source</title>
<path fill="none" stroke="#b9d7d9" d="M173,-63.6398C173,-58.0629 173,-52.1319 173,-46.4761"/>
<ellipse fill="none" stroke="#b9d7d9" cx="173" cy="-67.6966" rx="4" ry="4"/>
<polygon fill="#b9d7d9" stroke="#b9d7d9" points="173,-46.1043 177.5,-36.1043 173,-41.1043 173,-36.1043 173,-36.1043 173,-36.1043 173,-41.1043 168.5,-36.1044 173,-46.1043 173,-46.1043"/>
</g>
<!-- User -->
<g id="node4" class="node"><title>User</title>
<ellipse fill="none" stroke="black" cx="259" cy="-183" rx="27.0966" ry="18"/>
<text text-anchor="middle" x="259" y="-179.3" font-family="Times,serif" font-size="14.00">User</text>
</g>
<!-- Dataset -->
<g id="node5" class="node"><title>Dataset</title>
<ellipse fill="none" stroke="black" cx="259" cy="-90" rx="37.0935" ry="18"/>
<text text-anchor="middle" x="259" y="-86.3" font-family="Times,serif" font-size="14.00">Dataset</text>
</g>
<!-- User&#45;&gt;Dataset -->
<g id="edge3" class="edge"><title>User&#45;&gt;Dataset</title>
<path fill="none" stroke="#2c609e" d="M259,-156.729C259,-144.725 259,-130.362 259,-118.129"/>
<ellipse fill="none" stroke="#2c609e" cx="259" cy="-160.884" rx="4" ry="4"/>
<polygon fill="#2c609e" stroke="#2c609e" points="259,-118.04 263.5,-108.04 259,-113.04 259,-108.04 259,-108.04 259,-108.04 259,-113.04 254.5,-108.04 259,-118.04 259,-118.04"/>
</g>
<!-- Dataset&#45;&gt;Source -->
<g id="edge4" class="edge"><title>Dataset&#45;&gt;Source</title>
<path fill="none" stroke="#eda326" d="M234.249,-68.8535C223.111,-59.7881 209.968,-49.0904 198.718,-39.9336"/>
<ellipse fill="none" stroke="#eda326" cx="237.659" cy="-71.6297" rx="4.00002" ry="4.00002"/>
<polygon fill="#eda326" stroke="#eda326" points="198.673,-39.8965 193.758,-30.0937 194.795,-36.7401 190.917,-33.5838 190.917,-33.5838 190.917,-33.5838 194.795,-36.7401 188.076,-37.0738 198.673,-39.8965 198.673,-39.8965"/>
</g>
<!-- ApplicationRecord -->
<g id="node6" class="node"><title>ApplicationRecord</title>
<ellipse fill="none" stroke="black" cx="382" cy="-183" rx="77.1866" ry="18"/>
<text text-anchor="middle" x="382" y="-179.3" font-family="Times,serif" font-size="14.00">ApplicationRecord</text>
</g>
</g>
</svg>
