<?xml version="1.0" encoding="UTF-8" standalone="no"?>
<!DOCTYPE svg PUBLIC "-//W3C//DTD SVG 1.1//EN"
 "http://www.w3.org/Graphics/SVG/1.1/DTD/svg11.dtd">
<!-- Generated by graphviz version 2.36.0 (20140111.2315)
 -->
<!-- Title: models_diagram Pages: 1 -->
<svg width="557pt" height="374pt"
 viewBox="0.00 0.00 557.00 374.00" xmlns="http://www.w3.org/2000/svg" xmlns:xlink="http://www.w3.org/1999/xlink">
<g id="graph0" class="graph" transform="scale(1 1) rotate(0) translate(4 370)">
<title>models_diagram</title>
<polygon fill="none" stroke="none" points="-4,4 -4,-370 553,-370 553,4 -4,4"/>
<!-- _diagram_info -->
<g id="node1" class="node"><title>_diagram_info</title>
<text text-anchor="start" x="8" y="-351.6" font-family="Times,serif" font-size="13.00">Models diagram</text>
<text text-anchor="start" x="8" y="-337.6" font-family="Times,serif" font-size="13.00">Date: Jul 11 2017 &#45; 19:32</text>
<text text-anchor="start" x="8" y="-323.6" font-family="Times,serif" font-size="13.00">Migration version: 20170705112847</text>
<text text-anchor="start" x="8" y="-309.6" font-family="Times,serif" font-size="13.00">Generated by RailRoady 1.5.3</text>
<text text-anchor="start" x="8" y="-295.6" font-family="Times,serif" font-size="13.00">http://railroady.prestonlee.com</text>
</g>
<!-- ApplicationRecord -->
<g id="node2" class="node"><title>ApplicationRecord</title>
<ellipse fill="none" stroke="black" cx="309" cy="-327" rx="77.0154" ry="18"/>
<text text-anchor="middle" x="309" y="-323.3" font-family="Times,serif" font-size="14.00">ApplicationRecord</text>
</g>
<!-- Author -->
<g id="node3" class="node"><title>Author</title>
<ellipse fill="none" stroke="black" cx="341" cy="-234" rx="35.6194" ry="18"/>
<text text-anchor="middle" x="341" y="-230.3" font-family="Times,serif" font-size="14.00">Author</text>
</g>
<!-- Source -->
<g id="node6" class="node"><title>Source</title>
<ellipse fill="none" stroke="black" cx="432" cy="-162" rx="35.1455" ry="18"/>
<text text-anchor="middle" x="432" y="-158.3" font-family="Times,serif" font-size="14.00">Source</text>
</g>
<!-- Author&#45;&gt;Source -->
<g id="edge1" class="edge"><title>Author&#45;&gt;Source</title>
<path fill="none" stroke="#3c286a" d="M368.007,-212.225C379.706,-203.226 393.37,-192.715 405.061,-183.722"/>
<polygon fill="#3c286a" stroke="#3c286a" points="367.782,-212.399 357.112,-214.929 363.818,-215.447 359.855,-218.496 359.855,-218.496 359.855,-218.496 363.818,-215.447 362.599,-222.063 367.782,-212.399 367.782,-212.399"/>
<polygon fill="#3c286a" stroke="#3c286a" points="405.243,-183.583 415.913,-181.052 409.206,-180.534 413.169,-177.485 413.169,-177.485 413.169,-177.485 409.206,-180.534 410.425,-173.919 405.243,-183.583 405.243,-183.583"/>
</g>
<!-- Dataset -->
<g id="node4" class="node"><title>Dataset</title>
<ellipse fill="none" stroke="black" cx="432" cy="-234" rx="37.0701" ry="18"/>
<text text-anchor="middle" x="432" y="-230.3" font-family="Times,serif" font-size="14.00">Dataset</text>
</g>
<!-- Dataset&#45;&gt;Source -->
<g id="edge2" class="edge"><title>Dataset&#45;&gt;Source</title>
<path fill="none" stroke="#1a90d7" d="M432,-207.64C432,-202.063 432,-196.132 432,-190.476"/>
<ellipse fill="none" stroke="#1a90d7" cx="432" cy="-211.697" rx="4" ry="4"/>
<polygon fill="#1a90d7" stroke="#1a90d7" points="432,-190.104 436.5,-180.104 432,-185.104 432,-180.104 432,-180.104 432,-180.104 432,-185.104 427.5,-180.104 432,-190.104 432,-190.104"/>
</g>
<!-- Factor -->
<g id="node5" class="node"><title>Factor</title>
<ellipse fill="none" stroke="black" cx="432" cy="-90" rx="33.2209" ry="18"/>
<text text-anchor="middle" x="432" y="-86.3" font-family="Times,serif" font-size="14.00">Factor</text>
</g>
<!-- Word -->
<g id="node10" class="node"><title>Word</title>
<ellipse fill="none" stroke="black" cx="472" cy="-18" rx="31.2965" ry="18"/>
<text text-anchor="middle" x="472" y="-14.3" font-family="Times,serif" font-size="14.00">Word</text>
</g>
<!-- Factor&#45;&gt;Word -->
<g id="edge3" class="edge"><title>Factor&#45;&gt;Word</title>
<path fill="none" stroke="#80f9d4" d="M446.573,-63.4971C450.163,-57.2155 454.004,-50.4923 457.586,-44.2239"/>
<polygon fill="#80f9d4" stroke="#80f9d4" points="446.441,-63.7285 437.572,-70.1783 443.96,-68.0698 441.479,-72.411 441.479,-72.411 441.479,-72.411 443.96,-68.0698 445.387,-74.6436 446.441,-63.7285 446.441,-63.7285"/>
<polygon fill="#80f9d4" stroke="#80f9d4" points="457.627,-44.1524 466.496,-37.7026 460.108,-39.8112 462.589,-35.4699 462.589,-35.4699 462.589,-35.4699 460.108,-39.8112 458.682,-33.2373 457.627,-44.1524 457.627,-44.1524"/>
</g>
<!-- Source&#45;&gt;Factor -->
<g id="edge4" class="edge"><title>Source&#45;&gt;Factor</title>
<path fill="none" stroke="#46c4a7" d="M432,-135.64C432,-130.063 432,-124.132 432,-118.476"/>
<ellipse fill="none" stroke="#46c4a7" cx="432" cy="-139.697" rx="4" ry="4"/>
<polygon fill="#46c4a7" stroke="#46c4a7" points="432,-118.104 436.5,-108.104 432,-113.104 432,-108.104 432,-108.104 432,-108.104 432,-113.104 427.5,-108.104 432,-118.104 432,-118.104"/>
</g>
<!-- Stem -->
<g id="node7" class="node"><title>Stem</title>
<ellipse fill="none" stroke="black" cx="512" cy="-90" rx="29.3722" ry="18"/>
<text text-anchor="middle" x="512" y="-86.3" font-family="Times,serif" font-size="14.00">Stem</text>
</g>
<!-- Stem&#45;&gt;Word -->
<g id="edge5" class="edge"><title>Stem&#45;&gt;Word</title>
<path fill="none" stroke="#0c4cd6" d="M498.62,-65.5853C494.764,-58.837 490.538,-51.441 486.611,-44.5692"/>
<ellipse fill="none" stroke="#0c4cd6" cx="500.738" cy="-69.2917" rx="4.00002" ry="4.00002"/>
<polygon fill="#0c4cd6" stroke="#0c4cd6" points="486.466,-44.3158 485.412,-33.4008 483.986,-39.9746 481.505,-35.6334 481.505,-35.6334 481.505,-35.6334 483.986,-39.9746 477.598,-37.866 486.466,-44.3158 486.466,-44.3158"/>
</g>
<!-- Topic -->
<g id="node8" class="node"><title>Topic</title>
<ellipse fill="none" stroke="black" cx="518" cy="-234" rx="31.2965" ry="18"/>
<text text-anchor="middle" x="518" y="-230.3" font-family="Times,serif" font-size="14.00">Topic</text>
</g>
<!-- Topic&#45;&gt;Source -->
<g id="edge6" class="edge"><title>Topic&#45;&gt;Source</title>
<path fill="none" stroke="#70f404" d="M494.046,-213.502C482.809,-204.356 469.398,-193.44 457.923,-184.101"/>
<ellipse fill="none" stroke="#70f404" cx="497.494" cy="-216.309" rx="4.00002" ry="4.00002"/>
<polygon fill="#70f404" stroke="#70f404" points="457.725,-183.939 452.81,-174.136 453.847,-180.783 449.97,-177.626 449.97,-177.626 449.97,-177.626 453.847,-180.783 447.129,-181.116 457.725,-183.939 457.725,-183.939"/>
</g>
<!-- User -->
<g id="node9" class="node"><title>User</title>
<ellipse fill="none" stroke="black" cx="432" cy="-327" rx="26.949" ry="18"/>
<text text-anchor="middle" x="432" y="-323.3" font-family="Times,serif" font-size="14.00">User</text>
</g>
<!-- User&#45;&gt;Dataset -->
<g id="edge7" class="edge"><title>User&#45;&gt;Dataset</title>
<path fill="none" stroke="#1f0561" d="M432,-300.729C432,-288.725 432,-274.362 432,-262.129"/>
<ellipse fill="none" stroke="#1f0561" cx="432" cy="-304.884" rx="4" ry="4"/>
<polygon fill="#1f0561" stroke="#1f0561" points="432,-262.04 436.5,-252.04 432,-257.04 432,-252.04 432,-252.04 432,-252.04 432,-257.04 427.5,-252.04 432,-262.04 432,-262.04"/>
</g>
</g>
</svg>
