<?xml version="1.0" encoding="UTF-8" standalone="no"?>
<!DOCTYPE svg PUBLIC "-//W3C//DTD SVG 1.1//EN"
 "http://www.w3.org/Graphics/SVG/1.1/DTD/svg11.dtd">
<!-- Generated by graphviz version 2.38.0 (20140413.2041)
 -->
<!-- Title: models_diagram Pages: 1 -->
<svg width="711pt" height="611pt"
 viewBox="0.00 0.00 710.84 611.00" xmlns="http://www.w3.org/2000/svg" xmlns:xlink="http://www.w3.org/1999/xlink">
<g id="graph0" class="graph" transform="scale(1 1) rotate(0) translate(4 607)">
<title>models_diagram</title>
<polygon fill="none" stroke="none" points="-4,4 -4,-607 706.843,-607 706.843,4 -4,4"/>
<!-- _diagram_info -->
<g id="node1" class="node"><title>_diagram_info</title>
<text text-anchor="start" x="92.5" y="-514.1" font-family="Times,serif" font-size="13.00">Models diagram</text>
<text text-anchor="start" x="92.5" y="-500.1" font-family="Times,serif" font-size="13.00">Date: Jun 22 2017 &#45; 15:02</text>
<text text-anchor="start" x="92.5" y="-486.1" font-family="Times,serif" font-size="13.00">Migration version: 20170621150442</text>
<text text-anchor="start" x="92.5" y="-472.1" font-family="Times,serif" font-size="13.00">Generated by RailRoady 1.5.3</text>
<text text-anchor="start" x="92.5" y="-458.1" font-family="Times,serif" font-size="13.00">http://railroady.prestonlee.com</text>
</g>
<!-- Author -->
<g id="node2" class="node"><title>Author</title>
<path fill="none" stroke="black" d="M12,-233.5C12,-233.5 155,-233.5 155,-233.5 161,-233.5 167,-239.5 167,-245.5 167,-245.5 167,-327.5 167,-327.5 167,-333.5 161,-339.5 155,-339.5 155,-339.5 12,-339.5 12,-339.5 6,-339.5 0,-333.5 0,-327.5 0,-327.5 0,-245.5 0,-245.5 0,-239.5 6,-233.5 12,-233.5"/>
<text text-anchor="middle" x="83.5" y="-324.3" font-family="Times,serif" font-size="14.00">Author</text>
<polyline fill="none" stroke="black" points="0,-316.5 167,-316.5 "/>
<text text-anchor="start" x="8" y="-301.3" font-family="Times,serif" font-size="14.00">id :bigint(20)</text>
<text text-anchor="start" x="8" y="-286.3" font-family="Times,serif" font-size="14.00">given_name :varchar(255)</text>
<text text-anchor="start" x="8" y="-271.3" font-family="Times,serif" font-size="14.00">family_name :varchar(255)</text>
<text text-anchor="start" x="8" y="-256.3" font-family="Times,serif" font-size="14.00">created_at :datetime</text>
<text text-anchor="start" x="8" y="-241.3" font-family="Times,serif" font-size="14.00">updated_at :datetime</text>
</g>
<!-- Source -->
<g id="node7" class="node"><title>Source</title>
<path fill="none" stroke="black" d="M187,-0.5C187,-0.5 338,-0.5 338,-0.5 344,-0.5 350,-6.5 350,-12.5 350,-12.5 350,-184.5 350,-184.5 350,-190.5 344,-196.5 338,-196.5 338,-196.5 187,-196.5 187,-196.5 181,-196.5 175,-190.5 175,-184.5 175,-184.5 175,-12.5 175,-12.5 175,-6.5 181,-0.5 187,-0.5"/>
<text text-anchor="middle" x="262.5" y="-181.3" font-family="Times,serif" font-size="14.00">Source</text>
<polyline fill="none" stroke="black" points="175,-173.5 350,-173.5 "/>
<text text-anchor="start" x="183" y="-158.3" font-family="Times,serif" font-size="14.00">id :bigint(20)</text>
<text text-anchor="start" x="183" y="-143.3" font-family="Times,serif" font-size="14.00">citation :varchar(255)</text>
<text text-anchor="start" x="183" y="-128.3" font-family="Times,serif" font-size="14.00">authors :varchar(255)</text>
<text text-anchor="start" x="183" y="-113.3" font-family="Times,serif" font-size="14.00">year :int(11)</text>
<text text-anchor="start" x="183" y="-98.3" font-family="Times,serif" font-size="14.00">purpose :varchar(255)</text>
<text text-anchor="start" x="183" y="-83.3" font-family="Times,serif" font-size="14.00">topic_id :bigint(20)</text>
<text text-anchor="start" x="183" y="-68.3" font-family="Times,serif" font-size="14.00">discard_reason :varchar(255)</text>
<text text-anchor="start" x="183" y="-53.3" font-family="Times,serif" font-size="14.00">created_at :datetime</text>
<text text-anchor="start" x="183" y="-38.3" font-family="Times,serif" font-size="14.00">updated_at :datetime</text>
<text text-anchor="start" x="183" y="-23.3" font-family="Times,serif" font-size="14.00">title :varchar(255)</text>
<text text-anchor="start" x="183" y="-8.3" font-family="Times,serif" font-size="14.00">dataset_id :bigint(20)</text>
</g>
<!-- Author&#45;&gt;Source -->
<g id="edge1" class="edge"><title>Author&#45;&gt;Source</title>
<path fill="none" stroke="#684957" d="M140.871,-225.885C149.537,-216.88 158.667,-207.394 167.869,-197.832"/>
<polygon fill="#684957" stroke="#684957" points="140.772,-225.988 130.595,-230.073 137.305,-229.591 133.838,-233.194 133.838,-233.194 133.838,-233.194 137.305,-229.591 137.08,-236.314 140.772,-225.988 140.772,-225.988"/>
<polygon fill="#684957" stroke="#684957" points="167.979,-197.717 178.156,-193.632 171.446,-194.115 174.913,-190.512 174.913,-190.512 174.913,-190.512 171.446,-194.115 171.671,-187.392 167.979,-197.717 167.979,-197.717"/>
</g>
<!-- Topic -->
<g id="node3" class="node"><title>Topic</title>
<path fill="none" stroke="black" d="M197.5,-233.5C197.5,-233.5 327.5,-233.5 327.5,-233.5 333.5,-233.5 339.5,-239.5 339.5,-245.5 339.5,-245.5 339.5,-327.5 339.5,-327.5 339.5,-333.5 333.5,-339.5 327.5,-339.5 327.5,-339.5 197.5,-339.5 197.5,-339.5 191.5,-339.5 185.5,-333.5 185.5,-327.5 185.5,-327.5 185.5,-245.5 185.5,-245.5 185.5,-239.5 191.5,-233.5 197.5,-233.5"/>
<text text-anchor="middle" x="262.5" y="-324.3" font-family="Times,serif" font-size="14.00">Topic</text>
<polyline fill="none" stroke="black" points="185.5,-316.5 339.5,-316.5 "/>
<text text-anchor="start" x="193.5" y="-301.3" font-family="Times,serif" font-size="14.00">id :bigint(20)</text>
<text text-anchor="start" x="193.5" y="-286.3" font-family="Times,serif" font-size="14.00">name :varchar(255)</text>
<text text-anchor="start" x="193.5" y="-271.3" font-family="Times,serif" font-size="14.00">description :varchar(255)</text>
<text text-anchor="start" x="193.5" y="-256.3" font-family="Times,serif" font-size="14.00">created_at :datetime</text>
<text text-anchor="start" x="193.5" y="-241.3" font-family="Times,serif" font-size="14.00">updated_at :datetime</text>
</g>
<!-- Topic&#45;&gt;Source -->
<g id="edge2" class="edge"><title>Topic&#45;&gt;Source</title>
<path fill="none" stroke="#7a1ea9" d="M262.5,-224.951C262.5,-219.1 262.5,-213.052 262.5,-206.919"/>
<ellipse fill="none" stroke="#7a1ea9" cx="262.5" cy="-229.194" rx="4" ry="4"/>
<polygon fill="#7a1ea9" stroke="#7a1ea9" points="262.5,-206.536 267,-196.536 262.5,-201.536 262.5,-196.536 262.5,-196.536 262.5,-196.536 262.5,-201.536 258,-196.536 262.5,-206.536 262.5,-206.536"/>
</g>
<!-- User -->
<g id="node4" class="node"><title>User</title>
<path fill="none" stroke="black" d="M328.5,-376.5C328.5,-376.5 518.5,-376.5 518.5,-376.5 524.5,-376.5 530.5,-382.5 530.5,-388.5 530.5,-388.5 530.5,-590.5 530.5,-590.5 530.5,-596.5 524.5,-602.5 518.5,-602.5 518.5,-602.5 328.5,-602.5 328.5,-602.5 322.5,-602.5 316.5,-596.5 316.5,-590.5 316.5,-590.5 316.5,-388.5 316.5,-388.5 316.5,-382.5 322.5,-376.5 328.5,-376.5"/>
<text text-anchor="middle" x="423.5" y="-587.3" font-family="Times,serif" font-size="14.00">User</text>
<polyline fill="none" stroke="black" points="316.5,-579.5 530.5,-579.5 "/>
<text text-anchor="start" x="324.5" y="-564.3" font-family="Times,serif" font-size="14.00">id :bigint(20)</text>
<text text-anchor="start" x="324.5" y="-549.3" font-family="Times,serif" font-size="14.00">email :varchar(255)</text>
<text text-anchor="start" x="324.5" y="-534.3" font-family="Times,serif" font-size="14.00">encrypted_password :varchar(255)</text>
<text text-anchor="start" x="324.5" y="-519.3" font-family="Times,serif" font-size="14.00">reset_password_token :varchar(255)</text>
<text text-anchor="start" x="324.5" y="-504.3" font-family="Times,serif" font-size="14.00">reset_password_sent_at :datetime</text>
<text text-anchor="start" x="324.5" y="-489.3" font-family="Times,serif" font-size="14.00">remember_created_at :datetime</text>
<text text-anchor="start" x="324.5" y="-474.3" font-family="Times,serif" font-size="14.00">sign_in_count :int(11)</text>
<text text-anchor="start" x="324.5" y="-459.3" font-family="Times,serif" font-size="14.00">current_sign_in_at :datetime</text>
<text text-anchor="start" x="324.5" y="-444.3" font-family="Times,serif" font-size="14.00">last_sign_in_at :datetime</text>
<text text-anchor="start" x="324.5" y="-429.3" font-family="Times,serif" font-size="14.00">current_sign_in_ip :varchar(255)</text>
<text text-anchor="start" x="324.5" y="-414.3" font-family="Times,serif" font-size="14.00">last_sign_in_ip :varchar(255)</text>
<text text-anchor="start" x="324.5" y="-399.3" font-family="Times,serif" font-size="14.00">created_at :datetime</text>
<text text-anchor="start" x="324.5" y="-384.3" font-family="Times,serif" font-size="14.00">updated_at :datetime</text>
</g>
<!-- Dataset -->
<g id="node5" class="node"><title>Dataset</title>
<path fill="none" stroke="black" d="M370,-233.5C370,-233.5 477,-233.5 477,-233.5 483,-233.5 489,-239.5 489,-245.5 489,-245.5 489,-327.5 489,-327.5 489,-333.5 483,-339.5 477,-339.5 477,-339.5 370,-339.5 370,-339.5 364,-339.5 358,-333.5 358,-327.5 358,-327.5 358,-245.5 358,-245.5 358,-239.5 364,-233.5 370,-233.5"/>
<text text-anchor="middle" x="423.5" y="-324.3" font-family="Times,serif" font-size="14.00">Dataset</text>
<polyline fill="none" stroke="black" points="358,-316.5 489,-316.5 "/>
<text text-anchor="start" x="366" y="-301.3" font-family="Times,serif" font-size="14.00">id :bigint(20)</text>
<text text-anchor="start" x="366" y="-286.3" font-family="Times,serif" font-size="14.00">name :varchar(255)</text>
<text text-anchor="start" x="366" y="-271.3" font-family="Times,serif" font-size="14.00">user_id :bigint(20)</text>
<text text-anchor="start" x="366" y="-256.3" font-family="Times,serif" font-size="14.00">created_at :datetime</text>
<text text-anchor="start" x="366" y="-241.3" font-family="Times,serif" font-size="14.00">updated_at :datetime</text>
</g>
<!-- User&#45;&gt;Dataset -->
<g id="edge3" class="edge"><title>User&#45;&gt;Dataset</title>
<path fill="none" stroke="#5633e2" d="M423.5,-368.208C423.5,-361.983 423.5,-355.863 423.5,-349.949"/>
<ellipse fill="none" stroke="#5633e2" cx="423.5" cy="-372.247" rx="4" ry="4"/>
<polygon fill="#5633e2" stroke="#5633e2" points="423.5,-349.548 428,-339.548 423.5,-344.548 423.5,-339.548 423.5,-339.548 423.5,-339.548 423.5,-344.548 419,-339.548 423.5,-349.548 423.5,-349.548"/>
</g>
<!-- Dataset&#45;&gt;Source -->
<g id="edge4" class="edge"><title>Dataset&#45;&gt;Source</title>
<path fill="none" stroke="#9db2ec" d="M372.777,-226.901C366.473,-219.618 359.885,-212.007 353.202,-204.286"/>
<ellipse fill="none" stroke="#9db2ec" cx="375.606" cy="-230.169" rx="4.00002" ry="4.00002"/>
<polygon fill="#9db2ec" stroke="#9db2ec" points="353.038,-204.097 349.896,-193.591 349.766,-200.316 346.493,-196.536 346.493,-196.536 346.493,-196.536 349.766,-200.316 343.091,-199.481 353.038,-204.097 353.038,-204.097"/>
</g>
<!-- ApplicationRecord -->
<g id="node6" class="node"><title>ApplicationRecord</title>
<ellipse fill="none" stroke="black" cx="625.5" cy="-489.5" rx="77.1866" ry="18"/>
<text text-anchor="middle" x="625.5" y="-485.8" font-family="Times,serif" font-size="14.00">ApplicationRecord</text>
</g>
</g>
</svg>
