<?xml version="1.0" encoding="UTF-8" standalone="no"?>
<!DOCTYPE svg PUBLIC "-//W3C//DTD SVG 1.1//EN"
 "http://www.w3.org/Graphics/SVG/1.1/DTD/svg11.dtd">
<!-- Generated by graphviz version 2.36.0 (20140111.2315)
 -->
<!-- Title: models_diagram Pages: 1 -->
<svg width="626pt" height="1004pt"
 viewBox="0.00 0.00 626.00 1004.00" xmlns="http://www.w3.org/2000/svg" xmlns:xlink="http://www.w3.org/1999/xlink">
<g id="graph0" class="graph" transform="scale(1 1) rotate(0) translate(4 1000)">
<title>models_diagram</title>
<polygon fill="none" stroke="none" points="-4,4 -4,-1000 622,-1000 622,4 -4,4"/>
<!-- _diagram_info -->
<g id="node1" class="node"><title>_diagram_info</title>
<text text-anchor="start" x="8" y="-884.6" font-family="Times,serif" font-size="13.00">Models diagram</text>
<text text-anchor="start" x="8" y="-870.6" font-family="Times,serif" font-size="13.00">Date: Aug 04 2017 &#45; 10:05</text>
<text text-anchor="start" x="8" y="-856.6" font-family="Times,serif" font-size="13.00">Migration version: 20170725141651</text>
<text text-anchor="start" x="8" y="-842.6" font-family="Times,serif" font-size="13.00">Generated by RailRoady 1.5.3</text>
<text text-anchor="start" x="8" y="-828.6" font-family="Times,serif" font-size="13.00">http://railroady.prestonlee.com</text>
</g>
<!-- ApplicationRecord -->
<g id="node2" class="node"><title>ApplicationRecord</title>
<ellipse fill="none" stroke="black" cx="309" cy="-860" rx="77.0154" ry="18"/>
<text text-anchor="middle" x="309" y="-856.3" font-family="Times,serif" font-size="14.00">ApplicationRecord</text>
</g>
<!-- Author -->
<g id="node3" class="node"><title>Author</title>
<path fill="none" stroke="black" d="M99.5,-574C99.5,-574 242.5,-574 242.5,-574 248.5,-574 254.5,-580 254.5,-586 254.5,-586 254.5,-668 254.5,-668 254.5,-674 248.5,-680 242.5,-680 242.5,-680 99.5,-680 99.5,-680 93.5,-680 87.5,-674 87.5,-668 87.5,-668 87.5,-586 87.5,-586 87.5,-580 93.5,-574 99.5,-574"/>
<text text-anchor="middle" x="171" y="-664.8" font-family="Times,serif" font-size="14.00">Author</text>
<polyline fill="none" stroke="black" points="87.5,-657 254.5,-657 "/>
<text text-anchor="start" x="95.5" y="-641.8" font-family="Times,serif" font-size="14.00">id :bigint(20)</text>
<text text-anchor="start" x="95.5" y="-626.8" font-family="Times,serif" font-size="14.00">given_name :varchar(255)</text>
<text text-anchor="start" x="95.5" y="-611.8" font-family="Times,serif" font-size="14.00">family_name :varchar(255)</text>
<text text-anchor="start" x="95.5" y="-596.8" font-family="Times,serif" font-size="14.00">created_at :datetime</text>
<text text-anchor="start" x="95.5" y="-581.8" font-family="Times,serif" font-size="14.00">updated_at :datetime</text>
</g>
<!-- Source -->
<g id="node6" class="node"><title>Source</title>
<path fill="none" stroke="black" d="M277.5,-303C277.5,-303 428.5,-303 428.5,-303 434.5,-303 440.5,-309 440.5,-315 440.5,-315 440.5,-517 440.5,-517 440.5,-523 434.5,-529 428.5,-529 428.5,-529 277.5,-529 277.5,-529 271.5,-529 265.5,-523 265.5,-517 265.5,-517 265.5,-315 265.5,-315 265.5,-309 271.5,-303 277.5,-303"/>
<text text-anchor="middle" x="353" y="-513.8" font-family="Times,serif" font-size="14.00">Source</text>
<polyline fill="none" stroke="black" points="265.5,-506 440.5,-506 "/>
<text text-anchor="start" x="273.5" y="-490.8" font-family="Times,serif" font-size="14.00">id :bigint(20)</text>
<text text-anchor="start" x="273.5" y="-475.8" font-family="Times,serif" font-size="14.00">citation :text</text>
<text text-anchor="start" x="273.5" y="-460.8" font-family="Times,serif" font-size="14.00">author_list :varchar(255)</text>
<text text-anchor="start" x="273.5" y="-445.8" font-family="Times,serif" font-size="14.00">year :int(11)</text>
<text text-anchor="start" x="273.5" y="-430.8" font-family="Times,serif" font-size="14.00">purpose :varchar(255)</text>
<text text-anchor="start" x="273.5" y="-415.8" font-family="Times,serif" font-size="14.00">topic_id :bigint(20)</text>
<text text-anchor="start" x="273.5" y="-400.8" font-family="Times,serif" font-size="14.00">discard_reason :varchar(255)</text>
<text text-anchor="start" x="273.5" y="-385.8" font-family="Times,serif" font-size="14.00">created_at :datetime</text>
<text text-anchor="start" x="273.5" y="-370.8" font-family="Times,serif" font-size="14.00">updated_at :datetime</text>
<text text-anchor="start" x="273.5" y="-355.8" font-family="Times,serif" font-size="14.00">title :text</text>
<text text-anchor="start" x="273.5" y="-340.8" font-family="Times,serif" font-size="14.00">dataset_id :bigint(20)</text>
<text text-anchor="start" x="273.5" y="-325.8" font-family="Times,serif" font-size="14.00">processed :tinyint(1)</text>
<text text-anchor="start" x="273.5" y="-310.8" font-family="Times,serif" font-size="14.00">refs_processed :tinyint(1)</text>
</g>
<!-- Author&#45;&gt;Source -->
<g id="edge1" class="edge"><title>Author&#45;&gt;Source</title>
<path fill="none" stroke="#0b8e07" d="M223.204,-566.051C234.299,-553.311 246.34,-539.484 258.465,-525.56"/>
<polygon fill="#0b8e07" stroke="#0b8e07" points="223.024,-566.258 213.063,-570.844 219.74,-570.029 216.457,-573.8 216.457,-573.8 216.457,-573.8 219.74,-570.029 219.85,-576.755 223.024,-566.258 223.024,-566.258"/>
<polygon fill="#0b8e07" stroke="#0b8e07" points="258.637,-525.362 268.597,-520.776 261.92,-521.592 265.204,-517.821 265.204,-517.821 265.204,-517.821 261.92,-521.592 261.81,-514.866 258.637,-525.362 258.637,-525.362"/>
</g>
<!-- Dataset -->
<g id="node4" class="node"><title>Dataset</title>
<path fill="none" stroke="black" d="M457.5,-566.5C457.5,-566.5 564.5,-566.5 564.5,-566.5 570.5,-566.5 576.5,-572.5 576.5,-578.5 576.5,-578.5 576.5,-675.5 576.5,-675.5 576.5,-681.5 570.5,-687.5 564.5,-687.5 564.5,-687.5 457.5,-687.5 457.5,-687.5 451.5,-687.5 445.5,-681.5 445.5,-675.5 445.5,-675.5 445.5,-578.5 445.5,-578.5 445.5,-572.5 451.5,-566.5 457.5,-566.5"/>
<text text-anchor="middle" x="511" y="-672.3" font-family="Times,serif" font-size="14.00">Dataset</text>
<polyline fill="none" stroke="black" points="445.5,-664.5 576.5,-664.5 "/>
<text text-anchor="start" x="453.5" y="-649.3" font-family="Times,serif" font-size="14.00">id :bigint(20)</text>
<text text-anchor="start" x="453.5" y="-634.3" font-family="Times,serif" font-size="14.00">name :varchar(255)</text>
<text text-anchor="start" x="453.5" y="-619.3" font-family="Times,serif" font-size="14.00">user_id :bigint(20)</text>
<text text-anchor="start" x="453.5" y="-604.3" font-family="Times,serif" font-size="14.00">created_at :datetime</text>
<text text-anchor="start" x="453.5" y="-589.3" font-family="Times,serif" font-size="14.00">updated_at :datetime</text>
<text text-anchor="start" x="453.5" y="-574.3" font-family="Times,serif" font-size="14.00">load_pct :int(11)</text>
</g>
<!-- Factor -->
<g id="node5" class="node"><title>Factor</title>
<path fill="none" stroke="black" d="M303.5,-144.5C303.5,-144.5 410.5,-144.5 410.5,-144.5 416.5,-144.5 422.5,-150.5 422.5,-156.5 422.5,-156.5 422.5,-253.5 422.5,-253.5 422.5,-259.5 416.5,-265.5 410.5,-265.5 410.5,-265.5 303.5,-265.5 303.5,-265.5 297.5,-265.5 291.5,-259.5 291.5,-253.5 291.5,-253.5 291.5,-156.5 291.5,-156.5 291.5,-150.5 297.5,-144.5 303.5,-144.5"/>
<text text-anchor="middle" x="357" y="-250.3" font-family="Times,serif" font-size="14.00">Factor</text>
<polyline fill="none" stroke="black" points="291.5,-242.5 422.5,-242.5 "/>
<text text-anchor="start" x="299.5" y="-227.3" font-family="Times,serif" font-size="14.00">id :bigint(20)</text>
<text text-anchor="start" x="299.5" y="-212.3" font-family="Times,serif" font-size="14.00">source_id :bigint(20)</text>
<text text-anchor="start" x="299.5" y="-197.3" font-family="Times,serif" font-size="14.00">text :text</text>
<text text-anchor="start" x="299.5" y="-182.3" font-family="Times,serif" font-size="14.00">created_at :datetime</text>
<text text-anchor="start" x="299.5" y="-167.3" font-family="Times,serif" font-size="14.00">updated_at :datetime</text>
<text text-anchor="start" x="299.5" y="-152.3" font-family="Times,serif" font-size="14.00">unverified :text</text>
</g>
<!-- Dataset&#45;&gt;Factor -->
<g id="edge3" class="edge"><title>Dataset&#45;&gt;Factor</title>
<path fill="none" stroke="#1cd300" d="M502.36,-556.178C491.453,-474.635 471.393,-345.372 449,-302 443.622,-291.584 436.758,-281.523 429.208,-272.085"/>
<polygon fill="#1cd300" stroke="#1cd300" points="502.396,-556.455 499.247,-566.959 503.052,-561.411 503.708,-566.368 503.708,-566.368 503.708,-566.368 503.052,-561.411 508.169,-565.778 502.396,-556.455 502.396,-556.455"/>
<polygon fill="#1cd300" stroke="#1cd300" points="429.129,-271.99 426.179,-261.428 425.926,-268.15 422.723,-264.311 422.723,-264.311 422.723,-264.311 425.926,-268.15 419.268,-267.193 429.129,-271.99 429.129,-271.99"/>
</g>
<!-- Dataset&#45;&gt;Source -->
<g id="edge2" class="edge"><title>Dataset&#45;&gt;Source</title>
<path fill="none" stroke="#1062ce" d="M461.101,-559.994C455.631,-552.758 449.944,-545.236 444.168,-537.596"/>
<ellipse fill="none" stroke="#1062ce" cx="463.523" cy="-563.198" rx="4.00002" ry="4.00002"/>
<polygon fill="#1062ce" stroke="#1062ce" points="443.903,-537.245 441.462,-526.554 440.887,-533.256 437.872,-529.268 437.872,-529.268 437.872,-529.268 440.887,-533.256 434.282,-531.981 443.903,-537.245 443.903,-537.245"/>
</g>
<!-- Stem -->
<g id="node7" class="node"><title>Stem</title>
<path fill="none" stroke="black" d="M452.5,-159.5C452.5,-159.5 559.5,-159.5 559.5,-159.5 565.5,-159.5 571.5,-165.5 571.5,-171.5 571.5,-171.5 571.5,-238.5 571.5,-238.5 571.5,-244.5 565.5,-250.5 559.5,-250.5 559.5,-250.5 452.5,-250.5 452.5,-250.5 446.5,-250.5 440.5,-244.5 440.5,-238.5 440.5,-238.5 440.5,-171.5 440.5,-171.5 440.5,-165.5 446.5,-159.5 452.5,-159.5"/>
<text text-anchor="middle" x="506" y="-235.3" font-family="Times,serif" font-size="14.00">Stem</text>
<polyline fill="none" stroke="black" points="440.5,-227.5 571.5,-227.5 "/>
<text text-anchor="start" x="448.5" y="-212.3" font-family="Times,serif" font-size="14.00">id :bigint(20)</text>
<text text-anchor="start" x="448.5" y="-197.3" font-family="Times,serif" font-size="14.00">word :varchar(255)</text>
<text text-anchor="start" x="448.5" y="-182.3" font-family="Times,serif" font-size="14.00">created_at :datetime</text>
<text text-anchor="start" x="448.5" y="-167.3" font-family="Times,serif" font-size="14.00">updated_at :datetime</text>
</g>
<!-- Dataset&#45;&gt;Stem -->
<g id="edge5" class="edge"><title>Dataset&#45;&gt;Stem</title>
<path fill="none" stroke="#503e30" d="M510.17,-556.248C509.183,-473.369 507.557,-336.806 506.655,-261.01"/>
<polygon fill="#503e30" stroke="#503e30" points="510.17,-556.271 505.789,-566.324 510.229,-561.271 510.289,-566.27 510.289,-566.27 510.289,-566.27 510.229,-561.271 514.789,-566.217 510.17,-556.271 510.17,-556.271"/>
<polygon fill="#503e30" stroke="#503e30" points="506.652,-260.729 511.032,-250.676 506.592,-255.729 506.532,-250.73 506.532,-250.73 506.532,-250.73 506.592,-255.729 502.033,-250.783 506.652,-260.729 506.652,-260.729"/>
</g>
<!-- Word -->
<g id="node10" class="node"><title>Word</title>
<path fill="none" stroke="black" d="M452.5,-1C452.5,-1 559.5,-1 559.5,-1 565.5,-1 571.5,-7 571.5,-13 571.5,-13 571.5,-95 571.5,-95 571.5,-101 565.5,-107 559.5,-107 559.5,-107 452.5,-107 452.5,-107 446.5,-107 440.5,-101 440.5,-95 440.5,-95 440.5,-13 440.5,-13 440.5,-7 446.5,-1 452.5,-1"/>
<text text-anchor="middle" x="506" y="-91.8" font-family="Times,serif" font-size="14.00">Word</text>
<polyline fill="none" stroke="black" points="440.5,-84 571.5,-84 "/>
<text text-anchor="start" x="448.5" y="-68.8" font-family="Times,serif" font-size="14.00">id :bigint(20)</text>
<text text-anchor="start" x="448.5" y="-53.8" font-family="Times,serif" font-size="14.00">raw :varchar(255)</text>
<text text-anchor="start" x="448.5" y="-38.8" font-family="Times,serif" font-size="14.00">stem_id :bigint(20)</text>
<text text-anchor="start" x="448.5" y="-23.8" font-family="Times,serif" font-size="14.00">created_at :datetime</text>
<text text-anchor="start" x="448.5" y="-8.8" font-family="Times,serif" font-size="14.00">updated_at :datetime</text>
</g>
<!-- Dataset&#45;&gt;Word -->
<g id="edge4" class="edge"><title>Dataset&#45;&gt;Word</title>
<path fill="none" stroke="#8acaaa" d="M541.235,-556.704C578.449,-461.113 630.836,-284.655 580,-144 576.429,-134.118 571.229,-124.56 565.215,-115.606"/>
<polygon fill="#8acaaa" stroke="#8acaaa" points="541.133,-556.962 533.274,-564.609 539.296,-561.612 537.459,-566.262 537.459,-566.262 537.459,-566.262 539.296,-561.612 541.644,-567.916 541.133,-556.962 541.133,-556.962"/>
<polygon fill="#8acaaa" stroke="#8acaaa" points="565.035,-115.355 562.889,-104.601 562.131,-111.285 559.226,-107.215 559.226,-107.215 559.226,-107.215 562.131,-111.285 555.563,-109.829 565.035,-115.355 565.035,-115.355"/>
</g>
<!-- Factor&#45;&gt;Word -->
<g id="edge6" class="edge"><title>Factor&#45;&gt;Word</title>
<path fill="none" stroke="#4b202b" d="M424.01,-136.99C431.536,-129.464 439.165,-121.835 446.586,-114.414"/>
<polygon fill="#4b202b" stroke="#4b202b" points="423.817,-137.183 413.563,-141.073 420.281,-140.719 416.745,-144.255 416.745,-144.255 416.745,-144.255 420.281,-140.719 419.927,-147.437 423.817,-137.183 423.817,-137.183"/>
<polygon fill="#4b202b" stroke="#4b202b" points="446.855,-114.145 457.108,-110.256 450.391,-110.609 453.926,-107.074 453.926,-107.074 453.926,-107.074 450.391,-110.609 450.744,-103.892 446.855,-114.145 446.855,-114.145"/>
</g>
<!-- Source&#45;&gt;Factor -->
<g id="edge7" class="edge"><title>Source&#45;&gt;Factor</title>
<path fill="none" stroke="#fdc41f" d="M355.301,-294.791C355.423,-288.38 355.545,-282.049 355.662,-275.899"/>
<ellipse fill="none" stroke="#fdc41f" cx="355.223" cy="-298.853" rx="4" ry="4"/>
<polygon fill="#fdc41f" stroke="#fdc41f" points="355.665,-275.734 360.356,-265.822 355.761,-270.735 355.857,-265.736 355.857,-265.736 355.857,-265.736 355.761,-270.735 351.358,-265.65 355.665,-275.734 355.665,-275.734"/>
</g>
<!-- Stem&#45;&gt;Word -->
<g id="edge8" class="edge"><title>Stem&#45;&gt;Word</title>
<path fill="none" stroke="#444e15" d="M506,-151.025C506,-140.073 506,-128.443 506,-117.197"/>
<ellipse fill="none" stroke="#444e15" cx="506" cy="-155.295" rx="4" ry="4"/>
<polygon fill="#444e15" stroke="#444e15" points="506,-117.008 510.5,-107.008 506,-112.008 506,-107.008 506,-107.008 506,-107.008 506,-112.008 501.5,-107.008 506,-117.008 506,-117.008"/>
</g>
<!-- Topic -->
<g id="node8" class="node"><title>Topic</title>
<path fill="none" stroke="black" d="M285,-574C285,-574 415,-574 415,-574 421,-574 427,-580 427,-586 427,-586 427,-668 427,-668 427,-674 421,-680 415,-680 415,-680 285,-680 285,-680 279,-680 273,-674 273,-668 273,-668 273,-586 273,-586 273,-580 279,-574 285,-574"/>
<text text-anchor="middle" x="350" y="-664.8" font-family="Times,serif" font-size="14.00">Topic</text>
<polyline fill="none" stroke="black" points="273,-657 427,-657 "/>
<text text-anchor="start" x="281" y="-641.8" font-family="Times,serif" font-size="14.00">id :bigint(20)</text>
<text text-anchor="start" x="281" y="-626.8" font-family="Times,serif" font-size="14.00">name :varchar(255)</text>
<text text-anchor="start" x="281" y="-611.8" font-family="Times,serif" font-size="14.00">description :varchar(255)</text>
<text text-anchor="start" x="281" y="-596.8" font-family="Times,serif" font-size="14.00">created_at :datetime</text>
<text text-anchor="start" x="281" y="-581.8" font-family="Times,serif" font-size="14.00">updated_at :datetime</text>
</g>
<!-- Topic&#45;&gt;Source -->
<g id="edge9" class="edge"><title>Topic&#45;&gt;Source</title>
<path fill="none" stroke="#d07f7e" d="M350.867,-565.621C350.986,-557.296 351.112,-548.515 351.241,-539.55"/>
<ellipse fill="none" stroke="#d07f7e" cx="350.807" cy="-569.8" rx="4" ry="4"/>
<polygon fill="#d07f7e" stroke="#d07f7e" points="351.243,-539.365 355.887,-529.431 351.315,-534.366 351.387,-529.366 351.387,-529.366 351.387,-529.366 351.315,-534.366 346.888,-529.301 351.243,-539.365 351.243,-539.365"/>
</g>
<!-- User -->
<g id="node9" class="node"><title>User</title>
<path fill="none" stroke="black" d="M416,-724.5C416,-724.5 606,-724.5 606,-724.5 612,-724.5 618,-730.5 618,-736.5 618,-736.5 618,-983.5 618,-983.5 618,-989.5 612,-995.5 606,-995.5 606,-995.5 416,-995.5 416,-995.5 410,-995.5 404,-989.5 404,-983.5 404,-983.5 404,-736.5 404,-736.5 404,-730.5 410,-724.5 416,-724.5"/>
<text text-anchor="middle" x="511" y="-980.3" font-family="Times,serif" font-size="14.00">User</text>
<polyline fill="none" stroke="black" points="404,-972.5 618,-972.5 "/>
<text text-anchor="start" x="412" y="-957.3" font-family="Times,serif" font-size="14.00">id :bigint(20)</text>
<text text-anchor="start" x="412" y="-942.3" font-family="Times,serif" font-size="14.00">email :varchar(255)</text>
<text text-anchor="start" x="412" y="-927.3" font-family="Times,serif" font-size="14.00">encrypted_password :varchar(255)</text>
<text text-anchor="start" x="412" y="-912.3" font-family="Times,serif" font-size="14.00">reset_password_token :varchar(255)</text>
<text text-anchor="start" x="412" y="-897.3" font-family="Times,serif" font-size="14.00">reset_password_sent_at :datetime</text>
<text text-anchor="start" x="412" y="-882.3" font-family="Times,serif" font-size="14.00">remember_created_at :datetime</text>
<text text-anchor="start" x="412" y="-867.3" font-family="Times,serif" font-size="14.00">sign_in_count :int(11)</text>
<text text-anchor="start" x="412" y="-852.3" font-family="Times,serif" font-size="14.00">current_sign_in_at :datetime</text>
<text text-anchor="start" x="412" y="-837.3" font-family="Times,serif" font-size="14.00">last_sign_in_at :datetime</text>
<text text-anchor="start" x="412" y="-822.3" font-family="Times,serif" font-size="14.00">current_sign_in_ip :varchar(255)</text>
<text text-anchor="start" x="412" y="-807.3" font-family="Times,serif" font-size="14.00">last_sign_in_ip :varchar(255)</text>
<text text-anchor="start" x="412" y="-792.3" font-family="Times,serif" font-size="14.00">created_at :datetime</text>
<text text-anchor="start" x="412" y="-777.3" font-family="Times,serif" font-size="14.00">updated_at :datetime</text>
<text text-anchor="start" x="412" y="-762.3" font-family="Times,serif" font-size="14.00">token :text</text>
<text text-anchor="start" x="412" y="-747.3" font-family="Times,serif" font-size="14.00">refresh_token :text</text>
<text text-anchor="start" x="412" y="-732.3" font-family="Times,serif" font-size="14.00">expires_at :int(11)</text>
</g>
<!-- User&#45;&gt;Dataset -->
<g id="edge10" class="edge"><title>User&#45;&gt;Dataset</title>
<path fill="none" stroke="#501cf9" d="M511,-716.26C511,-710.044 511,-703.939 511,-698.023"/>
<ellipse fill="none" stroke="#501cf9" cx="511" cy="-720.292" rx="4" ry="4"/>
<polygon fill="#501cf9" stroke="#501cf9" points="511,-697.597 515.5,-687.597 511,-692.597 511,-687.597 511,-687.597 511,-687.597 511,-692.597 506.5,-687.597 511,-697.597 511,-697.597"/>
</g>
</g>
</svg>
