<?xml version="1.0" encoding="UTF-8" standalone="no"?>
<!DOCTYPE svg PUBLIC "-//W3C//DTD SVG 1.1//EN"
 "http://www.w3.org/Graphics/SVG/1.1/DTD/svg11.dtd">
<!-- Generated by graphviz version 2.36.0 (20140111.2315)
 -->
<!-- Title: models_diagram Pages: 1 -->
<svg width="757pt" height="686pt"
 viewBox="0.00 0.00 757.00 686.00" xmlns="http://www.w3.org/2000/svg" xmlns:xlink="http://www.w3.org/1999/xlink">
<g id="graph0" class="graph" transform="scale(1 1) rotate(0) translate(4 682)">
<title>models_diagram</title>
<polygon fill="none" stroke="none" points="-4,4 -4,-682 753,-682 753,4 -4,4"/>
<!-- _diagram_info -->
<g id="node1" class="node"><title>_diagram_info</title>
<text text-anchor="start" x="8" y="-588.6" font-family="Times,serif" font-size="13.00">Models diagram</text>
<text text-anchor="start" x="8" y="-574.6" font-family="Times,serif" font-size="13.00">Date: Jun 26 2017 &#45; 08:56</text>
<text text-anchor="start" x="8" y="-560.6" font-family="Times,serif" font-size="13.00">Migration version: 20170625055802</text>
<text text-anchor="start" x="8" y="-546.6" font-family="Times,serif" font-size="13.00">Generated by RailRoady 1.5.3</text>
<text text-anchor="start" x="8" y="-532.6" font-family="Times,serif" font-size="13.00">http://railroady.prestonlee.com</text>
</g>
<!-- ApplicationRecord -->
<g id="node2" class="node"><title>ApplicationRecord</title>
<ellipse fill="none" stroke="black" cx="309" cy="-564" rx="77.0154" ry="18"/>
<text text-anchor="middle" x="309" y="-560.3" font-family="Times,serif" font-size="14.00">ApplicationRecord</text>
</g>
<!-- Author -->
<g id="node3" class="node"><title>Author</title>
<path fill="none" stroke="black" d="M272.5,-307C272.5,-307 415.5,-307 415.5,-307 421.5,-307 427.5,-313 427.5,-319 427.5,-319 427.5,-401 427.5,-401 427.5,-407 421.5,-413 415.5,-413 415.5,-413 272.5,-413 272.5,-413 266.5,-413 260.5,-407 260.5,-401 260.5,-401 260.5,-319 260.5,-319 260.5,-313 266.5,-307 272.5,-307"/>
<text text-anchor="middle" x="344" y="-397.8" font-family="Times,serif" font-size="14.00">Author</text>
<polyline fill="none" stroke="black" points="260.5,-390 427.5,-390 "/>
<text text-anchor="start" x="268.5" y="-374.8" font-family="Times,serif" font-size="14.00">id :bigint(20)</text>
<text text-anchor="start" x="268.5" y="-359.8" font-family="Times,serif" font-size="14.00">given_name :varchar(255)</text>
<text text-anchor="start" x="268.5" y="-344.8" font-family="Times,serif" font-size="14.00">family_name :varchar(255)</text>
<text text-anchor="start" x="268.5" y="-329.8" font-family="Times,serif" font-size="14.00">created_at :datetime</text>
<text text-anchor="start" x="268.5" y="-314.8" font-family="Times,serif" font-size="14.00">updated_at :datetime</text>
</g>
<!-- Source -->
<g id="node5" class="node"><title>Source</title>
<path fill="none" stroke="black" d="M435.5,-73C435.5,-73 586.5,-73 586.5,-73 592.5,-73 598.5,-79 598.5,-85 598.5,-85 598.5,-257 598.5,-257 598.5,-263 592.5,-269 586.5,-269 586.5,-269 435.5,-269 435.5,-269 429.5,-269 423.5,-263 423.5,-257 423.5,-257 423.5,-85 423.5,-85 423.5,-79 429.5,-73 435.5,-73"/>
<text text-anchor="middle" x="511" y="-253.8" font-family="Times,serif" font-size="14.00">Source</text>
<polyline fill="none" stroke="black" points="423.5,-246 598.5,-246 "/>
<text text-anchor="start" x="431.5" y="-230.8" font-family="Times,serif" font-size="14.00">id :bigint(20)</text>
<text text-anchor="start" x="431.5" y="-215.8" font-family="Times,serif" font-size="14.00">citation :varchar(255)</text>
<text text-anchor="start" x="431.5" y="-200.8" font-family="Times,serif" font-size="14.00">author_list :varchar(255)</text>
<text text-anchor="start" x="431.5" y="-185.8" font-family="Times,serif" font-size="14.00">year :int(11)</text>
<text text-anchor="start" x="431.5" y="-170.8" font-family="Times,serif" font-size="14.00">purpose :varchar(255)</text>
<text text-anchor="start" x="431.5" y="-155.8" font-family="Times,serif" font-size="14.00">topic_id :bigint(20)</text>
<text text-anchor="start" x="431.5" y="-140.8" font-family="Times,serif" font-size="14.00">discard_reason :varchar(255)</text>
<text text-anchor="start" x="431.5" y="-125.8" font-family="Times,serif" font-size="14.00">created_at :datetime</text>
<text text-anchor="start" x="431.5" y="-110.8" font-family="Times,serif" font-size="14.00">updated_at :datetime</text>
<text text-anchor="start" x="431.5" y="-95.8" font-family="Times,serif" font-size="14.00">title :varchar(255)</text>
<text text-anchor="start" x="431.5" y="-80.8" font-family="Times,serif" font-size="14.00">dataset_id :bigint(20)</text>
</g>
<!-- Author&#45;&gt;Source -->
<g id="edge1" class="edge"><title>Author&#45;&gt;Source</title>
<path fill="none" stroke="#19de49" d="M397.298,-299.319C403.745,-292.099 410.47,-284.569 417.287,-276.936"/>
<polygon fill="#19de49" stroke="#19de49" points="397.18,-299.451 387.162,-303.913 393.849,-303.181 390.519,-306.91 390.519,-306.91 390.519,-306.91 393.849,-303.181 393.875,-309.908 397.18,-299.451 397.18,-299.451"/>
<polygon fill="#19de49" stroke="#19de49" points="417.467,-276.735 427.484,-272.274 420.797,-273.006 424.128,-269.276 424.128,-269.276 424.128,-269.276 420.797,-273.006 420.771,-266.279 417.467,-276.735 417.467,-276.735"/>
</g>
<!-- Dataset -->
<g id="node4" class="node"><title>Dataset</title>
<path fill="none" stroke="black" d="M457.5,-307C457.5,-307 564.5,-307 564.5,-307 570.5,-307 576.5,-313 576.5,-319 576.5,-319 576.5,-401 576.5,-401 576.5,-407 570.5,-413 564.5,-413 564.5,-413 457.5,-413 457.5,-413 451.5,-413 445.5,-407 445.5,-401 445.5,-401 445.5,-319 445.5,-319 445.5,-313 451.5,-307 457.5,-307"/>
<text text-anchor="middle" x="511" y="-397.8" font-family="Times,serif" font-size="14.00">Dataset</text>
<polyline fill="none" stroke="black" points="445.5,-390 576.5,-390 "/>
<text text-anchor="start" x="453.5" y="-374.8" font-family="Times,serif" font-size="14.00">id :bigint(20)</text>
<text text-anchor="start" x="453.5" y="-359.8" font-family="Times,serif" font-size="14.00">name :varchar(255)</text>
<text text-anchor="start" x="453.5" y="-344.8" font-family="Times,serif" font-size="14.00">user_id :bigint(20)</text>
<text text-anchor="start" x="453.5" y="-329.8" font-family="Times,serif" font-size="14.00">created_at :datetime</text>
<text text-anchor="start" x="453.5" y="-314.8" font-family="Times,serif" font-size="14.00">updated_at :datetime</text>
</g>
<!-- Dataset&#45;&gt;Source -->
<g id="edge2" class="edge"><title>Dataset&#45;&gt;Source</title>
<path fill="none" stroke="#e0848a" d="M511,-298.746C511,-292.54 511,-286.11 511,-279.586"/>
<ellipse fill="none" stroke="#e0848a" cx="511" cy="-302.91" rx="4" ry="4"/>
<polygon fill="#e0848a" stroke="#e0848a" points="511,-279.276 515.5,-269.276 511,-274.276 511,-269.276 511,-269.276 511,-269.276 511,-274.276 506.5,-269.276 511,-279.276 511,-279.276"/>
</g>
<!-- Factor -->
<g id="node8" class="node"><title>Factor</title>
<ellipse fill="none" stroke="black" cx="511" cy="-18" rx="33.2209" ry="18"/>
<text text-anchor="middle" x="511" y="-14.3" font-family="Times,serif" font-size="14.00">Factor</text>
</g>
<!-- Source&#45;&gt;Factor -->
<g id="edge3" class="edge"><title>Source&#45;&gt;Factor</title>
<path fill="none" stroke="#b63d25" d="M511,-64.6433C511,-58.2317 511,-52.1625 511,-46.6679"/>
<ellipse fill="none" stroke="#b63d25" cx="511" cy="-68.6621" rx="4" ry="4"/>
<polygon fill="#b63d25" stroke="#b63d25" points="511,-46.271 515.5,-36.271 511,-41.271 511,-36.271 511,-36.271 511,-36.271 511,-41.271 506.5,-36.2711 511,-46.271 511,-46.271"/>
</g>
<!-- Topic -->
<g id="node6" class="node"><title>Topic</title>
<path fill="none" stroke="black" d="M607,-307C607,-307 737,-307 737,-307 743,-307 749,-313 749,-319 749,-319 749,-401 749,-401 749,-407 743,-413 737,-413 737,-413 607,-413 607,-413 601,-413 595,-407 595,-401 595,-401 595,-319 595,-319 595,-313 601,-307 607,-307"/>
<text text-anchor="middle" x="672" y="-397.8" font-family="Times,serif" font-size="14.00">Topic</text>
<polyline fill="none" stroke="black" points="595,-390 749,-390 "/>
<text text-anchor="start" x="603" y="-374.8" font-family="Times,serif" font-size="14.00">id :bigint(20)</text>
<text text-anchor="start" x="603" y="-359.8" font-family="Times,serif" font-size="14.00">name :varchar(255)</text>
<text text-anchor="start" x="603" y="-344.8" font-family="Times,serif" font-size="14.00">description :varchar(255)</text>
<text text-anchor="start" x="603" y="-329.8" font-family="Times,serif" font-size="14.00">created_at :datetime</text>
<text text-anchor="start" x="603" y="-314.8" font-family="Times,serif" font-size="14.00">updated_at :datetime</text>
</g>
<!-- Topic&#45;&gt;Source -->
<g id="edge4" class="edge"><title>Topic&#45;&gt;Source</title>
<path fill="none" stroke="#3bd02e" d="M621.844,-300.744C615.291,-293.133 608.424,-285.157 601.456,-277.064"/>
<ellipse fill="none" stroke="#3bd02e" cx="624.543" cy="-303.879" rx="4.00002" ry="4.00002"/>
<polygon fill="#3bd02e" stroke="#3bd02e" points="601.276,-276.855 598.161,-266.34 598.014,-273.065 594.751,-269.276 594.751,-269.276 594.751,-269.276 598.014,-273.065 591.341,-272.212 601.276,-276.855 601.276,-276.855"/>
</g>
<!-- User -->
<g id="node7" class="node"><title>User</title>
<path fill="none" stroke="black" d="M416,-451C416,-451 606,-451 606,-451 612,-451 618,-457 618,-463 618,-463 618,-665 618,-665 618,-671 612,-677 606,-677 606,-677 416,-677 416,-677 410,-677 404,-671 404,-665 404,-665 404,-463 404,-463 404,-457 410,-451 416,-451"/>
<text text-anchor="middle" x="511" y="-661.8" font-family="Times,serif" font-size="14.00">User</text>
<polyline fill="none" stroke="black" points="404,-654 618,-654 "/>
<text text-anchor="start" x="412" y="-638.8" font-family="Times,serif" font-size="14.00">id :bigint(20)</text>
<text text-anchor="start" x="412" y="-623.8" font-family="Times,serif" font-size="14.00">email :varchar(255)</text>
<text text-anchor="start" x="412" y="-608.8" font-family="Times,serif" font-size="14.00">encrypted_password :varchar(255)</text>
<text text-anchor="start" x="412" y="-593.8" font-family="Times,serif" font-size="14.00">reset_password_token :varchar(255)</text>
<text text-anchor="start" x="412" y="-578.8" font-family="Times,serif" font-size="14.00">reset_password_sent_at :datetime</text>
<text text-anchor="start" x="412" y="-563.8" font-family="Times,serif" font-size="14.00">remember_created_at :datetime</text>
<text text-anchor="start" x="412" y="-548.8" font-family="Times,serif" font-size="14.00">sign_in_count :int(11)</text>
<text text-anchor="start" x="412" y="-533.8" font-family="Times,serif" font-size="14.00">current_sign_in_at :datetime</text>
<text text-anchor="start" x="412" y="-518.8" font-family="Times,serif" font-size="14.00">last_sign_in_at :datetime</text>
<text text-anchor="start" x="412" y="-503.8" font-family="Times,serif" font-size="14.00">current_sign_in_ip :varchar(255)</text>
<text text-anchor="start" x="412" y="-488.8" font-family="Times,serif" font-size="14.00">last_sign_in_ip :varchar(255)</text>
<text text-anchor="start" x="412" y="-473.8" font-family="Times,serif" font-size="14.00">created_at :datetime</text>
<text text-anchor="start" x="412" y="-458.8" font-family="Times,serif" font-size="14.00">updated_at :datetime</text>
</g>
<!-- User&#45;&gt;Dataset -->
<g id="edge5" class="edge"><title>User&#45;&gt;Dataset</title>
<path fill="none" stroke="#376cec" d="M511,-442.544C511,-436.008 511,-429.585 511,-423.39"/>
<ellipse fill="none" stroke="#376cec" cx="511" cy="-446.777" rx="4" ry="4"/>
<polygon fill="#376cec" stroke="#376cec" points="511,-423.201 515.5,-413.201 511,-418.201 511,-413.201 511,-413.201 511,-413.201 511,-418.201 506.5,-413.201 511,-423.201 511,-423.201"/>
</g>
</g>
</svg>
