<?xml version="1.0" encoding="UTF-8" standalone="no"?>
<!DOCTYPE svg PUBLIC "-//W3C//DTD SVG 1.1//EN"
 "http://www.w3.org/Graphics/SVG/1.1/DTD/svg11.dtd">
<!-- Generated by graphviz version 2.38.0 (20140413.2041)
 -->
<!-- Title: models_diagram Pages: 1 -->
<svg width="738pt" height="1250pt"
 viewBox="0.00 0.00 737.90 1250.00" xmlns="http://www.w3.org/2000/svg" xmlns:xlink="http://www.w3.org/1999/xlink">
<g id="graph0" class="graph" transform="scale(1 1) rotate(0) translate(4 1246)">
<title>models_diagram</title>
<polygon fill="none" stroke="none" points="-4,4 -4,-1246 733.896,-1246 733.896,4 -4,4"/>
<!-- _diagram_info -->
<g id="node1" class="node"><title>_diagram_info</title>
<text text-anchor="start" x="8" y="-1130.6" font-family="Times,serif" font-size="13.00">Models diagram</text>
<text text-anchor="start" x="8" y="-1116.6" font-family="Times,serif" font-size="13.00">Date: May 10 2018 &#45; 17:08</text>
<text text-anchor="start" x="8" y="-1102.6" font-family="Times,serif" font-size="13.00">Migration version: 20180505084756</text>
<text text-anchor="start" x="8" y="-1088.6" font-family="Times,serif" font-size="13.00">Generated by RailRoady 1.5.3</text>
<text text-anchor="start" x="8" y="-1074.6" font-family="Times,serif" font-size="13.00">http://railroady.prestonlee.com</text>
</g>
<!-- Source -->
<g id="node2" class="node"><title>Source</title>
<path fill="none" stroke="black" d="M402.5,-459.5C402.5,-459.5 553.5,-459.5 553.5,-459.5 559.5,-459.5 565.5,-465.5 565.5,-471.5 565.5,-471.5 565.5,-748.5 565.5,-748.5 565.5,-754.5 559.5,-760.5 553.5,-760.5 553.5,-760.5 402.5,-760.5 402.5,-760.5 396.5,-760.5 390.5,-754.5 390.5,-748.5 390.5,-748.5 390.5,-471.5 390.5,-471.5 390.5,-465.5 396.5,-459.5 402.5,-459.5"/>
<text text-anchor="middle" x="478" y="-745.3" font-family="Times,serif" font-size="14.00">Source</text>
<polyline fill="none" stroke="black" points="390.5,-737.5 565.5,-737.5 "/>
<text text-anchor="start" x="398.5" y="-722.3" font-family="Times,serif" font-size="14.00">id :bigint(20)</text>
<text text-anchor="start" x="398.5" y="-707.3" font-family="Times,serif" font-size="14.00">citation :text</text>
<text text-anchor="start" x="398.5" y="-692.3" font-family="Times,serif" font-size="14.00">author_list :varchar(255)</text>
<text text-anchor="start" x="398.5" y="-677.3" font-family="Times,serif" font-size="14.00">year :int(11)</text>
<text text-anchor="start" x="398.5" y="-662.3" font-family="Times,serif" font-size="14.00">purpose :varchar(255)</text>
<text text-anchor="start" x="398.5" y="-647.3" font-family="Times,serif" font-size="14.00">topic_id :bigint(20)</text>
<text text-anchor="start" x="398.5" y="-632.3" font-family="Times,serif" font-size="14.00">discard_reason :varchar(255)</text>
<text text-anchor="start" x="398.5" y="-617.3" font-family="Times,serif" font-size="14.00">created_at :datetime</text>
<text text-anchor="start" x="398.5" y="-602.3" font-family="Times,serif" font-size="14.00">updated_at :datetime</text>
<text text-anchor="start" x="398.5" y="-587.3" font-family="Times,serif" font-size="14.00">title :text</text>
<text text-anchor="start" x="398.5" y="-572.3" font-family="Times,serif" font-size="14.00">dataset_id :bigint(20)</text>
<text text-anchor="start" x="398.5" y="-557.3" font-family="Times,serif" font-size="14.00">processed :tinyint(1)</text>
<text text-anchor="start" x="398.5" y="-542.3" font-family="Times,serif" font-size="14.00">refs_processed :tinyint(1)</text>
<text text-anchor="start" x="398.5" y="-527.3" font-family="Times,serif" font-size="14.00">word_cache :text</text>
<text text-anchor="start" x="398.5" y="-512.3" font-family="Times,serif" font-size="14.00">stem_cache :text</text>
<text text-anchor="start" x="398.5" y="-497.3" font-family="Times,serif" font-size="14.00">synonym_cache :text</text>
<text text-anchor="start" x="398.5" y="-482.3" font-family="Times,serif" font-size="14.00">stats_cache :text</text>
<text text-anchor="start" x="398.5" y="-467.3" font-family="Times,serif" font-size="14.00">discarded :tinyint(1)</text>
</g>
<!-- Word -->
<g id="node3" class="node"><title>Word</title>
<path fill="none" stroke="black" d="M323.5,-158.5C323.5,-158.5 444.5,-158.5 444.5,-158.5 450.5,-158.5 456.5,-164.5 456.5,-170.5 456.5,-170.5 456.5,-267.5 456.5,-267.5 456.5,-273.5 450.5,-279.5 444.5,-279.5 444.5,-279.5 323.5,-279.5 323.5,-279.5 317.5,-279.5 311.5,-273.5 311.5,-267.5 311.5,-267.5 311.5,-170.5 311.5,-170.5 311.5,-164.5 317.5,-158.5 323.5,-158.5"/>
<text text-anchor="middle" x="384" y="-264.3" font-family="Times,serif" font-size="14.00">Word</text>
<polyline fill="none" stroke="black" points="311.5,-256.5 456.5,-256.5 "/>
<text text-anchor="start" x="319.5" y="-241.3" font-family="Times,serif" font-size="14.00">id :bigint(20)</text>
<text text-anchor="start" x="319.5" y="-226.3" font-family="Times,serif" font-size="14.00">raw :varchar(255)</text>
<text text-anchor="start" x="319.5" y="-211.3" font-family="Times,serif" font-size="14.00">stem_id :bigint(20)</text>
<text text-anchor="start" x="319.5" y="-196.3" font-family="Times,serif" font-size="14.00">created_at :datetime</text>
<text text-anchor="start" x="319.5" y="-181.3" font-family="Times,serif" font-size="14.00">updated_at :datetime</text>
<text text-anchor="start" x="319.5" y="-166.3" font-family="Times,serif" font-size="14.00">syn_checked :tinyint(1)</text>
</g>
<!-- Source&#45;&gt;Word -->
<g id="edge3" class="edge"><title>Source&#45;&gt;Word</title>
<path fill="none" stroke="#2c82f5" d="M484.769,-449.296C482.104,-404.98 474.859,-357.629 459,-316 455.348,-306.414 450.388,-297.015 444.747,-288.076"/>
<polygon fill="#2c82f5" stroke="#2c82f5" points="484.769,-449.309 480.803,-459.532 485.033,-454.302 485.297,-459.295 485.297,-459.295 485.297,-459.295 485.033,-454.302 489.79,-459.058 484.769,-449.309 484.769,-449.309"/>
<polygon fill="#2c82f5" stroke="#2c82f5" points="444.685,-287.983 442.897,-277.164 441.917,-283.819 439.15,-279.654 439.15,-279.654 439.15,-279.654 441.917,-283.819 435.402,-282.145 444.685,-287.983 444.685,-287.983"/>
</g>
<!-- Author -->
<g id="node4" class="node"><title>Author</title>
<path fill="none" stroke="black" d="M555.5,-316.5C555.5,-316.5 698.5,-316.5 698.5,-316.5 704.5,-316.5 710.5,-322.5 710.5,-328.5 710.5,-328.5 710.5,-410.5 710.5,-410.5 710.5,-416.5 704.5,-422.5 698.5,-422.5 698.5,-422.5 555.5,-422.5 555.5,-422.5 549.5,-422.5 543.5,-416.5 543.5,-410.5 543.5,-410.5 543.5,-328.5 543.5,-328.5 543.5,-322.5 549.5,-316.5 555.5,-316.5"/>
<text text-anchor="middle" x="627" y="-407.3" font-family="Times,serif" font-size="14.00">Author</text>
<polyline fill="none" stroke="black" points="543.5,-399.5 710.5,-399.5 "/>
<text text-anchor="start" x="551.5" y="-384.3" font-family="Times,serif" font-size="14.00">id :bigint(20)</text>
<text text-anchor="start" x="551.5" y="-369.3" font-family="Times,serif" font-size="14.00">given_name :varchar(255)</text>
<text text-anchor="start" x="551.5" y="-354.3" font-family="Times,serif" font-size="14.00">family_name :varchar(255)</text>
<text text-anchor="start" x="551.5" y="-339.3" font-family="Times,serif" font-size="14.00">created_at :datetime</text>
<text text-anchor="start" x="551.5" y="-324.3" font-family="Times,serif" font-size="14.00">updated_at :datetime</text>
</g>
<!-- Source&#45;&gt;Author -->
<g id="edge1" class="edge"><title>Source&#45;&gt;Author</title>
<path fill="none" stroke="#074ba5" d="M571.03,-460.09C577.317,-450.026 583.416,-440.264 589.132,-431.115"/>
<polygon fill="#074ba5" stroke="#074ba5" points="570.834,-460.403 561.719,-466.5 568.185,-464.644 565.536,-468.884 565.536,-468.884 565.536,-468.884 568.185,-464.644 569.352,-471.268 570.834,-460.403 570.834,-460.403"/>
<polygon fill="#074ba5" stroke="#074ba5" points="589.19,-431.022 598.305,-424.925 591.839,-426.781 594.488,-422.541 594.488,-422.541 594.488,-422.541 591.839,-426.781 590.672,-420.156 589.19,-431.022 589.19,-431.022"/>
</g>
<!-- Synonym -->
<g id="node5" class="node"><title>Synonym</title>
<path fill="none" stroke="black" d="M462.5,-15.5C462.5,-15.5 569.5,-15.5 569.5,-15.5 575.5,-15.5 581.5,-21.5 581.5,-27.5 581.5,-27.5 581.5,-94.5 581.5,-94.5 581.5,-100.5 575.5,-106.5 569.5,-106.5 569.5,-106.5 462.5,-106.5 462.5,-106.5 456.5,-106.5 450.5,-100.5 450.5,-94.5 450.5,-94.5 450.5,-27.5 450.5,-27.5 450.5,-21.5 456.5,-15.5 462.5,-15.5"/>
<text text-anchor="middle" x="516" y="-91.3" font-family="Times,serif" font-size="14.00">Synonym</text>
<polyline fill="none" stroke="black" points="450.5,-83.5 581.5,-83.5 "/>
<text text-anchor="start" x="458.5" y="-68.3" font-family="Times,serif" font-size="14.00">id :bigint(20)</text>
<text text-anchor="start" x="458.5" y="-53.3" font-family="Times,serif" font-size="14.00">word :varchar(255)</text>
<text text-anchor="start" x="458.5" y="-38.3" font-family="Times,serif" font-size="14.00">created_at :datetime</text>
<text text-anchor="start" x="458.5" y="-23.3" font-family="Times,serif" font-size="14.00">updated_at :datetime</text>
</g>
<!-- Source&#45;&gt;Synonym -->
<g id="edge5" class="edge"><title>Source&#45;&gt;Synonym</title>
<path fill="none" stroke="#afb001" d="M489.115,-448.999C496.899,-336.947 506.83,-193.997 512.177,-117.027"/>
<polygon fill="#afb001" stroke="#afb001" points="489.102,-449.192 483.92,-458.856 488.755,-454.18 488.409,-459.168 488.409,-459.168 488.409,-459.168 488.755,-454.18 492.898,-459.48 489.102,-449.192 489.102,-449.192"/>
<polygon fill="#afb001" stroke="#afb001" points="512.208,-116.59 517.39,-106.926 512.554,-111.602 512.901,-106.614 512.901,-106.614 512.901,-106.614 512.554,-111.602 508.411,-106.302 512.208,-116.59 512.208,-116.59"/>
</g>
<!-- Factor -->
<g id="node8" class="node"><title>Factor</title>
<path fill="none" stroke="black" d="M198.5,-0.5C198.5,-0.5 305.5,-0.5 305.5,-0.5 311.5,-0.5 317.5,-6.5 317.5,-12.5 317.5,-12.5 317.5,-109.5 317.5,-109.5 317.5,-115.5 311.5,-121.5 305.5,-121.5 305.5,-121.5 198.5,-121.5 198.5,-121.5 192.5,-121.5 186.5,-115.5 186.5,-109.5 186.5,-109.5 186.5,-12.5 186.5,-12.5 186.5,-6.5 192.5,-0.5 198.5,-0.5"/>
<text text-anchor="middle" x="252" y="-106.3" font-family="Times,serif" font-size="14.00">Factor</text>
<polyline fill="none" stroke="black" points="186.5,-98.5 317.5,-98.5 "/>
<text text-anchor="start" x="194.5" y="-83.3" font-family="Times,serif" font-size="14.00">id :bigint(20)</text>
<text text-anchor="start" x="194.5" y="-68.3" font-family="Times,serif" font-size="14.00">source_id :bigint(20)</text>
<text text-anchor="start" x="194.5" y="-53.3" font-family="Times,serif" font-size="14.00">text :text</text>
<text text-anchor="start" x="194.5" y="-38.3" font-family="Times,serif" font-size="14.00">created_at :datetime</text>
<text text-anchor="start" x="194.5" y="-23.3" font-family="Times,serif" font-size="14.00">updated_at :datetime</text>
<text text-anchor="start" x="194.5" y="-8.3" font-family="Times,serif" font-size="14.00">unverified :text</text>
</g>
<!-- Source&#45;&gt;Factor -->
<g id="edge2" class="edge"><title>Source&#45;&gt;Factor</title>
<path fill="none" stroke="#25ee04" d="M384.809,-526.518C356.524,-496.66 328.161,-460.891 310,-423 264.996,-329.103 253.852,-207.32 251.653,-131.939"/>
<ellipse fill="none" stroke="#25ee04" cx="387.692" cy="-529.524" rx="4.00002" ry="4.00002"/>
<polygon fill="#25ee04" stroke="#25ee04" points="251.646,-131.615 255.899,-121.507 251.523,-126.616 251.4,-121.618 251.4,-121.618 251.4,-121.618 251.523,-126.616 246.901,-121.728 251.646,-131.615 251.646,-131.615"/>
</g>
<!-- Stem -->
<g id="node10" class="node"><title>Stem</title>
<path fill="none" stroke="black" d="M330.5,-324C330.5,-324 437.5,-324 437.5,-324 443.5,-324 449.5,-330 449.5,-336 449.5,-336 449.5,-403 449.5,-403 449.5,-409 443.5,-415 437.5,-415 437.5,-415 330.5,-415 330.5,-415 324.5,-415 318.5,-409 318.5,-403 318.5,-403 318.5,-336 318.5,-336 318.5,-330 324.5,-324 330.5,-324"/>
<text text-anchor="middle" x="384" y="-399.8" font-family="Times,serif" font-size="14.00">Stem</text>
<polyline fill="none" stroke="black" points="318.5,-392 449.5,-392 "/>
<text text-anchor="start" x="326.5" y="-376.8" font-family="Times,serif" font-size="14.00">id :bigint(20)</text>
<text text-anchor="start" x="326.5" y="-361.8" font-family="Times,serif" font-size="14.00">word :varchar(255)</text>
<text text-anchor="start" x="326.5" y="-346.8" font-family="Times,serif" font-size="14.00">created_at :datetime</text>
<text text-anchor="start" x="326.5" y="-331.8" font-family="Times,serif" font-size="14.00">updated_at :datetime</text>
</g>
<!-- Source&#45;&gt;Stem -->
<g id="edge4" class="edge"><title>Source&#45;&gt;Stem</title>
<path fill="none" stroke="#01138f" d="M415.223,-449.72C411.752,-440.913 408.411,-432.436 405.289,-424.514"/>
<polygon fill="#01138f" stroke="#01138f" points="415.335,-450.005 414.816,-460.959 417.169,-454.657 419.002,-459.309 419.002,-459.309 419.002,-459.309 417.169,-454.657 423.189,-457.659 415.335,-450.005 415.335,-450.005"/>
<polygon fill="#01138f" stroke="#01138f" points="405.261,-424.445 405.781,-413.491 403.428,-419.793 401.595,-415.141 401.595,-415.141 401.595,-415.141 403.428,-419.793 397.408,-416.791 405.261,-424.445 405.261,-424.445"/>
</g>
<!-- Word&#45;&gt;Synonym -->
<g id="edge7" class="edge"><title>Word&#45;&gt;Synonym</title>
<path fill="none" stroke="#fbca6c" d="M441.126,-150.487C451.253,-138.519 461.664,-126.215 471.381,-114.731"/>
<polygon fill="#fbca6c" stroke="#fbca6c" points="441.117,-150.499 431.222,-155.226 437.887,-154.316 434.657,-158.132 434.657,-158.132 434.657,-158.132 437.887,-154.316 438.092,-161.039 441.117,-150.499 441.117,-150.499"/>
<polygon fill="#fbca6c" stroke="#fbca6c" points="471.527,-114.559 481.421,-109.832 474.756,-110.742 477.986,-106.925 477.986,-106.925 477.986,-106.925 474.756,-110.742 474.551,-104.019 471.527,-114.559 471.527,-114.559"/>
</g>
<!-- Word&#45;&gt;Factor -->
<g id="edge6" class="edge"><title>Word&#45;&gt;Factor</title>
<path fill="none" stroke="#af63bb" d="M326.649,-150.221C320.876,-143.399 315.015,-136.472 309.244,-129.652"/>
<polygon fill="#af63bb" stroke="#af63bb" points="326.883,-150.499 329.908,-161.039 330.113,-154.316 333.343,-158.132 333.343,-158.132 333.343,-158.132 330.113,-154.316 336.778,-155.226 326.883,-150.499 326.883,-150.499"/>
<polygon fill="#af63bb" stroke="#af63bb" points="308.981,-129.341 305.957,-118.801 305.751,-125.524 302.522,-121.707 302.522,-121.707 302.522,-121.707 305.751,-125.524 299.086,-124.614 308.981,-129.341 308.981,-129.341"/>
</g>
<!-- Dataset -->
<g id="node6" class="node"><title>Dataset</title>
<path fill="none" stroke="black" d="M285.5,-797.5C285.5,-797.5 392.5,-797.5 392.5,-797.5 398.5,-797.5 404.5,-803.5 404.5,-809.5 404.5,-809.5 404.5,-921.5 404.5,-921.5 404.5,-927.5 398.5,-933.5 392.5,-933.5 392.5,-933.5 285.5,-933.5 285.5,-933.5 279.5,-933.5 273.5,-927.5 273.5,-921.5 273.5,-921.5 273.5,-809.5 273.5,-809.5 273.5,-803.5 279.5,-797.5 285.5,-797.5"/>
<text text-anchor="middle" x="339" y="-918.3" font-family="Times,serif" font-size="14.00">Dataset</text>
<polyline fill="none" stroke="black" points="273.5,-910.5 404.5,-910.5 "/>
<text text-anchor="start" x="281.5" y="-895.3" font-family="Times,serif" font-size="14.00">id :bigint(20)</text>
<text text-anchor="start" x="281.5" y="-880.3" font-family="Times,serif" font-size="14.00">name :varchar(255)</text>
<text text-anchor="start" x="281.5" y="-865.3" font-family="Times,serif" font-size="14.00">user_id :bigint(20)</text>
<text text-anchor="start" x="281.5" y="-850.3" font-family="Times,serif" font-size="14.00">created_at :datetime</text>
<text text-anchor="start" x="281.5" y="-835.3" font-family="Times,serif" font-size="14.00">updated_at :datetime</text>
<text text-anchor="start" x="281.5" y="-820.3" font-family="Times,serif" font-size="14.00">load_pct :int(11)</text>
<text text-anchor="start" x="281.5" y="-805.3" font-family="Times,serif" font-size="14.00">stats_cache :text</text>
</g>
<!-- Dataset&#45;&gt;Source -->
<g id="edge8" class="edge"><title>Dataset&#45;&gt;Source</title>
<path fill="none" stroke="#deb8b5" d="M379.762,-790.161C383.375,-783.572 387.113,-776.754 390.927,-769.798"/>
<ellipse fill="none" stroke="#deb8b5" cx="377.808" cy="-793.725" rx="4.00002" ry="4.00002"/>
<polygon fill="#deb8b5" stroke="#deb8b5" points="390.987,-769.689 399.741,-763.084 393.391,-765.305 395.795,-760.92 395.795,-760.92 395.795,-760.92 393.391,-765.305 391.849,-758.757 390.987,-769.689 390.987,-769.689"/>
</g>
<!-- Dataset&#45;&gt;Word -->
<g id="edge10" class="edge"><title>Dataset&#45;&gt;Word</title>
<path fill="none" stroke="#b406c7" d="M317.295,-787.416C290.643,-678.96 255.279,-476.62 310,-316 313.232,-306.513 317.822,-297.234 323.154,-288.413"/>
<polygon fill="#b406c7" stroke="#b406c7" points="317.339,-787.593 315.396,-798.386 318.55,-792.444 319.762,-797.295 319.762,-797.295 319.762,-797.295 318.55,-792.444 324.128,-796.205 317.339,-787.593 317.339,-787.593"/>
<polygon fill="#b406c7" stroke="#b406c7" points="323.31,-288.171 332.497,-282.185 326.01,-283.963 328.71,-279.754 328.71,-279.754 328.71,-279.754 326.01,-283.963 324.923,-277.324 323.31,-288.171 323.31,-288.171"/>
</g>
<!-- Dataset&#45;&gt;Synonym -->
<g id="edge12" class="edge"><title>Dataset&#45;&gt;Synonym</title>
<path fill="none" stroke="#0e3a4e" d="M413.708,-797.151C413.805,-797.101 413.903,-797.05 414,-797 479.158,-763.376 518.58,-807.829 575,-761 700.781,-656.602 687.105,-583.118 720,-423 729.57,-376.417 735.784,-360.86 720,-316 691.52,-235.058 625.15,-160.846 575.802,-113.815"/>
<polygon fill="#0e3a4e" stroke="#0e3a4e" points="413.441,-797.304 402.526,-798.361 409.101,-799.786 404.76,-802.268 404.76,-802.268 404.76,-802.268 409.101,-799.786 406.994,-806.174 413.441,-797.304 413.441,-797.304"/>
<polygon fill="#0e3a4e" stroke="#0e3a4e" points="575.623,-113.647 571.43,-103.515 571.983,-110.219 568.344,-106.79 568.344,-106.79 568.344,-106.79 571.983,-110.219 565.258,-110.066 575.623,-113.647 575.623,-113.647"/>
</g>
<!-- Dataset&#45;&gt;Factor -->
<g id="edge9" class="edge"><title>Dataset&#45;&gt;Factor</title>
<path fill="none" stroke="#fcbdcf" d="M287.913,-788.205C283.598,-779.306 279.816,-770.137 277,-761 208.756,-539.546 228.364,-259.834 242.768,-131.776"/>
<polygon fill="#fcbdcf" stroke="#fcbdcf" points="288.043,-788.459 288.576,-799.412 290.314,-792.914 292.585,-797.368 292.585,-797.368 292.585,-797.368 290.314,-792.914 296.594,-795.325 288.043,-788.459 288.043,-788.459"/>
<polygon fill="#fcbdcf" stroke="#fcbdcf" points="242.783,-131.645 248.396,-122.224 243.354,-126.677 243.925,-121.71 243.925,-121.71 243.925,-121.71 243.354,-126.677 239.455,-121.196 242.783,-131.645 242.783,-131.645"/>
</g>
<!-- Dataset&#45;&gt;Stem -->
<g id="edge11" class="edge"><title>Dataset&#45;&gt;Stem</title>
<path fill="none" stroke="#df043b" d="M346.043,-787.18C355.21,-686.547 371.002,-513.187 379.019,-425.18"/>
<polygon fill="#df043b" stroke="#df043b" points="346.023,-787.404 340.634,-796.955 345.569,-792.383 345.116,-797.363 345.116,-797.363 345.116,-797.363 345.569,-792.383 349.597,-797.771 346.023,-787.404 346.023,-787.404"/>
<polygon fill="#df043b" stroke="#df043b" points="379.027,-425.096 384.415,-415.546 379.48,-420.117 379.934,-415.137 379.934,-415.137 379.934,-415.137 379.48,-420.117 375.452,-414.729 379.027,-425.096 379.027,-425.096"/>
</g>
<!-- User -->
<g id="node7" class="node"><title>User</title>
<path fill="none" stroke="black" d="M244,-970.5C244,-970.5 434,-970.5 434,-970.5 440,-970.5 446,-976.5 446,-982.5 446,-982.5 446,-1229.5 446,-1229.5 446,-1235.5 440,-1241.5 434,-1241.5 434,-1241.5 244,-1241.5 244,-1241.5 238,-1241.5 232,-1235.5 232,-1229.5 232,-1229.5 232,-982.5 232,-982.5 232,-976.5 238,-970.5 244,-970.5"/>
<text text-anchor="middle" x="339" y="-1226.3" font-family="Times,serif" font-size="14.00">User</text>
<polyline fill="none" stroke="black" points="232,-1218.5 446,-1218.5 "/>
<text text-anchor="start" x="240" y="-1203.3" font-family="Times,serif" font-size="14.00">id :bigint(20)</text>
<text text-anchor="start" x="240" y="-1188.3" font-family="Times,serif" font-size="14.00">email :varchar(255)</text>
<text text-anchor="start" x="240" y="-1173.3" font-family="Times,serif" font-size="14.00">encrypted_password :varchar(255)</text>
<text text-anchor="start" x="240" y="-1158.3" font-family="Times,serif" font-size="14.00">reset_password_token :varchar(255)</text>
<text text-anchor="start" x="240" y="-1143.3" font-family="Times,serif" font-size="14.00">reset_password_sent_at :datetime</text>
<text text-anchor="start" x="240" y="-1128.3" font-family="Times,serif" font-size="14.00">remember_created_at :datetime</text>
<text text-anchor="start" x="240" y="-1113.3" font-family="Times,serif" font-size="14.00">sign_in_count :int(11)</text>
<text text-anchor="start" x="240" y="-1098.3" font-family="Times,serif" font-size="14.00">current_sign_in_at :datetime</text>
<text text-anchor="start" x="240" y="-1083.3" font-family="Times,serif" font-size="14.00">last_sign_in_at :datetime</text>
<text text-anchor="start" x="240" y="-1068.3" font-family="Times,serif" font-size="14.00">current_sign_in_ip :varchar(255)</text>
<text text-anchor="start" x="240" y="-1053.3" font-family="Times,serif" font-size="14.00">last_sign_in_ip :varchar(255)</text>
<text text-anchor="start" x="240" y="-1038.3" font-family="Times,serif" font-size="14.00">created_at :datetime</text>
<text text-anchor="start" x="240" y="-1023.3" font-family="Times,serif" font-size="14.00">updated_at :datetime</text>
<text text-anchor="start" x="240" y="-1008.3" font-family="Times,serif" font-size="14.00">token :text</text>
<text text-anchor="start" x="240" y="-993.3" font-family="Times,serif" font-size="14.00">refresh_token :text</text>
<text text-anchor="start" x="240" y="-978.3" font-family="Times,serif" font-size="14.00">expires_at :int(11)</text>
</g>
<!-- User&#45;&gt;Dataset -->
<g id="edge13" class="edge"><title>User&#45;&gt;Dataset</title>
<path fill="none" stroke="#9b3101" d="M339,-962.135C339,-956.008 339,-949.967 339,-944.082"/>
<ellipse fill="none" stroke="#9b3101" cx="339" cy="-966.416" rx="4" ry="4"/>
<polygon fill="#9b3101" stroke="#9b3101" points="339,-943.67 343.5,-933.67 339,-938.67 339,-933.67 339,-933.67 339,-933.67 339,-938.67 334.5,-933.67 339,-943.67 339,-943.67"/>
</g>
<!-- ApplicationRecord -->
<g id="node9" class="node"><title>ApplicationRecord</title>
<ellipse fill="none" stroke="black" cx="541" cy="-1106" rx="77.1866" ry="18"/>
<text text-anchor="middle" x="541" y="-1102.3" font-family="Times,serif" font-size="14.00">ApplicationRecord</text>
</g>
<!-- Stem&#45;&gt;Word -->
<g id="edge14" class="edge"><title>Stem&#45;&gt;Word</title>
<path fill="none" stroke="#b9fccd" d="M384,-315.613C384,-307.237 384,-298.464 384,-289.773"/>
<ellipse fill="none" stroke="#b9fccd" cx="384" cy="-319.945" rx="4" ry="4"/>
<polygon fill="#b9fccd" stroke="#b9fccd" points="384,-289.637 388.5,-279.637 384,-284.637 384,-279.637 384,-279.637 384,-279.637 384,-284.637 379.5,-279.637 384,-289.637 384,-289.637"/>
</g>
<!-- Topic -->
<g id="node11" class="node"><title>Topic</title>
<path fill="none" stroke="black" d="M435,-812.5C435,-812.5 565,-812.5 565,-812.5 571,-812.5 577,-818.5 577,-824.5 577,-824.5 577,-906.5 577,-906.5 577,-912.5 571,-918.5 565,-918.5 565,-918.5 435,-918.5 435,-918.5 429,-918.5 423,-912.5 423,-906.5 423,-906.5 423,-824.5 423,-824.5 423,-818.5 429,-812.5 435,-812.5"/>
<text text-anchor="middle" x="500" y="-903.3" font-family="Times,serif" font-size="14.00">Topic</text>
<polyline fill="none" stroke="black" points="423,-895.5 577,-895.5 "/>
<text text-anchor="start" x="431" y="-880.3" font-family="Times,serif" font-size="14.00">id :bigint(20)</text>
<text text-anchor="start" x="431" y="-865.3" font-family="Times,serif" font-size="14.00">name :varchar(255)</text>
<text text-anchor="start" x="431" y="-850.3" font-family="Times,serif" font-size="14.00">description :varchar(255)</text>
<text text-anchor="start" x="431" y="-835.3" font-family="Times,serif" font-size="14.00">created_at :datetime</text>
<text text-anchor="start" x="431" y="-820.3" font-family="Times,serif" font-size="14.00">updated_at :datetime</text>
</g>
<!-- Topic&#45;&gt;Source -->
<g id="edge15" class="edge"><title>Topic&#45;&gt;Source</title>
<path fill="none" stroke="#58496d" d="M494.761,-804.128C493.862,-793.769 492.891,-782.585 491.886,-771.002"/>
<ellipse fill="none" stroke="#58496d" cx="495.122" cy="-808.297" rx="4" ry="4"/>
<polygon fill="#58496d" stroke="#58496d" points="491.859,-770.694 495.478,-760.342 491.427,-765.713 490.994,-760.732 490.994,-760.732 490.994,-760.732 491.427,-765.713 486.511,-761.121 491.859,-770.694 491.859,-770.694"/>
</g>
</g>
</svg>
