<?xml version="1.0" encoding="UTF-8" standalone="no"?>
<!DOCTYPE svg PUBLIC "-//W3C//DTD SVG 1.1//EN"
 "http://www.w3.org/Graphics/SVG/1.1/DTD/svg11.dtd">
<!-- Generated by graphviz version 2.36.0 (20140111.2315)
 -->
<!-- Title: models_diagram Pages: 1 -->
<svg width="480pt" height="374pt"
 viewBox="0.00 0.00 480.23 374.00" xmlns="http://www.w3.org/2000/svg" xmlns:xlink="http://www.w3.org/1999/xlink">
<g id="graph0" class="graph" transform="scale(1 1) rotate(0) translate(4 370)">
<title>models_diagram</title>
<polygon fill="none" stroke="none" points="-4,4 -4,-370 476.226,-370 476.226,4 -4,4"/>
<!-- _diagram_info -->
<g id="node1" class="node"><title>_diagram_info</title>
<text text-anchor="start" x="8" y="-351.6" font-family="Times,serif" font-size="13.00">Models diagram</text>
<text text-anchor="start" x="8" y="-337.6" font-family="Times,serif" font-size="13.00">Date: Aug 04 2017 &#45; 10:05</text>
<text text-anchor="start" x="8" y="-323.6" font-family="Times,serif" font-size="13.00">Migration version: 20170725141651</text>
<text text-anchor="start" x="8" y="-309.6" font-family="Times,serif" font-size="13.00">Generated by RailRoady 1.5.3</text>
<text text-anchor="start" x="8" y="-295.6" font-family="Times,serif" font-size="13.00">http://railroady.prestonlee.com</text>
</g>
<!-- ApplicationRecord -->
<g id="node2" class="node"><title>ApplicationRecord</title>
<ellipse fill="none" stroke="black" cx="309" cy="-327" rx="77.0154" ry="18"/>
<text text-anchor="middle" x="309" y="-323.3" font-family="Times,serif" font-size="14.00">ApplicationRecord</text>
</g>
<!-- Author -->
<g id="node3" class="node"><title>Author</title>
<ellipse fill="none" stroke="black" cx="257" cy="-234" rx="35.6194" ry="18"/>
<text text-anchor="middle" x="257" y="-230.3" font-family="Times,serif" font-size="14.00">Author</text>
</g>
<!-- Source -->
<g id="node6" class="node"><title>Source</title>
<ellipse fill="none" stroke="black" cx="338" cy="-162" rx="35.1455" ry="18"/>
<text text-anchor="middle" x="338" y="-158.3" font-family="Times,serif" font-size="14.00">Source</text>
</g>
<!-- Author&#45;&gt;Source -->
<g id="edge1" class="edge"><title>Author&#45;&gt;Source</title>
<path fill="none" stroke="#14994b" d="M282.052,-211.351C291.888,-202.85 303.155,-193.113 312.987,-184.616"/>
<polygon fill="#14994b" stroke="#14994b" points="281.744,-211.616 271.236,-214.75 277.961,-214.885 274.178,-218.155 274.178,-218.155 274.178,-218.155 277.961,-214.885 277.12,-221.56 281.744,-211.616 281.744,-211.616"/>
<polygon fill="#14994b" stroke="#14994b" points="313.281,-184.362 323.789,-181.229 317.064,-181.093 320.847,-177.824 320.847,-177.824 320.847,-177.824 317.064,-181.093 317.904,-174.419 313.281,-184.362 313.281,-184.362"/>
</g>
<!-- Dataset -->
<g id="node4" class="node"><title>Dataset</title>
<ellipse fill="none" stroke="black" cx="432" cy="-234" rx="37.0701" ry="18"/>
<text text-anchor="middle" x="432" y="-230.3" font-family="Times,serif" font-size="14.00">Dataset</text>
</g>
<!-- Factor -->
<g id="node5" class="node"><title>Factor</title>
<ellipse fill="none" stroke="black" cx="349" cy="-90" rx="33.2209" ry="18"/>
<text text-anchor="middle" x="349" y="-86.3" font-family="Times,serif" font-size="14.00">Factor</text>
</g>
<!-- Dataset&#45;&gt;Factor -->
<g id="edge3" class="edge"><title>Dataset&#45;&gt;Factor</title>
<path fill="none" stroke="#893634" d="M417.943,-207.265C408.086,-189.397 394.49,-165.105 382,-144 376.51,-134.723 370.305,-124.655 364.769,-115.811"/>
<polygon fill="#893634" stroke="#893634" points="418.186,-207.707 419.061,-218.638 420.595,-212.088 423.004,-216.47 423.004,-216.47 423.004,-216.47 420.595,-212.088 426.948,-214.302 418.186,-207.707 418.186,-207.707"/>
<polygon fill="#893634" stroke="#893634" points="364.627,-115.585 363.109,-104.725 361.964,-111.353 359.301,-107.122 359.301,-107.122 359.301,-107.122 361.964,-111.353 355.492,-109.519 364.627,-115.585 364.627,-115.585"/>
</g>
<!-- Dataset&#45;&gt;Source -->
<g id="edge2" class="edge"><title>Dataset&#45;&gt;Source</title>
<path fill="none" stroke="#f1277d" d="M405.726,-213.434C393.186,-204.096 378.184,-192.924 365.491,-183.472"/>
<ellipse fill="none" stroke="#f1277d" cx="409.315" cy="-216.107" rx="4.00002" ry="4.00002"/>
<polygon fill="#f1277d" stroke="#f1277d" points="365.151,-183.219 359.818,-173.637 361.141,-180.232 357.13,-177.246 357.13,-177.246 357.13,-177.246 361.141,-180.232 354.443,-180.855 365.151,-183.219 365.151,-183.219"/>
</g>
<!-- Stem -->
<g id="node7" class="node"><title>Stem</title>
<ellipse fill="none" stroke="black" cx="429" cy="-90" rx="29.3722" ry="18"/>
<text text-anchor="middle" x="429" y="-86.3" font-family="Times,serif" font-size="14.00">Stem</text>
</g>
<!-- Dataset&#45;&gt;Stem -->
<g id="edge5" class="edge"><title>Dataset&#45;&gt;Stem</title>
<path fill="none" stroke="#c2cd93" d="M431.423,-205.679C430.893,-180.599 430.112,-143.627 429.581,-118.493"/>
<polygon fill="#c2cd93" stroke="#c2cd93" points="431.427,-205.874 427.139,-215.967 431.532,-210.873 431.638,-215.871 431.638,-215.871 431.638,-215.871 431.532,-210.873 436.137,-215.776 431.427,-205.874 431.427,-205.874"/>
<polygon fill="#c2cd93" stroke="#c2cd93" points="429.574,-118.187 433.862,-108.094 429.469,-113.188 429.363,-108.189 429.363,-108.189 429.363,-108.189 429.469,-113.188 424.864,-108.284 429.574,-118.187 429.574,-118.187"/>
</g>
<!-- Word -->
<g id="node10" class="node"><title>Word</title>
<ellipse fill="none" stroke="black" cx="429" cy="-18" rx="31.2965" ry="18"/>
<text text-anchor="middle" x="429" y="-14.3" font-family="Times,serif" font-size="14.00">Word</text>
</g>
<!-- Dataset&#45;&gt;Word -->
<g id="edge4" class="edge"><title>Dataset&#45;&gt;Word</title>
<path fill="none" stroke="#9dda15" d="M445.888,-207.098C461.256,-174.943 481.993,-118.643 467,-72 463.534,-61.2178 456.975,-50.7696 450.269,-42.0406"/>
<polygon fill="#9dda15" stroke="#9dda15" points="445.784,-207.308 437.306,-214.264 443.561,-211.786 441.337,-216.265 441.337,-216.265 441.337,-216.265 443.561,-211.786 445.368,-218.266 445.784,-207.308 445.784,-207.308"/>
<polygon fill="#9dda15" stroke="#9dda15" points="450.222,-41.9838 447.374,-31.3944 447.056,-38.1137 443.891,-34.2437 443.891,-34.2437 443.891,-34.2437 447.056,-38.1137 440.407,-37.093 450.222,-41.9838 450.222,-41.9838"/>
</g>
<!-- Factor&#45;&gt;Word -->
<g id="edge6" class="edge"><title>Factor&#45;&gt;Word</title>
<path fill="none" stroke="#0cd311" d="M373.493,-67.5687C383.507,-58.8062 395.056,-48.7012 405.017,-39.9852"/>
<polygon fill="#0cd311" stroke="#0cd311" points="373.492,-67.5697 363.003,-70.7682 369.729,-70.8623 365.966,-74.1548 365.966,-74.1548 365.966,-74.1548 369.729,-70.8623 368.929,-77.5414 373.492,-67.5697 373.492,-67.5697"/>
<polygon fill="#0cd311" stroke="#0cd311" points="405.08,-39.9301 415.569,-36.7316 408.843,-36.6376 412.606,-33.345 412.606,-33.345 412.606,-33.345 408.843,-36.6376 409.642,-29.9584 405.08,-39.9301 405.08,-39.9301"/>
</g>
<!-- Source&#45;&gt;Factor -->
<g id="edge7" class="edge"><title>Source&#45;&gt;Factor</title>
<path fill="none" stroke="#129042" d="M341.985,-135.64C342.884,-129.92 343.841,-123.828 344.751,-118.042"/>
<ellipse fill="none" stroke="#129042" cx="341.34" cy="-139.745" rx="4.00001" ry="4.00001"/>
<polygon fill="#129042" stroke="#129042" points="344.76,-117.983 350.758,-108.803 345.536,-113.044 346.312,-108.104 346.312,-108.104 346.312,-108.104 345.536,-113.044 341.867,-107.406 344.76,-117.983 344.76,-117.983"/>
</g>
<!-- Stem&#45;&gt;Word -->
<g id="edge8" class="edge"><title>Stem&#45;&gt;Word</title>
<path fill="none" stroke="#7b9b00" d="M429,-63.6398C429,-58.0629 429,-52.1319 429,-46.4761"/>
<ellipse fill="none" stroke="#7b9b00" cx="429" cy="-67.6966" rx="4" ry="4"/>
<polygon fill="#7b9b00" stroke="#7b9b00" points="429,-46.1043 433.5,-36.1043 429,-41.1043 429,-36.1043 429,-36.1043 429,-36.1043 429,-41.1043 424.5,-36.1044 429,-46.1043 429,-46.1043"/>
</g>
<!-- Topic -->
<g id="node8" class="node"><title>Topic</title>
<ellipse fill="none" stroke="black" cx="342" cy="-234" rx="31.2965" ry="18"/>
<text text-anchor="middle" x="342" y="-230.3" font-family="Times,serif" font-size="14.00">Topic</text>
</g>
<!-- Topic&#45;&gt;Source -->
<g id="edge9" class="edge"><title>Topic&#45;&gt;Source</title>
<path fill="none" stroke="#171e12" d="M340.551,-207.64C340.232,-202.063 339.893,-196.132 339.57,-190.476"/>
<ellipse fill="none" stroke="#171e12" cx="340.783" cy="-211.703" rx="4" ry="4"/>
<polygon fill="#171e12" stroke="#171e12" points="339.548,-190.088 343.47,-179.848 339.263,-185.096 338.977,-180.104 338.977,-180.104 338.977,-180.104 339.263,-185.096 334.485,-180.361 339.548,-190.088 339.548,-190.088"/>
</g>
<!-- User -->
<g id="node9" class="node"><title>User</title>
<ellipse fill="none" stroke="black" cx="432" cy="-327" rx="26.949" ry="18"/>
<text text-anchor="middle" x="432" y="-323.3" font-family="Times,serif" font-size="14.00">User</text>
</g>
<!-- User&#45;&gt;Dataset -->
<g id="edge10" class="edge"><title>User&#45;&gt;Dataset</title>
<path fill="none" stroke="#7d0fb0" d="M432,-300.729C432,-288.725 432,-274.362 432,-262.129"/>
<ellipse fill="none" stroke="#7d0fb0" cx="432" cy="-304.884" rx="4" ry="4"/>
<polygon fill="#7d0fb0" stroke="#7d0fb0" points="432,-262.04 436.5,-252.04 432,-257.04 432,-252.04 432,-252.04 432,-252.04 432,-257.04 427.5,-252.04 432,-262.04 432,-262.04"/>
</g>
</g>
</svg>
