<?xml version="1.0" encoding="UTF-8" standalone="no"?>
<!DOCTYPE svg PUBLIC "-//W3C//DTD SVG 1.1//EN"
 "http://www.w3.org/Graphics/SVG/1.1/DTD/svg11.dtd">
<!-- Generated by graphviz version 2.36.0 (20140111.2315)
 -->
<!-- Title: models_diagram Pages: 1 -->
<svg width="716pt" height="1078pt"
 viewBox="0.00 0.00 715.94 1078.00" xmlns="http://www.w3.org/2000/svg" xmlns:xlink="http://www.w3.org/1999/xlink">
<g id="graph0" class="graph" transform="scale(1 1) rotate(0) translate(4 1074)">
<title>models_diagram</title>
<polygon fill="none" stroke="none" points="-4,4 -4,-1074 711.935,-1074 711.935,4 -4,4"/>
<!-- _diagram_info -->
<g id="node1" class="node"><title>_diagram_info</title>
<text text-anchor="start" x="8" y="-958.6" font-family="Times,serif" font-size="13.00">Models diagram</text>
<text text-anchor="start" x="8" y="-944.6" font-family="Times,serif" font-size="13.00">Date: Aug 30 2017 &#45; 22:27</text>
<text text-anchor="start" x="8" y="-930.6" font-family="Times,serif" font-size="13.00">Migration version: 20170829120809</text>
<text text-anchor="start" x="8" y="-916.6" font-family="Times,serif" font-size="13.00">Generated by RailRoady 1.5.3</text>
<text text-anchor="start" x="8" y="-902.6" font-family="Times,serif" font-size="13.00">http://railroady.prestonlee.com</text>
</g>
<!-- ApplicationRecord -->
<g id="node2" class="node"><title>ApplicationRecord</title>
<ellipse fill="none" stroke="black" cx="309" cy="-934" rx="77.0154" ry="18"/>
<text text-anchor="middle" x="309" y="-930.3" font-family="Times,serif" font-size="14.00">ApplicationRecord</text>
</g>
<!-- Author -->
<g id="node3" class="node"><title>Author</title>
<path fill="none" stroke="black" d="M99.5,-640C99.5,-640 242.5,-640 242.5,-640 248.5,-640 254.5,-646 254.5,-652 254.5,-652 254.5,-734 254.5,-734 254.5,-740 248.5,-746 242.5,-746 242.5,-746 99.5,-746 99.5,-746 93.5,-746 87.5,-740 87.5,-734 87.5,-734 87.5,-652 87.5,-652 87.5,-646 93.5,-640 99.5,-640"/>
<text text-anchor="middle" x="171" y="-730.8" font-family="Times,serif" font-size="14.00">Author</text>
<polyline fill="none" stroke="black" points="87.5,-723 254.5,-723 "/>
<text text-anchor="start" x="95.5" y="-707.8" font-family="Times,serif" font-size="14.00">id :bigint(20)</text>
<text text-anchor="start" x="95.5" y="-692.8" font-family="Times,serif" font-size="14.00">given_name :varchar(255)</text>
<text text-anchor="start" x="95.5" y="-677.8" font-family="Times,serif" font-size="14.00">family_name :varchar(255)</text>
<text text-anchor="start" x="95.5" y="-662.8" font-family="Times,serif" font-size="14.00">created_at :datetime</text>
<text text-anchor="start" x="95.5" y="-647.8" font-family="Times,serif" font-size="14.00">updated_at :datetime</text>
</g>
<!-- Source -->
<g id="node6" class="node"><title>Source</title>
<path fill="none" stroke="black" d="M274.5,-316.5C274.5,-316.5 425.5,-316.5 425.5,-316.5 431.5,-316.5 437.5,-322.5 437.5,-328.5 437.5,-328.5 437.5,-575.5 437.5,-575.5 437.5,-581.5 431.5,-587.5 425.5,-587.5 425.5,-587.5 274.5,-587.5 274.5,-587.5 268.5,-587.5 262.5,-581.5 262.5,-575.5 262.5,-575.5 262.5,-328.5 262.5,-328.5 262.5,-322.5 268.5,-316.5 274.5,-316.5"/>
<text text-anchor="middle" x="350" y="-572.3" font-family="Times,serif" font-size="14.00">Source</text>
<polyline fill="none" stroke="black" points="262.5,-564.5 437.5,-564.5 "/>
<text text-anchor="start" x="270.5" y="-549.3" font-family="Times,serif" font-size="14.00">id :bigint(20)</text>
<text text-anchor="start" x="270.5" y="-534.3" font-family="Times,serif" font-size="14.00">citation :text</text>
<text text-anchor="start" x="270.5" y="-519.3" font-family="Times,serif" font-size="14.00">author_list :varchar(255)</text>
<text text-anchor="start" x="270.5" y="-504.3" font-family="Times,serif" font-size="14.00">year :int(11)</text>
<text text-anchor="start" x="270.5" y="-489.3" font-family="Times,serif" font-size="14.00">purpose :varchar(255)</text>
<text text-anchor="start" x="270.5" y="-474.3" font-family="Times,serif" font-size="14.00">topic_id :bigint(20)</text>
<text text-anchor="start" x="270.5" y="-459.3" font-family="Times,serif" font-size="14.00">discard_reason :varchar(255)</text>
<text text-anchor="start" x="270.5" y="-444.3" font-family="Times,serif" font-size="14.00">created_at :datetime</text>
<text text-anchor="start" x="270.5" y="-429.3" font-family="Times,serif" font-size="14.00">updated_at :datetime</text>
<text text-anchor="start" x="270.5" y="-414.3" font-family="Times,serif" font-size="14.00">title :text</text>
<text text-anchor="start" x="270.5" y="-399.3" font-family="Times,serif" font-size="14.00">dataset_id :bigint(20)</text>
<text text-anchor="start" x="270.5" y="-384.3" font-family="Times,serif" font-size="14.00">processed :tinyint(1)</text>
<text text-anchor="start" x="270.5" y="-369.3" font-family="Times,serif" font-size="14.00">refs_processed :tinyint(1)</text>
<text text-anchor="start" x="270.5" y="-354.3" font-family="Times,serif" font-size="14.00">word_cache :text</text>
<text text-anchor="start" x="270.5" y="-339.3" font-family="Times,serif" font-size="14.00">stem_cache :text</text>
<text text-anchor="start" x="270.5" y="-324.3" font-family="Times,serif" font-size="14.00">synonym_cache :text</text>
</g>
<!-- Author&#45;&gt;Source -->
<g id="edge1" class="edge"><title>Author&#45;&gt;Source</title>
<path fill="none" stroke="#8ae8e9" d="M216.17,-631.689C228.366,-615.405 242.031,-597.16 255.845,-578.716"/>
<polygon fill="#8ae8e9" stroke="#8ae8e9" points="216.056,-631.842 206.459,-637.148 213.058,-635.844 210.061,-639.846 210.061,-639.846 210.061,-639.846 213.058,-635.844 213.663,-642.543 216.056,-631.842 216.056,-631.842"/>
<polygon fill="#8ae8e9" stroke="#8ae8e9" points="256.202,-578.238 265.799,-572.932 259.2,-574.236 262.197,-570.234 262.197,-570.234 262.197,-570.234 259.2,-574.236 258.595,-567.536 256.202,-578.238 256.202,-578.238"/>
</g>
<!-- Dataset -->
<g id="node4" class="node"><title>Dataset</title>
<path fill="none" stroke="black" d="M457.5,-625C457.5,-625 564.5,-625 564.5,-625 570.5,-625 576.5,-631 576.5,-637 576.5,-637 576.5,-749 576.5,-749 576.5,-755 570.5,-761 564.5,-761 564.5,-761 457.5,-761 457.5,-761 451.5,-761 445.5,-755 445.5,-749 445.5,-749 445.5,-637 445.5,-637 445.5,-631 451.5,-625 457.5,-625"/>
<text text-anchor="middle" x="511" y="-745.8" font-family="Times,serif" font-size="14.00">Dataset</text>
<polyline fill="none" stroke="black" points="445.5,-738 576.5,-738 "/>
<text text-anchor="start" x="453.5" y="-722.8" font-family="Times,serif" font-size="14.00">id :bigint(20)</text>
<text text-anchor="start" x="453.5" y="-707.8" font-family="Times,serif" font-size="14.00">name :varchar(255)</text>
<text text-anchor="start" x="453.5" y="-692.8" font-family="Times,serif" font-size="14.00">user_id :bigint(20)</text>
<text text-anchor="start" x="453.5" y="-677.8" font-family="Times,serif" font-size="14.00">created_at :datetime</text>
<text text-anchor="start" x="453.5" y="-662.8" font-family="Times,serif" font-size="14.00">updated_at :datetime</text>
<text text-anchor="start" x="453.5" y="-647.8" font-family="Times,serif" font-size="14.00">load_pct :int(11)</text>
<text text-anchor="start" x="453.5" y="-632.8" font-family="Times,serif" font-size="14.00">stats_cache :text</text>
</g>
<!-- Factor -->
<g id="node5" class="node"><title>Factor</title>
<path fill="none" stroke="black" d="M544.5,-158.5C544.5,-158.5 651.5,-158.5 651.5,-158.5 657.5,-158.5 663.5,-164.5 663.5,-170.5 663.5,-170.5 663.5,-267.5 663.5,-267.5 663.5,-273.5 657.5,-279.5 651.5,-279.5 651.5,-279.5 544.5,-279.5 544.5,-279.5 538.5,-279.5 532.5,-273.5 532.5,-267.5 532.5,-267.5 532.5,-170.5 532.5,-170.5 532.5,-164.5 538.5,-158.5 544.5,-158.5"/>
<text text-anchor="middle" x="598" y="-264.3" font-family="Times,serif" font-size="14.00">Factor</text>
<polyline fill="none" stroke="black" points="532.5,-256.5 663.5,-256.5 "/>
<text text-anchor="start" x="540.5" y="-241.3" font-family="Times,serif" font-size="14.00">id :bigint(20)</text>
<text text-anchor="start" x="540.5" y="-226.3" font-family="Times,serif" font-size="14.00">source_id :bigint(20)</text>
<text text-anchor="start" x="540.5" y="-211.3" font-family="Times,serif" font-size="14.00">text :text</text>
<text text-anchor="start" x="540.5" y="-196.3" font-family="Times,serif" font-size="14.00">created_at :datetime</text>
<text text-anchor="start" x="540.5" y="-181.3" font-family="Times,serif" font-size="14.00">updated_at :datetime</text>
<text text-anchor="start" x="540.5" y="-166.3" font-family="Times,serif" font-size="14.00">unverified :text</text>
</g>
<!-- Dataset&#45;&gt;Factor -->
<g id="edge3" class="edge"><title>Dataset&#45;&gt;Factor</title>
<path fill="none" stroke="#a6374c" d="M525.214,-614.883C541.836,-524.707 569.108,-376.747 585.129,-289.831"/>
<polygon fill="#a6374c" stroke="#a6374c" points="525.185,-615.041 518.947,-624.059 524.279,-619.958 523.373,-624.875 523.373,-624.875 523.373,-624.875 524.279,-619.958 527.798,-625.691 525.185,-615.041 525.185,-615.041"/>
<polygon fill="#a6374c" stroke="#a6374c" points="585.165,-289.635 591.403,-280.617 586.071,-284.718 586.977,-279.801 586.977,-279.801 586.977,-279.801 586.071,-284.718 582.552,-278.985 585.165,-289.635 585.165,-289.635"/>
</g>
<!-- Dataset&#45;&gt;Source -->
<g id="edge2" class="edge"><title>Dataset&#45;&gt;Source</title>
<path fill="none" stroke="#ec9953" d="M461.109,-617.938C455.363,-609.409 449.374,-600.517 443.284,-591.477"/>
<ellipse fill="none" stroke="#ec9953" cx="463.489" cy="-621.472" rx="4.00002" ry="4.00002"/>
<polygon fill="#ec9953" stroke="#ec9953" points="443.254,-591.433 441.399,-580.625 440.461,-587.286 437.667,-583.139 437.667,-583.139 437.667,-583.139 440.461,-587.286 433.935,-585.654 443.254,-591.433 443.254,-591.433"/>
</g>
<!-- Stem -->
<g id="node7" class="node"><title>Stem</title>
<path fill="none" stroke="black" d="M246.5,-173.5C246.5,-173.5 353.5,-173.5 353.5,-173.5 359.5,-173.5 365.5,-179.5 365.5,-185.5 365.5,-185.5 365.5,-252.5 365.5,-252.5 365.5,-258.5 359.5,-264.5 353.5,-264.5 353.5,-264.5 246.5,-264.5 246.5,-264.5 240.5,-264.5 234.5,-258.5 234.5,-252.5 234.5,-252.5 234.5,-185.5 234.5,-185.5 234.5,-179.5 240.5,-173.5 246.5,-173.5"/>
<text text-anchor="middle" x="300" y="-249.3" font-family="Times,serif" font-size="14.00">Stem</text>
<polyline fill="none" stroke="black" points="234.5,-241.5 365.5,-241.5 "/>
<text text-anchor="start" x="242.5" y="-226.3" font-family="Times,serif" font-size="14.00">id :bigint(20)</text>
<text text-anchor="start" x="242.5" y="-211.3" font-family="Times,serif" font-size="14.00">word :varchar(255)</text>
<text text-anchor="start" x="242.5" y="-196.3" font-family="Times,serif" font-size="14.00">created_at :datetime</text>
<text text-anchor="start" x="242.5" y="-181.3" font-family="Times,serif" font-size="14.00">updated_at :datetime</text>
</g>
<!-- Dataset&#45;&gt;Stem -->
<g id="edge5" class="edge"><title>Dataset&#45;&gt;Stem</title>
<path fill="none" stroke="#7f59fd" d="M488.262,-615.113C485.959,-606.019 483.807,-596.833 482,-588 469.781,-528.265 481.256,-365.745 446,-316 425.542,-287.134 404.748,-299.152 375,-280 370.443,-277.066 365.835,-273.911 361.261,-270.636"/>
<polygon fill="#7f59fd" stroke="#7f59fd" points="488.296,-615.245 486.456,-626.055 489.554,-620.084 490.811,-624.923 490.811,-624.923 490.811,-624.923 489.554,-620.084 495.167,-623.791 488.296,-615.245 488.296,-615.245"/>
<polygon fill="#7f59fd" stroke="#7f59fd" points="361.147,-270.553 355.747,-261.009 357.116,-267.595 353.085,-264.637 353.085,-264.637 353.085,-264.637 357.116,-267.595 350.423,-268.265 361.147,-270.553 361.147,-270.553"/>
</g>
<!-- Synonym -->
<g id="node8" class="node"><title>Synonym</title>
<path fill="none" stroke="black" d="M395.5,-173.5C395.5,-173.5 502.5,-173.5 502.5,-173.5 508.5,-173.5 514.5,-179.5 514.5,-185.5 514.5,-185.5 514.5,-252.5 514.5,-252.5 514.5,-258.5 508.5,-264.5 502.5,-264.5 502.5,-264.5 395.5,-264.5 395.5,-264.5 389.5,-264.5 383.5,-258.5 383.5,-252.5 383.5,-252.5 383.5,-185.5 383.5,-185.5 383.5,-179.5 389.5,-173.5 395.5,-173.5"/>
<text text-anchor="middle" x="449" y="-249.3" font-family="Times,serif" font-size="14.00">Synonym</text>
<polyline fill="none" stroke="black" points="383.5,-241.5 514.5,-241.5 "/>
<text text-anchor="start" x="391.5" y="-226.3" font-family="Times,serif" font-size="14.00">id :bigint(20)</text>
<text text-anchor="start" x="391.5" y="-211.3" font-family="Times,serif" font-size="14.00">word :varchar(255)</text>
<text text-anchor="start" x="391.5" y="-196.3" font-family="Times,serif" font-size="14.00">created_at :datetime</text>
<text text-anchor="start" x="391.5" y="-181.3" font-family="Times,serif" font-size="14.00">updated_at :datetime</text>
</g>
<!-- Dataset&#45;&gt;Synonym -->
<g id="edge6" class="edge"><title>Dataset&#45;&gt;Synonym</title>
<path fill="none" stroke="#227b50" d="M510.746,-614.676C509.161,-538.096 503.075,-417.855 482,-316 479.155,-302.251 474.885,-287.763 470.353,-274.327"/>
<polygon fill="#227b50" stroke="#227b50" points="510.746,-614.723 506.433,-624.806 510.84,-619.723 510.933,-624.722 510.933,-624.722 510.933,-624.722 510.84,-619.723 515.432,-624.638 510.746,-614.723 510.746,-614.723"/>
<polygon fill="#227b50" stroke="#227b50" points="470.308,-274.2 471.273,-263.276 468.665,-269.477 467.022,-264.755 467.022,-264.755 467.022,-264.755 468.665,-269.477 462.772,-266.234 470.308,-274.2 470.308,-274.2"/>
</g>
<!-- Word -->
<g id="node11" class="node"><title>Word</title>
<path fill="none" stroke="black" d="M388.5,-0.5C388.5,-0.5 509.5,-0.5 509.5,-0.5 515.5,-0.5 521.5,-6.5 521.5,-12.5 521.5,-12.5 521.5,-109.5 521.5,-109.5 521.5,-115.5 515.5,-121.5 509.5,-121.5 509.5,-121.5 388.5,-121.5 388.5,-121.5 382.5,-121.5 376.5,-115.5 376.5,-109.5 376.5,-109.5 376.5,-12.5 376.5,-12.5 376.5,-6.5 382.5,-0.5 388.5,-0.5"/>
<text text-anchor="middle" x="449" y="-106.3" font-family="Times,serif" font-size="14.00">Word</text>
<polyline fill="none" stroke="black" points="376.5,-98.5 521.5,-98.5 "/>
<text text-anchor="start" x="384.5" y="-83.3" font-family="Times,serif" font-size="14.00">id :bigint(20)</text>
<text text-anchor="start" x="384.5" y="-68.3" font-family="Times,serif" font-size="14.00">raw :varchar(255)</text>
<text text-anchor="start" x="384.5" y="-53.3" font-family="Times,serif" font-size="14.00">stem_id :bigint(20)</text>
<text text-anchor="start" x="384.5" y="-38.3" font-family="Times,serif" font-size="14.00">created_at :datetime</text>
<text text-anchor="start" x="384.5" y="-23.3" font-family="Times,serif" font-size="14.00">updated_at :datetime</text>
<text text-anchor="start" x="384.5" y="-8.3" font-family="Times,serif" font-size="14.00">syn_checked :tinyint(1)</text>
</g>
<!-- Dataset&#45;&gt;Word -->
<g id="edge4" class="edge"><title>Dataset&#45;&gt;Word</title>
<path fill="none" stroke="#058ef9" d="M571.045,-616.468C649.866,-507.469 767.602,-303.24 672,-158 640.931,-110.8 581.247,-86.708 531.438,-74.4661"/>
<polygon fill="#058ef9" stroke="#058ef9" points="570.865,-616.714 561.334,-622.136 567.917,-620.752 564.968,-624.79 564.968,-624.79 564.968,-624.79 567.917,-620.752 568.603,-627.444 570.865,-616.714 570.865,-616.714"/>
<polygon fill="#058ef9" stroke="#058ef9" points="531.357,-74.4473 522.643,-67.7904 526.488,-73.3099 521.619,-72.1724 521.619,-72.1724 521.619,-72.1724 526.488,-73.3099 520.595,-76.5544 531.357,-74.4473 531.357,-74.4473"/>
</g>
<!-- Factor&#45;&gt;Word -->
<g id="edge7" class="edge"><title>Factor&#45;&gt;Word</title>
<path fill="none" stroke="#a342ea" d="M533.806,-150.79C527.022,-143.687 520.121,-136.463 513.336,-129.358"/>
<polygon fill="#a342ea" stroke="#a342ea" points="533.912,-150.901 537.565,-161.241 537.365,-154.517 540.819,-158.132 540.819,-158.132 540.819,-158.132 537.365,-154.517 544.073,-155.024 533.912,-150.901 533.912,-150.901"/>
<polygon fill="#a342ea" stroke="#a342ea" points="512.935,-128.939 509.282,-118.599 509.482,-125.323 506.028,-121.707 506.028,-121.707 506.028,-121.707 509.482,-125.323 502.774,-124.815 512.935,-128.939 512.935,-128.939"/>
</g>
<!-- Source&#45;&gt;Factor -->
<g id="edge8" class="edge"><title>Source&#45;&gt;Factor</title>
<path fill="none" stroke="#cf836d" d="M443.753,-363.673C471.079,-338.221 500.492,-310.824 526.231,-286.85"/>
<ellipse fill="none" stroke="#cf836d" cx="440.712" cy="-366.507" rx="4.00002" ry="4.00002"/>
<polygon fill="#cf836d" stroke="#cf836d" points="526.423,-286.671 536.807,-283.148 530.081,-283.263 533.74,-279.855 533.74,-279.855 533.74,-279.855 530.081,-283.263 530.673,-276.562 526.423,-286.671 526.423,-286.671"/>
</g>
<!-- Source&#45;&gt;Stem -->
<g id="edge10" class="edge"><title>Source&#45;&gt;Stem</title>
<path fill="none" stroke="#5ca074" d="M318.688,-306.338C316.276,-295.196 313.948,-284.442 311.803,-274.528"/>
<polygon fill="#5ca074" stroke="#5ca074" points="318.727,-306.518 316.444,-317.244 319.785,-311.405 320.842,-316.292 320.842,-316.292 320.842,-316.292 319.785,-311.405 325.241,-315.34 318.727,-306.518 318.727,-306.518"/>
<polygon fill="#5ca074" stroke="#5ca074" points="311.752,-274.294 314.034,-263.568 310.694,-269.407 309.636,-264.52 309.636,-264.52 309.636,-264.52 310.694,-269.407 305.238,-265.472 311.752,-274.294 311.752,-274.294"/>
</g>
<!-- Source&#45;&gt;Synonym -->
<g id="edge11" class="edge"><title>Source&#45;&gt;Synonym</title>
<path fill="none" stroke="#f77e10" d="M411.814,-306.767C416.741,-295.272 421.493,-284.183 425.859,-273.995"/>
<polygon fill="#f77e10" stroke="#f77e10" points="411.671,-307.101 403.596,-314.519 409.702,-311.696 407.732,-316.292 407.732,-316.292 407.732,-316.292 409.702,-311.696 411.868,-318.065 411.671,-307.101 411.671,-307.101"/>
<polygon fill="#f77e10" stroke="#f77e10" points="425.981,-273.711 434.056,-266.293 427.95,-269.116 429.92,-264.52 429.92,-264.52 429.92,-264.52 427.95,-269.116 425.784,-262.747 425.981,-273.711 425.981,-273.711"/>
</g>
<!-- Source&#45;&gt;Word -->
<g id="edge9" class="edge"><title>Source&#45;&gt;Word</title>
<path fill="none" stroke="#1a3617" d="M256.408,-346.141C216.346,-288.12 186.625,-216.197 225,-158 256.279,-110.564 316.386,-86.4778 366.466,-74.2979"/>
<polygon fill="#1a3617" stroke="#1a3617" points="256.614,-346.433 258.712,-357.196 259.5,-350.515 262.387,-354.598 262.387,-354.598 262.387,-354.598 259.5,-350.515 266.061,-352 256.614,-346.433 256.614,-346.433"/>
<polygon fill="#1a3617" stroke="#1a3617" points="366.594,-74.2685 377.35,-76.4018 371.465,-73.1429 376.337,-72.0173 376.337,-72.0173 376.337,-72.0173 371.465,-73.1429 375.324,-67.6328 366.594,-74.2685 366.594,-74.2685"/>
</g>
<!-- Stem&#45;&gt;Word -->
<g id="edge12" class="edge"><title>Stem&#45;&gt;Word</title>
<path fill="none" stroke="#7bec07" d="M348.568,-167.151C360.195,-154.977 372.786,-141.795 384.993,-129.014"/>
<ellipse fill="none" stroke="#7bec07" cx="345.46" cy="-170.404" rx="4.00002" ry="4.00002"/>
<polygon fill="#7bec07" stroke="#7bec07" points="385.219,-128.778 395.38,-124.654 388.672,-125.162 392.126,-121.546 392.126,-121.546 392.126,-121.546 388.672,-125.162 388.871,-118.438 385.219,-128.778 385.219,-128.778"/>
</g>
<!-- Synonym&#45;&gt;Word -->
<g id="edge13" class="edge"><title>Synonym&#45;&gt;Word</title>
<path fill="none" stroke="#4eba72" d="M449,-163.217C449,-153.002 449,-142.202 449,-131.611"/>
<polygon fill="#4eba72" stroke="#4eba72" points="449,-163.297 444.5,-173.297 449,-168.297 449,-173.297 449,-173.297 449,-173.297 449,-168.297 453.5,-173.297 449,-163.297 449,-163.297"/>
<polygon fill="#4eba72" stroke="#4eba72" points="449,-131.546 453.5,-121.546 449,-126.546 449,-121.546 449,-121.546 449,-121.546 449,-126.546 444.5,-121.546 449,-131.546 449,-131.546"/>
</g>
<!-- Topic -->
<g id="node9" class="node"><title>Topic</title>
<path fill="none" stroke="black" d="M285,-640C285,-640 415,-640 415,-640 421,-640 427,-646 427,-652 427,-652 427,-734 427,-734 427,-740 421,-746 415,-746 415,-746 285,-746 285,-746 279,-746 273,-740 273,-734 273,-734 273,-652 273,-652 273,-646 279,-640 285,-640"/>
<text text-anchor="middle" x="350" y="-730.8" font-family="Times,serif" font-size="14.00">Topic</text>
<polyline fill="none" stroke="black" points="273,-723 427,-723 "/>
<text text-anchor="start" x="281" y="-707.8" font-family="Times,serif" font-size="14.00">id :bigint(20)</text>
<text text-anchor="start" x="281" y="-692.8" font-family="Times,serif" font-size="14.00">name :varchar(255)</text>
<text text-anchor="start" x="281" y="-677.8" font-family="Times,serif" font-size="14.00">description :varchar(255)</text>
<text text-anchor="start" x="281" y="-662.8" font-family="Times,serif" font-size="14.00">created_at :datetime</text>
<text text-anchor="start" x="281" y="-647.8" font-family="Times,serif" font-size="14.00">updated_at :datetime</text>
</g>
<!-- Topic&#45;&gt;Source -->
<g id="edge14" class="edge"><title>Topic&#45;&gt;Source</title>
<path fill="none" stroke="#925e38" d="M350,-631.578C350,-621.079 350,-609.767 350,-598.114"/>
<ellipse fill="none" stroke="#925e38" cx="350" cy="-635.846" rx="4" ry="4"/>
<polygon fill="#925e38" stroke="#925e38" points="350,-597.797 354.5,-587.797 350,-592.797 350,-587.797 350,-587.797 350,-587.797 350,-592.797 345.5,-587.797 350,-597.797 350,-597.797"/>
</g>
<!-- User -->
<g id="node10" class="node"><title>User</title>
<path fill="none" stroke="black" d="M416,-798.5C416,-798.5 606,-798.5 606,-798.5 612,-798.5 618,-804.5 618,-810.5 618,-810.5 618,-1057.5 618,-1057.5 618,-1063.5 612,-1069.5 606,-1069.5 606,-1069.5 416,-1069.5 416,-1069.5 410,-1069.5 404,-1063.5 404,-1057.5 404,-1057.5 404,-810.5 404,-810.5 404,-804.5 410,-798.5 416,-798.5"/>
<text text-anchor="middle" x="511" y="-1054.3" font-family="Times,serif" font-size="14.00">User</text>
<polyline fill="none" stroke="black" points="404,-1046.5 618,-1046.5 "/>
<text text-anchor="start" x="412" y="-1031.3" font-family="Times,serif" font-size="14.00">id :bigint(20)</text>
<text text-anchor="start" x="412" y="-1016.3" font-family="Times,serif" font-size="14.00">email :varchar(255)</text>
<text text-anchor="start" x="412" y="-1001.3" font-family="Times,serif" font-size="14.00">encrypted_password :varchar(255)</text>
<text text-anchor="start" x="412" y="-986.3" font-family="Times,serif" font-size="14.00">reset_password_token :varchar(255)</text>
<text text-anchor="start" x="412" y="-971.3" font-family="Times,serif" font-size="14.00">reset_password_sent_at :datetime</text>
<text text-anchor="start" x="412" y="-956.3" font-family="Times,serif" font-size="14.00">remember_created_at :datetime</text>
<text text-anchor="start" x="412" y="-941.3" font-family="Times,serif" font-size="14.00">sign_in_count :int(11)</text>
<text text-anchor="start" x="412" y="-926.3" font-family="Times,serif" font-size="14.00">current_sign_in_at :datetime</text>
<text text-anchor="start" x="412" y="-911.3" font-family="Times,serif" font-size="14.00">last_sign_in_at :datetime</text>
<text text-anchor="start" x="412" y="-896.3" font-family="Times,serif" font-size="14.00">current_sign_in_ip :varchar(255)</text>
<text text-anchor="start" x="412" y="-881.3" font-family="Times,serif" font-size="14.00">last_sign_in_ip :varchar(255)</text>
<text text-anchor="start" x="412" y="-866.3" font-family="Times,serif" font-size="14.00">created_at :datetime</text>
<text text-anchor="start" x="412" y="-851.3" font-family="Times,serif" font-size="14.00">updated_at :datetime</text>
<text text-anchor="start" x="412" y="-836.3" font-family="Times,serif" font-size="14.00">token :text</text>
<text text-anchor="start" x="412" y="-821.3" font-family="Times,serif" font-size="14.00">refresh_token :text</text>
<text text-anchor="start" x="412" y="-806.3" font-family="Times,serif" font-size="14.00">expires_at :int(11)</text>
</g>
<!-- User&#45;&gt;Dataset -->
<g id="edge15" class="edge"><title>User&#45;&gt;Dataset</title>
<path fill="none" stroke="#430a8f" d="M511,-790.391C511,-783.962 511,-777.627 511,-771.462"/>
<ellipse fill="none" stroke="#430a8f" cx="511" cy="-794.481" rx="4" ry="4"/>
<polygon fill="#430a8f" stroke="#430a8f" points="511,-771.262 515.5,-761.262 511,-766.262 511,-761.262 511,-761.262 511,-761.262 511,-766.262 506.5,-761.263 511,-771.262 511,-771.262"/>
</g>
</g>
</svg>
