<?xml version="1.0" encoding="UTF-8" standalone="no"?>
<!DOCTYPE svg PUBLIC "-//W3C//DTD SVG 1.1//EN"
 "http://www.w3.org/Graphics/SVG/1.1/DTD/svg11.dtd">
<!-- Generated by graphviz version 2.36.0 (20140111.2315)
 -->
<!-- Title: models_diagram Pages: 1 -->
<svg width="757pt" height="932pt"
 viewBox="0.00 0.00 757.00 932.00" xmlns="http://www.w3.org/2000/svg" xmlns:xlink="http://www.w3.org/1999/xlink">
<g id="graph0" class="graph" transform="scale(1 1) rotate(0) translate(4 928)">
<title>models_diagram</title>
<polygon fill="none" stroke="none" points="-4,4 -4,-928 753,-928 753,4 -4,4"/>
<!-- _diagram_info -->
<g id="node1" class="node"><title>_diagram_info</title>
<text text-anchor="start" x="8" y="-819.6" font-family="Times,serif" font-size="13.00">Models diagram</text>
<text text-anchor="start" x="8" y="-805.6" font-family="Times,serif" font-size="13.00">Date: Jul 11 2017 &#45; 19:32</text>
<text text-anchor="start" x="8" y="-791.6" font-family="Times,serif" font-size="13.00">Migration version: 20170705112847</text>
<text text-anchor="start" x="8" y="-777.6" font-family="Times,serif" font-size="13.00">Generated by RailRoady 1.5.3</text>
<text text-anchor="start" x="8" y="-763.6" font-family="Times,serif" font-size="13.00">http://railroady.prestonlee.com</text>
</g>
<!-- ApplicationRecord -->
<g id="node2" class="node"><title>ApplicationRecord</title>
<ellipse fill="none" stroke="black" cx="309" cy="-795" rx="77.0154" ry="18"/>
<text text-anchor="middle" x="309" y="-791.3" font-family="Times,serif" font-size="14.00">ApplicationRecord</text>
</g>
<!-- Author -->
<g id="node3" class="node"><title>Author</title>
<path fill="none" stroke="black" d="M272.5,-523C272.5,-523 415.5,-523 415.5,-523 421.5,-523 427.5,-529 427.5,-535 427.5,-535 427.5,-617 427.5,-617 427.5,-623 421.5,-629 415.5,-629 415.5,-629 272.5,-629 272.5,-629 266.5,-629 260.5,-623 260.5,-617 260.5,-617 260.5,-535 260.5,-535 260.5,-529 266.5,-523 272.5,-523"/>
<text text-anchor="middle" x="344" y="-613.8" font-family="Times,serif" font-size="14.00">Author</text>
<polyline fill="none" stroke="black" points="260.5,-606 427.5,-606 "/>
<text text-anchor="start" x="268.5" y="-590.8" font-family="Times,serif" font-size="14.00">id :bigint(20)</text>
<text text-anchor="start" x="268.5" y="-575.8" font-family="Times,serif" font-size="14.00">given_name :varchar(255)</text>
<text text-anchor="start" x="268.5" y="-560.8" font-family="Times,serif" font-size="14.00">family_name :varchar(255)</text>
<text text-anchor="start" x="268.5" y="-545.8" font-family="Times,serif" font-size="14.00">created_at :datetime</text>
<text text-anchor="start" x="268.5" y="-530.8" font-family="Times,serif" font-size="14.00">updated_at :datetime</text>
</g>
<!-- Source -->
<g id="node6" class="node"><title>Source</title>
<path fill="none" stroke="black" d="M435.5,-289C435.5,-289 586.5,-289 586.5,-289 592.5,-289 598.5,-295 598.5,-301 598.5,-301 598.5,-473 598.5,-473 598.5,-479 592.5,-485 586.5,-485 586.5,-485 435.5,-485 435.5,-485 429.5,-485 423.5,-479 423.5,-473 423.5,-473 423.5,-301 423.5,-301 423.5,-295 429.5,-289 435.5,-289"/>
<text text-anchor="middle" x="511" y="-469.8" font-family="Times,serif" font-size="14.00">Source</text>
<polyline fill="none" stroke="black" points="423.5,-462 598.5,-462 "/>
<text text-anchor="start" x="431.5" y="-446.8" font-family="Times,serif" font-size="14.00">id :bigint(20)</text>
<text text-anchor="start" x="431.5" y="-431.8" font-family="Times,serif" font-size="14.00">citation :text</text>
<text text-anchor="start" x="431.5" y="-416.8" font-family="Times,serif" font-size="14.00">author_list :varchar(255)</text>
<text text-anchor="start" x="431.5" y="-401.8" font-family="Times,serif" font-size="14.00">year :int(11)</text>
<text text-anchor="start" x="431.5" y="-386.8" font-family="Times,serif" font-size="14.00">purpose :varchar(255)</text>
<text text-anchor="start" x="431.5" y="-371.8" font-family="Times,serif" font-size="14.00">topic_id :bigint(20)</text>
<text text-anchor="start" x="431.5" y="-356.8" font-family="Times,serif" font-size="14.00">discard_reason :varchar(255)</text>
<text text-anchor="start" x="431.5" y="-341.8" font-family="Times,serif" font-size="14.00">created_at :datetime</text>
<text text-anchor="start" x="431.5" y="-326.8" font-family="Times,serif" font-size="14.00">updated_at :datetime</text>
<text text-anchor="start" x="431.5" y="-311.8" font-family="Times,serif" font-size="14.00">title :varchar(255)</text>
<text text-anchor="start" x="431.5" y="-296.8" font-family="Times,serif" font-size="14.00">dataset_id :bigint(20)</text>
</g>
<!-- Author&#45;&gt;Source -->
<g id="edge1" class="edge"><title>Author&#45;&gt;Source</title>
<path fill="none" stroke="#3ae422" d="M397.298,-515.319C403.745,-508.099 410.47,-500.569 417.287,-492.936"/>
<polygon fill="#3ae422" stroke="#3ae422" points="397.18,-515.451 387.162,-519.913 393.849,-519.181 390.519,-522.91 390.519,-522.91 390.519,-522.91 393.849,-519.181 393.875,-525.908 397.18,-515.451 397.18,-515.451"/>
<polygon fill="#3ae422" stroke="#3ae422" points="417.467,-492.735 427.484,-488.274 420.797,-489.006 424.128,-485.276 424.128,-485.276 424.128,-485.276 420.797,-489.006 420.771,-482.279 417.467,-492.735 417.467,-492.735"/>
</g>
<!-- Dataset -->
<g id="node4" class="node"><title>Dataset</title>
<path fill="none" stroke="black" d="M457.5,-523C457.5,-523 564.5,-523 564.5,-523 570.5,-523 576.5,-529 576.5,-535 576.5,-535 576.5,-617 576.5,-617 576.5,-623 570.5,-629 564.5,-629 564.5,-629 457.5,-629 457.5,-629 451.5,-629 445.5,-623 445.5,-617 445.5,-617 445.5,-535 445.5,-535 445.5,-529 451.5,-523 457.5,-523"/>
<text text-anchor="middle" x="511" y="-613.8" font-family="Times,serif" font-size="14.00">Dataset</text>
<polyline fill="none" stroke="black" points="445.5,-606 576.5,-606 "/>
<text text-anchor="start" x="453.5" y="-590.8" font-family="Times,serif" font-size="14.00">id :bigint(20)</text>
<text text-anchor="start" x="453.5" y="-575.8" font-family="Times,serif" font-size="14.00">name :varchar(255)</text>
<text text-anchor="start" x="453.5" y="-560.8" font-family="Times,serif" font-size="14.00">user_id :bigint(20)</text>
<text text-anchor="start" x="453.5" y="-545.8" font-family="Times,serif" font-size="14.00">created_at :datetime</text>
<text text-anchor="start" x="453.5" y="-530.8" font-family="Times,serif" font-size="14.00">updated_at :datetime</text>
</g>
<!-- Dataset&#45;&gt;Source -->
<g id="edge2" class="edge"><title>Dataset&#45;&gt;Source</title>
<path fill="none" stroke="#aa4100" d="M511,-514.746C511,-508.54 511,-502.11 511,-495.586"/>
<ellipse fill="none" stroke="#aa4100" cx="511" cy="-518.91" rx="4" ry="4"/>
<polygon fill="#aa4100" stroke="#aa4100" points="511,-495.276 515.5,-485.276 511,-490.276 511,-485.276 511,-485.276 511,-485.276 511,-490.276 506.5,-485.276 511,-495.276 511,-495.276"/>
</g>
<!-- Factor -->
<g id="node5" class="node"><title>Factor</title>
<path fill="none" stroke="black" d="M457.5,-145C457.5,-145 564.5,-145 564.5,-145 570.5,-145 576.5,-151 576.5,-157 576.5,-157 576.5,-239 576.5,-239 576.5,-245 570.5,-251 564.5,-251 564.5,-251 457.5,-251 457.5,-251 451.5,-251 445.5,-245 445.5,-239 445.5,-239 445.5,-157 445.5,-157 445.5,-151 451.5,-145 457.5,-145"/>
<text text-anchor="middle" x="511" y="-235.8" font-family="Times,serif" font-size="14.00">Factor</text>
<polyline fill="none" stroke="black" points="445.5,-228 576.5,-228 "/>
<text text-anchor="start" x="453.5" y="-212.8" font-family="Times,serif" font-size="14.00">id :bigint(20)</text>
<text text-anchor="start" x="453.5" y="-197.8" font-family="Times,serif" font-size="14.00">source_id :bigint(20)</text>
<text text-anchor="start" x="453.5" y="-182.8" font-family="Times,serif" font-size="14.00">text :text</text>
<text text-anchor="start" x="453.5" y="-167.8" font-family="Times,serif" font-size="14.00">created_at :datetime</text>
<text text-anchor="start" x="453.5" y="-152.8" font-family="Times,serif" font-size="14.00">updated_at :datetime</text>
</g>
<!-- Word -->
<g id="node10" class="node"><title>Word</title>
<path fill="none" stroke="black" d="M531.5,-1C531.5,-1 638.5,-1 638.5,-1 644.5,-1 650.5,-7 650.5,-13 650.5,-13 650.5,-95 650.5,-95 650.5,-101 644.5,-107 638.5,-107 638.5,-107 531.5,-107 531.5,-107 525.5,-107 519.5,-101 519.5,-95 519.5,-95 519.5,-13 519.5,-13 519.5,-7 525.5,-1 531.5,-1"/>
<text text-anchor="middle" x="585" y="-91.8" font-family="Times,serif" font-size="14.00">Word</text>
<polyline fill="none" stroke="black" points="519.5,-84 650.5,-84 "/>
<text text-anchor="start" x="527.5" y="-68.8" font-family="Times,serif" font-size="14.00">id :bigint(20)</text>
<text text-anchor="start" x="527.5" y="-53.8" font-family="Times,serif" font-size="14.00">raw :varchar(255)</text>
<text text-anchor="start" x="527.5" y="-38.8" font-family="Times,serif" font-size="14.00">stem_id :bigint(20)</text>
<text text-anchor="start" x="527.5" y="-23.8" font-family="Times,serif" font-size="14.00">created_at :datetime</text>
<text text-anchor="start" x="527.5" y="-8.8" font-family="Times,serif" font-size="14.00">updated_at :datetime</text>
</g>
<!-- Factor&#45;&gt;Word -->
<g id="edge3" class="edge"><title>Factor&#45;&gt;Word</title>
<path fill="none" stroke="#021b4c" d="M542.873,-135.838C546.308,-129.247 549.803,-122.541 553.236,-115.952"/>
<polygon fill="#021b4c" stroke="#021b4c" points="542.756,-136.063 534.144,-142.851 540.445,-140.497 538.135,-144.931 538.135,-144.931 538.135,-144.931 540.445,-140.497 542.125,-147.01 542.756,-136.063 542.756,-136.063"/>
<polygon fill="#021b4c" stroke="#021b4c" points="553.247,-115.931 561.859,-109.143 555.558,-111.497 557.869,-107.063 557.869,-107.063 557.869,-107.063 555.558,-111.497 553.878,-104.983 553.247,-115.931 553.247,-115.931"/>
</g>
<!-- Source&#45;&gt;Factor -->
<g id="edge4" class="edge"><title>Source&#45;&gt;Factor</title>
<path fill="none" stroke="#ee21dc" d="M511,-280.745C511,-274.224 511,-267.78 511,-261.543"/>
<ellipse fill="none" stroke="#ee21dc" cx="511" cy="-284.94" rx="4" ry="4"/>
<polygon fill="#ee21dc" stroke="#ee21dc" points="511,-261.266 515.5,-251.266 511,-256.266 511,-251.266 511,-251.266 511,-251.266 511,-256.266 506.5,-251.266 511,-261.266 511,-261.266"/>
</g>
<!-- Stem -->
<g id="node7" class="node"><title>Stem</title>
<path fill="none" stroke="black" d="M606.5,-152.5C606.5,-152.5 713.5,-152.5 713.5,-152.5 719.5,-152.5 725.5,-158.5 725.5,-164.5 725.5,-164.5 725.5,-231.5 725.5,-231.5 725.5,-237.5 719.5,-243.5 713.5,-243.5 713.5,-243.5 606.5,-243.5 606.5,-243.5 600.5,-243.5 594.5,-237.5 594.5,-231.5 594.5,-231.5 594.5,-164.5 594.5,-164.5 594.5,-158.5 600.5,-152.5 606.5,-152.5"/>
<text text-anchor="middle" x="660" y="-228.3" font-family="Times,serif" font-size="14.00">Stem</text>
<polyline fill="none" stroke="black" points="594.5,-220.5 725.5,-220.5 "/>
<text text-anchor="start" x="602.5" y="-205.3" font-family="Times,serif" font-size="14.00">id :bigint(20)</text>
<text text-anchor="start" x="602.5" y="-190.3" font-family="Times,serif" font-size="14.00">word :varchar(255)</text>
<text text-anchor="start" x="602.5" y="-175.3" font-family="Times,serif" font-size="14.00">created_at :datetime</text>
<text text-anchor="start" x="602.5" y="-160.3" font-family="Times,serif" font-size="14.00">updated_at :datetime</text>
</g>
<!-- Stem&#45;&gt;Word -->
<g id="edge5" class="edge"><title>Stem&#45;&gt;Word</title>
<path fill="none" stroke="#1c4e3b" d="M632.667,-145.25C627.639,-135.73 622.347,-125.711 617.192,-115.95"/>
<ellipse fill="none" stroke="#1c4e3b" cx="634.607" cy="-148.923" rx="4.00002" ry="4.00002"/>
<polygon fill="#1c4e3b" stroke="#1c4e3b" points="617.178,-115.923 616.487,-104.979 614.843,-111.502 612.508,-107.081 612.508,-107.081 612.508,-107.081 614.843,-111.502 608.528,-109.183 617.178,-115.923 617.178,-115.923"/>
</g>
<!-- Topic -->
<g id="node8" class="node"><title>Topic</title>
<path fill="none" stroke="black" d="M607,-523C607,-523 737,-523 737,-523 743,-523 749,-529 749,-535 749,-535 749,-617 749,-617 749,-623 743,-629 737,-629 737,-629 607,-629 607,-629 601,-629 595,-623 595,-617 595,-617 595,-535 595,-535 595,-529 601,-523 607,-523"/>
<text text-anchor="middle" x="672" y="-613.8" font-family="Times,serif" font-size="14.00">Topic</text>
<polyline fill="none" stroke="black" points="595,-606 749,-606 "/>
<text text-anchor="start" x="603" y="-590.8" font-family="Times,serif" font-size="14.00">id :bigint(20)</text>
<text text-anchor="start" x="603" y="-575.8" font-family="Times,serif" font-size="14.00">name :varchar(255)</text>
<text text-anchor="start" x="603" y="-560.8" font-family="Times,serif" font-size="14.00">description :varchar(255)</text>
<text text-anchor="start" x="603" y="-545.8" font-family="Times,serif" font-size="14.00">created_at :datetime</text>
<text text-anchor="start" x="603" y="-530.8" font-family="Times,serif" font-size="14.00">updated_at :datetime</text>
</g>
<!-- Topic&#45;&gt;Source -->
<g id="edge6" class="edge"><title>Topic&#45;&gt;Source</title>
<path fill="none" stroke="#bf6263" d="M621.844,-516.744C615.291,-509.133 608.424,-501.157 601.456,-493.064"/>
<ellipse fill="none" stroke="#bf6263" cx="624.543" cy="-519.879" rx="4.00002" ry="4.00002"/>
<polygon fill="#bf6263" stroke="#bf6263" points="601.276,-492.855 598.161,-482.34 598.014,-489.065 594.751,-485.276 594.751,-485.276 594.751,-485.276 598.014,-489.065 591.341,-488.212 601.276,-492.855 601.276,-492.855"/>
</g>
<!-- User -->
<g id="node9" class="node"><title>User</title>
<path fill="none" stroke="black" d="M416,-667C416,-667 606,-667 606,-667 612,-667 618,-673 618,-679 618,-679 618,-911 618,-911 618,-917 612,-923 606,-923 606,-923 416,-923 416,-923 410,-923 404,-917 404,-911 404,-911 404,-679 404,-679 404,-673 410,-667 416,-667"/>
<text text-anchor="middle" x="511" y="-907.8" font-family="Times,serif" font-size="14.00">User</text>
<polyline fill="none" stroke="black" points="404,-900 618,-900 "/>
<text text-anchor="start" x="412" y="-884.8" font-family="Times,serif" font-size="14.00">id :bigint(20)</text>
<text text-anchor="start" x="412" y="-869.8" font-family="Times,serif" font-size="14.00">email :varchar(255)</text>
<text text-anchor="start" x="412" y="-854.8" font-family="Times,serif" font-size="14.00">encrypted_password :varchar(255)</text>
<text text-anchor="start" x="412" y="-839.8" font-family="Times,serif" font-size="14.00">reset_password_token :varchar(255)</text>
<text text-anchor="start" x="412" y="-824.8" font-family="Times,serif" font-size="14.00">reset_password_sent_at :datetime</text>
<text text-anchor="start" x="412" y="-809.8" font-family="Times,serif" font-size="14.00">remember_created_at :datetime</text>
<text text-anchor="start" x="412" y="-794.8" font-family="Times,serif" font-size="14.00">sign_in_count :int(11)</text>
<text text-anchor="start" x="412" y="-779.8" font-family="Times,serif" font-size="14.00">current_sign_in_at :datetime</text>
<text text-anchor="start" x="412" y="-764.8" font-family="Times,serif" font-size="14.00">last_sign_in_at :datetime</text>
<text text-anchor="start" x="412" y="-749.8" font-family="Times,serif" font-size="14.00">current_sign_in_ip :varchar(255)</text>
<text text-anchor="start" x="412" y="-734.8" font-family="Times,serif" font-size="14.00">last_sign_in_ip :varchar(255)</text>
<text text-anchor="start" x="412" y="-719.8" font-family="Times,serif" font-size="14.00">created_at :datetime</text>
<text text-anchor="start" x="412" y="-704.8" font-family="Times,serif" font-size="14.00">updated_at :datetime</text>
<text text-anchor="start" x="412" y="-689.8" font-family="Times,serif" font-size="14.00">token :text</text>
<text text-anchor="start" x="412" y="-674.8" font-family="Times,serif" font-size="14.00">expires_at :int(11)</text>
</g>
<!-- User&#45;&gt;Dataset -->
<g id="edge7" class="edge"><title>User&#45;&gt;Dataset</title>
<path fill="none" stroke="#6bc7d1" d="M511,-658.574C511,-652.033 511,-645.631 511,-639.471"/>
<ellipse fill="none" stroke="#6bc7d1" cx="511" cy="-662.829" rx="4" ry="4"/>
<polygon fill="#6bc7d1" stroke="#6bc7d1" points="511,-639.353 515.5,-629.353 511,-634.353 511,-629.353 511,-629.353 511,-629.353 511,-634.353 506.5,-629.354 511,-639.353 511,-639.353"/>
</g>
</g>
</svg>
