<?xml version="1.0" encoding="UTF-8" standalone="no"?>
<!DOCTYPE svg PUBLIC "-//W3C//DTD SVG 1.1//EN"
 "http://www.w3.org/Graphics/SVG/1.1/DTD/svg11.dtd">
<!-- Generated by graphviz version 2.36.0 (20140111.2315)
 -->
<!-- Title: models_diagram Pages: 1 -->
<svg width="1406pt" height="470pt"
 viewBox="0.00 0.00 1406.00 470.00" xmlns="http://www.w3.org/2000/svg" xmlns:xlink="http://www.w3.org/1999/xlink">
<g id="graph0" class="graph" transform="scale(1 1) rotate(0) translate(4 466)">
<title>models_diagram</title>
<polygon fill="none" stroke="none" points="-4,4 -4,-466 1402,-466 1402,4 -4,4"/>
<!-- _diagram_info -->
<g id="node1" class="node"><title>_diagram_info</title>
<text text-anchor="start" x="7.5" y="-372.6" font-family="Times,serif" font-size="13.00">Models diagram</text>
<text text-anchor="start" x="7.5" y="-358.6" font-family="Times,serif" font-size="13.00">Date: Jun 22 2017 &#45; 14:43</text>
<text text-anchor="start" x="7.5" y="-344.6" font-family="Times,serif" font-size="13.00">Migration version: 20170622052552</text>
<text text-anchor="start" x="7.5" y="-330.6" font-family="Times,serif" font-size="13.00">Generated by RailRoady 1.5.3</text>
<text text-anchor="start" x="7.5" y="-316.6" font-family="Times,serif" font-size="13.00">http://railroady.prestonlee.com</text>
</g>
<!-- ApplicationRecord -->
<g id="node2" class="node"><title>ApplicationRecord</title>
<ellipse fill="none" stroke="black" cx="371" cy="-348" rx="96.2631" ry="18"/>
<text text-anchor="middle" x="371" y="-344.3" font-family="Times,serif" font-size="14.00">ApplicationRecord</text>
</g>
<!-- Author -->
<g id="node3" class="node"><title>Author</title>
<path fill="none" stroke="black" d="M497.5,-295C497.5,-295 682.5,-295 682.5,-295 688.5,-295 694.5,-301 694.5,-307 694.5,-307 694.5,-389 694.5,-389 694.5,-395 688.5,-401 682.5,-401 682.5,-401 497.5,-401 497.5,-401 491.5,-401 485.5,-395 485.5,-389 485.5,-389 485.5,-307 485.5,-307 485.5,-301 491.5,-295 497.5,-295"/>
<text text-anchor="middle" x="590" y="-385.8" font-family="Times,serif" font-size="14.00">Author</text>
<polyline fill="none" stroke="black" points="485.5,-378 694.5,-378 "/>
<text text-anchor="start" x="493.5" y="-362.8" font-family="Times,serif" font-size="14.00">id :bigint(20)</text>
<text text-anchor="start" x="493.5" y="-347.8" font-family="Times,serif" font-size="14.00">given_name :varchar(255)</text>
<text text-anchor="start" x="493.5" y="-332.8" font-family="Times,serif" font-size="14.00">family_name :varchar(255)</text>
<text text-anchor="start" x="493.5" y="-317.8" font-family="Times,serif" font-size="14.00">created_at :datetime</text>
<text text-anchor="start" x="493.5" y="-302.8" font-family="Times,serif" font-size="14.00">updated_at :datetime</text>
</g>
<!-- Source -->
<g id="node5" class="node"><title>Source</title>
<path fill="none" stroke="black" d="M696.5,-1C696.5,-1 899.5,-1 899.5,-1 905.5,-1 911.5,-7 911.5,-13 911.5,-13 911.5,-185 911.5,-185 911.5,-191 905.5,-197 899.5,-197 899.5,-197 696.5,-197 696.5,-197 690.5,-197 684.5,-191 684.5,-185 684.5,-185 684.5,-13 684.5,-13 684.5,-7 690.5,-1 696.5,-1"/>
<text text-anchor="middle" x="798" y="-181.8" font-family="Times,serif" font-size="14.00">Source</text>
<polyline fill="none" stroke="black" points="684.5,-174 911.5,-174 "/>
<text text-anchor="start" x="692.5" y="-158.8" font-family="Times,serif" font-size="14.00">id :bigint(20)</text>
<text text-anchor="start" x="692.5" y="-143.8" font-family="Times,serif" font-size="14.00">citation :varchar(255)</text>
<text text-anchor="start" x="692.5" y="-128.8" font-family="Times,serif" font-size="14.00">authors :varchar(255)</text>
<text text-anchor="start" x="692.5" y="-113.8" font-family="Times,serif" font-size="14.00">year :int(11)</text>
<text text-anchor="start" x="692.5" y="-98.8" font-family="Times,serif" font-size="14.00">purpose :varchar(255)</text>
<text text-anchor="start" x="692.5" y="-83.8" font-family="Times,serif" font-size="14.00">topic_id :bigint(20)</text>
<text text-anchor="start" x="692.5" y="-68.8" font-family="Times,serif" font-size="14.00">discard_reason :varchar(255)</text>
<text text-anchor="start" x="692.5" y="-53.8" font-family="Times,serif" font-size="14.00">created_at :datetime</text>
<text text-anchor="start" x="692.5" y="-38.8" font-family="Times,serif" font-size="14.00">updated_at :datetime</text>
<text text-anchor="start" x="692.5" y="-23.8" font-family="Times,serif" font-size="14.00">title :varchar(255)</text>
<text text-anchor="start" x="692.5" y="-8.8" font-family="Times,serif" font-size="14.00">dataset_id :bigint(20)</text>
</g>
<!-- Author&#45;&gt;Source -->
<g id="edge1" class="edge"><title>Author&#45;&gt;Source</title>
<path fill="none" stroke="#f6df1f" d="M640.432,-287.112C661.165,-262.491 685.806,-233.23 709.371,-205.248"/>
<polygon fill="#f6df1f" stroke="#f6df1f" points="640.299,-287.27 630.415,-292.021 637.078,-291.095 633.857,-294.919 633.857,-294.919 633.857,-294.919 637.078,-291.095 637.299,-297.818 640.299,-287.27 640.299,-287.27"/>
<polygon fill="#f6df1f" stroke="#f6df1f" points="709.543,-205.043 719.426,-200.292 712.763,-201.218 715.984,-197.394 715.984,-197.394 715.984,-197.394 712.763,-201.218 712.542,-194.495 709.543,-205.043 709.543,-205.043"/>
</g>
<!-- Dataset -->
<g id="node4" class="node"><title>Dataset</title>
<path fill="none" stroke="black" d="M725,-295C725,-295 871,-295 871,-295 877,-295 883,-301 883,-307 883,-307 883,-389 883,-389 883,-395 877,-401 871,-401 871,-401 725,-401 725,-401 719,-401 713,-395 713,-389 713,-389 713,-307 713,-307 713,-301 719,-295 725,-295"/>
<text text-anchor="middle" x="798" y="-385.8" font-family="Times,serif" font-size="14.00">Dataset</text>
<polyline fill="none" stroke="black" points="713,-378 883,-378 "/>
<text text-anchor="start" x="721" y="-362.8" font-family="Times,serif" font-size="14.00">id :bigint(20)</text>
<text text-anchor="start" x="721" y="-347.8" font-family="Times,serif" font-size="14.00">name :varchar(255)</text>
<text text-anchor="start" x="721" y="-332.8" font-family="Times,serif" font-size="14.00">user_id :bigint(20)</text>
<text text-anchor="start" x="721" y="-317.8" font-family="Times,serif" font-size="14.00">created_at :datetime</text>
<text text-anchor="start" x="721" y="-302.8" font-family="Times,serif" font-size="14.00">updated_at :datetime</text>
</g>
<!-- Dataset&#45;&gt;Source -->
<g id="edge2" class="edge"><title>Dataset&#45;&gt;Source</title>
<path fill="none" stroke="#4afb45" d="M798,-286.765C798,-262.941 798,-234.814 798,-207.717"/>
<ellipse fill="none" stroke="#4afb45" cx="798" cy="-290.919" rx="4" ry="4"/>
<polygon fill="#4afb45" stroke="#4afb45" points="798,-207.394 802.5,-197.394 798,-202.394 798,-197.394 798,-197.394 798,-197.394 798,-202.394 793.5,-197.394 798,-207.394 798,-207.394"/>
</g>
<!-- Topic -->
<g id="node6" class="node"><title>Topic</title>
<path fill="none" stroke="black" d="M913,-295C913,-295 1089,-295 1089,-295 1095,-295 1101,-301 1101,-307 1101,-307 1101,-389 1101,-389 1101,-395 1095,-401 1089,-401 1089,-401 913,-401 913,-401 907,-401 901,-395 901,-389 901,-389 901,-307 901,-307 901,-301 907,-295 913,-295"/>
<text text-anchor="middle" x="1001" y="-385.8" font-family="Times,serif" font-size="14.00">Topic</text>
<polyline fill="none" stroke="black" points="901,-378 1101,-378 "/>
<text text-anchor="start" x="909" y="-362.8" font-family="Times,serif" font-size="14.00">id :bigint(20)</text>
<text text-anchor="start" x="909" y="-347.8" font-family="Times,serif" font-size="14.00">name :varchar(255)</text>
<text text-anchor="start" x="909" y="-332.8" font-family="Times,serif" font-size="14.00">description :varchar(255)</text>
<text text-anchor="start" x="909" y="-317.8" font-family="Times,serif" font-size="14.00">created_at :datetime</text>
<text text-anchor="start" x="909" y="-302.8" font-family="Times,serif" font-size="14.00">updated_at :datetime</text>
</g>
<!-- Topic&#45;&gt;Source -->
<g id="edge3" class="edge"><title>Topic&#45;&gt;Source</title>
<path fill="none" stroke="#eef600" d="M952.917,-288.495C932.482,-263.63 908.007,-233.85 884.61,-205.383"/>
<ellipse fill="none" stroke="#eef600" cx="955.657" cy="-291.829" rx="4.00002" ry="4.00002"/>
<polygon fill="#eef600" stroke="#eef600" points="884.394,-205.119 881.521,-194.537 881.219,-201.257 878.044,-197.394 878.044,-197.394 878.044,-197.394 881.219,-201.257 874.568,-200.251 884.394,-205.119 884.394,-205.119"/>
</g>
<!-- User -->
<g id="node7" class="node"><title>User</title>
<path fill="none" stroke="black" d="M1131.5,-235C1131.5,-235 1386.5,-235 1386.5,-235 1392.5,-235 1398.5,-241 1398.5,-247 1398.5,-247 1398.5,-449 1398.5,-449 1398.5,-455 1392.5,-461 1386.5,-461 1386.5,-461 1131.5,-461 1131.5,-461 1125.5,-461 1119.5,-455 1119.5,-449 1119.5,-449 1119.5,-247 1119.5,-247 1119.5,-241 1125.5,-235 1131.5,-235"/>
<text text-anchor="middle" x="1259" y="-445.8" font-family="Times,serif" font-size="14.00">User</text>
<polyline fill="none" stroke="black" points="1119.5,-438 1398.5,-438 "/>
<text text-anchor="start" x="1127.5" y="-422.8" font-family="Times,serif" font-size="14.00">id :bigint(20)</text>
<text text-anchor="start" x="1127.5" y="-407.8" font-family="Times,serif" font-size="14.00">email :varchar(255)</text>
<text text-anchor="start" x="1127.5" y="-392.8" font-family="Times,serif" font-size="14.00">encrypted_password :varchar(255)</text>
<text text-anchor="start" x="1127.5" y="-377.8" font-family="Times,serif" font-size="14.00">reset_password_token :varchar(255)</text>
<text text-anchor="start" x="1127.5" y="-362.8" font-family="Times,serif" font-size="14.00">reset_password_sent_at :datetime</text>
<text text-anchor="start" x="1127.5" y="-347.8" font-family="Times,serif" font-size="14.00">remember_created_at :datetime</text>
<text text-anchor="start" x="1127.5" y="-332.8" font-family="Times,serif" font-size="14.00">sign_in_count :int(11)</text>
<text text-anchor="start" x="1127.5" y="-317.8" font-family="Times,serif" font-size="14.00">current_sign_in_at :datetime</text>
<text text-anchor="start" x="1127.5" y="-302.8" font-family="Times,serif" font-size="14.00">last_sign_in_at :datetime</text>
<text text-anchor="start" x="1127.5" y="-287.8" font-family="Times,serif" font-size="14.00">current_sign_in_ip :varchar(255)</text>
<text text-anchor="start" x="1127.5" y="-272.8" font-family="Times,serif" font-size="14.00">last_sign_in_ip :varchar(255)</text>
<text text-anchor="start" x="1127.5" y="-257.8" font-family="Times,serif" font-size="14.00">created_at :datetime</text>
<text text-anchor="start" x="1127.5" y="-242.8" font-family="Times,serif" font-size="14.00">updated_at :datetime</text>
</g>
</g>
</svg>
