<?xml version="1.0" encoding="UTF-8" standalone="no"?>
<!DOCTYPE svg PUBLIC "-//W3C//DTD SVG 1.1//EN"
 "http://www.w3.org/Graphics/SVG/1.1/DTD/svg11.dtd">
<!-- Generated by graphviz version 2.36.0 (20140111.2315)
 -->
<!-- Title: models_diagram Pages: 1 -->
<svg width="1652pt" height="236pt"
 viewBox="0.00 0.00 1652.00 236.00" xmlns="http://www.w3.org/2000/svg" xmlns:xlink="http://www.w3.org/1999/xlink">
<g id="graph0" class="graph" transform="scale(1 1) rotate(0) translate(4 232)">
<title>models_diagram</title>
<polygon fill="none" stroke="none" points="-4,4 -4,-232 1648,-232 1648,4 -4,4"/>
<!-- _diagram_info -->
<g id="node1" class="node"><title>_diagram_info</title>
<text text-anchor="start" x="7.5" y="-138.6" font-family="Times,serif" font-size="13.00">Models diagram</text>
<text text-anchor="start" x="7.5" y="-124.6" font-family="Times,serif" font-size="13.00">Date: Jun 22 2017 &#45; 00:11</text>
<text text-anchor="start" x="7.5" y="-110.6" font-family="Times,serif" font-size="13.00">Migration version: 20170621150442</text>
<text text-anchor="start" x="7.5" y="-96.6" font-family="Times,serif" font-size="13.00">Generated by RailRoady 1.5.3</text>
<text text-anchor="start" x="7.5" y="-82.6" font-family="Times,serif" font-size="13.00">http://railroady.prestonlee.com</text>
</g>
<!-- ApplicationRecord -->
<g id="node2" class="node"><title>ApplicationRecord</title>
<ellipse fill="none" stroke="black" cx="371" cy="-114" rx="96.2631" ry="18"/>
<text text-anchor="middle" x="371" y="-110.3" font-family="Times,serif" font-size="14.00">ApplicationRecord</text>
</g>
<!-- Author -->
<g id="node3" class="node"><title>Author</title>
<path fill="none" stroke="black" d="M497.5,-61C497.5,-61 682.5,-61 682.5,-61 688.5,-61 694.5,-67 694.5,-73 694.5,-73 694.5,-155 694.5,-155 694.5,-161 688.5,-167 682.5,-167 682.5,-167 497.5,-167 497.5,-167 491.5,-167 485.5,-161 485.5,-155 485.5,-155 485.5,-73 485.5,-73 485.5,-67 491.5,-61 497.5,-61"/>
<text text-anchor="middle" x="590" y="-151.8" font-family="Times,serif" font-size="14.00">Author</text>
<polyline fill="none" stroke="black" points="485.5,-144 694.5,-144 "/>
<text text-anchor="start" x="493.5" y="-128.8" font-family="Times,serif" font-size="14.00">id :bigint(20)</text>
<text text-anchor="start" x="493.5" y="-113.8" font-family="Times,serif" font-size="14.00">given_name :varchar(255)</text>
<text text-anchor="start" x="493.5" y="-98.8" font-family="Times,serif" font-size="14.00">family_name :varchar(255)</text>
<text text-anchor="start" x="493.5" y="-83.8" font-family="Times,serif" font-size="14.00">created_at :datetime</text>
<text text-anchor="start" x="493.5" y="-68.8" font-family="Times,serif" font-size="14.00">updated_at :datetime</text>
</g>
<!-- Dataset -->
<g id="node4" class="node"><title>Dataset</title>
<path fill="none" stroke="black" d="M725,-61C725,-61 871,-61 871,-61 877,-61 883,-67 883,-73 883,-73 883,-155 883,-155 883,-161 877,-167 871,-167 871,-167 725,-167 725,-167 719,-167 713,-161 713,-155 713,-155 713,-73 713,-73 713,-67 719,-61 725,-61"/>
<text text-anchor="middle" x="798" y="-151.8" font-family="Times,serif" font-size="14.00">Dataset</text>
<polyline fill="none" stroke="black" points="713,-144 883,-144 "/>
<text text-anchor="start" x="721" y="-128.8" font-family="Times,serif" font-size="14.00">id :bigint(20)</text>
<text text-anchor="start" x="721" y="-113.8" font-family="Times,serif" font-size="14.00">name :varchar(255)</text>
<text text-anchor="start" x="721" y="-98.8" font-family="Times,serif" font-size="14.00">user_id :bigint(20)</text>
<text text-anchor="start" x="721" y="-83.8" font-family="Times,serif" font-size="14.00">created_at :datetime</text>
<text text-anchor="start" x="721" y="-68.8" font-family="Times,serif" font-size="14.00">updated_at :datetime</text>
</g>
<!-- Source -->
<g id="node5" class="node"><title>Source</title>
<path fill="none" stroke="black" d="M913.5,-16C913.5,-16 1116.5,-16 1116.5,-16 1122.5,-16 1128.5,-22 1128.5,-28 1128.5,-28 1128.5,-200 1128.5,-200 1128.5,-206 1122.5,-212 1116.5,-212 1116.5,-212 913.5,-212 913.5,-212 907.5,-212 901.5,-206 901.5,-200 901.5,-200 901.5,-28 901.5,-28 901.5,-22 907.5,-16 913.5,-16"/>
<text text-anchor="middle" x="1015" y="-196.8" font-family="Times,serif" font-size="14.00">Source</text>
<polyline fill="none" stroke="black" points="901.5,-189 1128.5,-189 "/>
<text text-anchor="start" x="909.5" y="-173.8" font-family="Times,serif" font-size="14.00">id :bigint(20)</text>
<text text-anchor="start" x="909.5" y="-158.8" font-family="Times,serif" font-size="14.00">citation :varchar(255)</text>
<text text-anchor="start" x="909.5" y="-143.8" font-family="Times,serif" font-size="14.00">authors :varchar(255)</text>
<text text-anchor="start" x="909.5" y="-128.8" font-family="Times,serif" font-size="14.00">year :int(11)</text>
<text text-anchor="start" x="909.5" y="-113.8" font-family="Times,serif" font-size="14.00">purpose :varchar(255)</text>
<text text-anchor="start" x="909.5" y="-98.8" font-family="Times,serif" font-size="14.00">topic_id :bigint(20)</text>
<text text-anchor="start" x="909.5" y="-83.8" font-family="Times,serif" font-size="14.00">discard_reason :varchar(255)</text>
<text text-anchor="start" x="909.5" y="-68.8" font-family="Times,serif" font-size="14.00">created_at :datetime</text>
<text text-anchor="start" x="909.5" y="-53.8" font-family="Times,serif" font-size="14.00">updated_at :datetime</text>
<text text-anchor="start" x="909.5" y="-38.8" font-family="Times,serif" font-size="14.00">title :varchar(255)</text>
<text text-anchor="start" x="909.5" y="-23.8" font-family="Times,serif" font-size="14.00">dataset_id :bigint(20)</text>
</g>
<!-- Topic -->
<g id="node6" class="node"><title>Topic</title>
<path fill="none" stroke="black" d="M1159,-61C1159,-61 1335,-61 1335,-61 1341,-61 1347,-67 1347,-73 1347,-73 1347,-155 1347,-155 1347,-161 1341,-167 1335,-167 1335,-167 1159,-167 1159,-167 1153,-167 1147,-161 1147,-155 1147,-155 1147,-73 1147,-73 1147,-67 1153,-61 1159,-61"/>
<text text-anchor="middle" x="1247" y="-151.8" font-family="Times,serif" font-size="14.00">Topic</text>
<polyline fill="none" stroke="black" points="1147,-144 1347,-144 "/>
<text text-anchor="start" x="1155" y="-128.8" font-family="Times,serif" font-size="14.00">id :bigint(20)</text>
<text text-anchor="start" x="1155" y="-113.8" font-family="Times,serif" font-size="14.00">name :varchar(255)</text>
<text text-anchor="start" x="1155" y="-98.8" font-family="Times,serif" font-size="14.00">description :varchar(255)</text>
<text text-anchor="start" x="1155" y="-83.8" font-family="Times,serif" font-size="14.00">created_at :datetime</text>
<text text-anchor="start" x="1155" y="-68.8" font-family="Times,serif" font-size="14.00">updated_at :datetime</text>
</g>
<!-- User -->
<g id="node7" class="node"><title>User</title>
<path fill="none" stroke="black" d="M1377.5,-1C1377.5,-1 1632.5,-1 1632.5,-1 1638.5,-1 1644.5,-7 1644.5,-13 1644.5,-13 1644.5,-215 1644.5,-215 1644.5,-221 1638.5,-227 1632.5,-227 1632.5,-227 1377.5,-227 1377.5,-227 1371.5,-227 1365.5,-221 1365.5,-215 1365.5,-215 1365.5,-13 1365.5,-13 1365.5,-7 1371.5,-1 1377.5,-1"/>
<text text-anchor="middle" x="1505" y="-211.8" font-family="Times,serif" font-size="14.00">User</text>
<polyline fill="none" stroke="black" points="1365.5,-204 1644.5,-204 "/>
<text text-anchor="start" x="1373.5" y="-188.8" font-family="Times,serif" font-size="14.00">id :bigint(20)</text>
<text text-anchor="start" x="1373.5" y="-173.8" font-family="Times,serif" font-size="14.00">email :varchar(255)</text>
<text text-anchor="start" x="1373.5" y="-158.8" font-family="Times,serif" font-size="14.00">encrypted_password :varchar(255)</text>
<text text-anchor="start" x="1373.5" y="-143.8" font-family="Times,serif" font-size="14.00">reset_password_token :varchar(255)</text>
<text text-anchor="start" x="1373.5" y="-128.8" font-family="Times,serif" font-size="14.00">reset_password_sent_at :datetime</text>
<text text-anchor="start" x="1373.5" y="-113.8" font-family="Times,serif" font-size="14.00">remember_created_at :datetime</text>
<text text-anchor="start" x="1373.5" y="-98.8" font-family="Times,serif" font-size="14.00">sign_in_count :int(11)</text>
<text text-anchor="start" x="1373.5" y="-83.8" font-family="Times,serif" font-size="14.00">current_sign_in_at :datetime</text>
<text text-anchor="start" x="1373.5" y="-68.8" font-family="Times,serif" font-size="14.00">last_sign_in_at :datetime</text>
<text text-anchor="start" x="1373.5" y="-53.8" font-family="Times,serif" font-size="14.00">current_sign_in_ip :varchar(255)</text>
<text text-anchor="start" x="1373.5" y="-38.8" font-family="Times,serif" font-size="14.00">last_sign_in_ip :varchar(255)</text>
<text text-anchor="start" x="1373.5" y="-23.8" font-family="Times,serif" font-size="14.00">created_at :datetime</text>
<text text-anchor="start" x="1373.5" y="-8.8" font-family="Times,serif" font-size="14.00">updated_at :datetime</text>
</g>
</g>
</svg>
